<svg version="1.1" xmlns="http://www.w3.org/2000/svg" viewBox="0 0 17545 8773"><style type="text/css">.fil0 {fill:#E31E24}.fil1 {fill:#FEFEFE}.fil2 {fill:#FFDD00}.fil3 {fill:#2B2A29;fill-rule:nonzero}</style><polygon class="fil0" points="8772,8773 0,8773 0,0 8772,0 "/><path class="fil1" d="M3033 6597c-351,0 -508,-288 -508,-573 0,-284 157,-569 508,-569 347,0 502,285 502,569 0,285 -156,573 -502,573zm0 -966c-216,0 -315,204 -315,394 0,191 99,397 315,397 213,0 310,-206 310,-397 0,-190 -97,-394 -310,-394z"/><path class="fil1" d="M1389 6414c73,-137 86,-331 86,-563l0 -325c0,-49 42,-62 92,-62l586 0c51,0 93,13 93,63l0 888 109 0c47,0 85,9 85,55l0 391c0,49 -38,62 -86,62 -49,0 -89,-13 -89,-62l0 -273 -878 0 0 273c0,49 -40,62 -88,62 -49,0 -86,-13 -86,-62l0 -391c0,-56 35,-55 77,-55l100 0zm666 0l0 -777 -391 0 0 214c0,204 -15,425 -80,563l471 0z"/><path class="fil1" d="M4760 6535c0,49 -39,61 -89,61 -47,0 -88,-12 -88,-61l0 -656 -247 528c-18,32 -46,49 -78,49 -31,0 -60,-17 -75,-49l-245 -525 0 653c0,49 -40,61 -89,61 -48,0 -91,-12 -91,-61l0 -1022c0,-47 43,-58 91,-58 31,0 65,16 78,48l333 696 333 -696c13,-28 42,-48 78,-48 51,0 89,11 89,58l0 1022z"/><path class="fil1" d="M5255 6596c-108,0 -196,-86 -196,-193 0,-109 88,-195 196,-195 107,0 195,86 195,195 0,107 -88,193 -195,193z"/><path class="fil1" d="M6304 5455c-98,0 -202,60 -261,152l0 -49c0,-82 -67,-103 -151,-103 -83,0 -148,20 -148,103l0 936c0,82 67,103 151,103 83,0 149,-21 149,-103l1 -615c3,-89 103,-140 191,-140 68,0 88,11 126,11 93,0 143,-71 143,-147 0,-100 -100,-148 -200,-148z"/><path class="fil1" d="M7413 5455c-82,0 -151,23 -151,105l0 661c-40,58 -102,96 -185,96 -129,0 -156,-71 -156,-174l0 -583c0,-82 -69,-105 -151,-105 -82,0 -149,23 -149,105l0 621c0,246 107,415 374,415 115,0 209,-68 267,-158l0 55c0,82 66,103 151,103 82,0 149,-21 149,-103l0 -934c0,-82 -66,-105 -149,-105z"/><path class="fil1" d="M5255 2425c-151,0 -274,123 -274,275 0,151 124,274 274,274 151,0 275,-123 275,-274 0,-152 -123,-275 -275,-275z"/><path class="fil1" d="M5829 2005c-437,-103 -941,-157 -1442,-157 -503,0 -1006,54 -1443,157 -158,36 -215,125 -215,278l0 2049c0,155 58,242 215,279 438,102 940,155 1443,155 501,0 1005,-53 1442,-155 158,-37 215,-124 215,-279l0 -2049c0,-154 -57,-242 -215,-278zm39 2319c0,58 -39,107 -94,119 -420,97 -901,148 -1387,148 -487,0 -967,-51 -1388,-148 -56,-13 -94,-62 -94,-119l0 -2033c0,-57 39,-106 94,-119 421,-97 901,-149 1388,-149 486,0 966,52 1387,149 55,13 94,62 94,119l0 2033z"/><polygon class="fil2" points="8772,8773 17545,8773 17545,0 8772,0 "/><path class="fil3" d="M9995 6602l361 0c301,0 465,-126 465,-348 0,-236 -172,-353 -488,-353l-121 0 0 -243 520 0 0 -170 -736 0 0 1114zm342 -532c176,0 260,61 260,181 0,109 -71,181 -246,181l-140 0 0 -362 126 0zm703 532l214 0 452 -677 88 -140 -5 156 0 662 214 0 0 -1114 -214 0 -440 655 -101 162 5 -156 0 -662 -214 0 0 1114zm1537 13c325,0 424,-173 424,-323 0,-175 -137,-243 -205,-261l0 -3c63,-33 159,-110 159,-266 0,-154 -128,-279 -378,-279 -142,0 -254,43 -326,80l69 147c68,-25 145,-54 236,-54 118,0 181,52 181,148 0,96 -72,156 -192,156l-139 0 0 159 139 0c134,0 235,41 235,158 0,118 -96,164 -221,164 -110,0 -221,-43 -285,-74l-71 162c85,47 211,87 373,87zm658 -13l214 0 0 -476 526 0 0 476 214 0 0 -1114 -214 0 0 471 -526 0 0 -471 -214 0 0 1114zm1260 0l726 0 0 -170 -512 0 0 -309 441 0 0 -161 -441 0 0 -304 476 0 0 -170 -690 0 0 1114zm1493 19c148,0 239,-20 334,-55l-47 -165c-80,24 -153,36 -260,36 -238,0 -410,-129 -410,-400 0,-268 165,-386 380,-384 124,2 178,17 274,46l60 -159c-76,-35 -173,-68 -337,-68 -373,0 -597,225 -597,581 0,353 210,569 603,569z"/></svg>