<svg id="Слой_1" data-name="Слой 1" xmlns="http://www.w3.org/2000/svg" viewBox="0 0 883.35 677.48"><defs><style>.cls-1{fill:#8c8c8c;}.cls-2{fill:#e6e6e6;}.cls-3{fill:#e0e0e0;}.cls-4{fill:#f2f2f2;}.cls-5{fill:#b6b6b6;}.cls-6{fill:#cacaca;}.cls-7{fill:#ababab;}.cls-8{fill:#e8e8e8;}.cls-9{fill:#d4d4d4;}.cls-10{fill:#b3b3b3;}.cls-11{fill:#919191;}.cls-12{fill:#8a8a8a;}.cls-13{fill:#c9c9c9;}.cls-14{fill:#707070;}.cls-15{fill:#bababa;}.cls-16{fill:#b8b8b8;}.cls-17{fill:#696969;}.cls-18{fill:#787878;}.cls-19{fill:#adadad;}.cls-20{fill:#9e9e9e;}.cls-21{fill:#bfbfbf;}.cls-22{fill:#d1d1d1;}.cls-23{fill:#ba9886;}.cls-24{fill:#d6af9a;}.cls-25{fill:#fff;}.cls-26{fill:#424242;}.cls-27{fill:#575757;}.cls-28{fill:#dedede;}.cls-29{fill:#e6cdba;}.cls-30{fill:#f7ddc8;}.cls-31{fill:#593519;}.cls-32{fill:#ebebeb;}.cls-33{fill:#d1c1c1;}.cls-34{fill:#a39797;}.cls-35{fill:#a6636b;}.cls-36{fill:#e6c249;}.cls-37{fill:#e6f0c4;}.cls-38{fill:#e390ac;}.cls-39{fill:#f0d4d4;}.cls-40{fill:#a66763;}.cls-41{fill:#7d4e4b;}.cls-42{fill:#c77b77;}.cls-43{fill:#9c9c9c;}.cls-44{fill:#fffef9;}.cls-45{fill:#c68476;}.cls-46{fill:#ffe4e1;}.cls-47{opacity:0.1;}.cls-48{fill:#baa37d;}.cls-49{fill:#ccb489;}.cls-50{fill:#e6ca9b;}.cls-51{fill:#ffe3ab;}.cls-52{fill:#ad9a74;}.cls-53{fill:#ffe2e2;}.cls-54{fill:#ab6e66;}.cls-55{fill:#e3938d;}.cls-56{fill:#d4f0ee;}.cls-57{fill:#63a0a6;}.cls-58{fill:#77c0c7;}.cls-59{fill:#ebd0d4;}.cls-60{fill:#834e6c;}.cls-61{fill:#c27878;}.cls-62{fill:#ffebe2;}.cls-63{fill:#ab8366;}.cls-64{fill:#e3ac8d;}.cls-65{fill:#bab6b1;}.cls-66{fill:#ccc8c2;}.cls-67{fill:#e6e2da;}.cls-68{fill:#fffbf2;}.cls-69{fill:#adaaa4;}.cls-70{fill:#bf3f30;}.cls-71{fill:#d66254;}.cls-72{fill:#a64c56;}.cls-73{fill:#e6ba29;}.cls-74{fill:#e2f0b4;}.cls-75{fill:#e37198;}.cls-76{fill:#f0caca;}.cls-77{fill:#a6514c;}.cls-78{fill:#7d3d39;}.cls-79{fill:#c7615b;}.cls-80{fill:#fffef7;}.cls-81{fill:#c66d5a;}.cls-82{fill:#ffdad6;}.cls-83{fill:#456b36;}.cls-84{fill:#8bd46b;}.cls-85{fill:#74b35a;}.cls-86{fill:#659c4e;}.cls-87{fill:#b4b4b4;}.cls-88{fill:#2d2d2d;}.cls-89{fill:#4d4d4d;}.cls-90{fill:#87da17;}.cls-91{fill:#8be712;}.cls-92{fill:#af7300;}.cls-93{fill:#ff4c36;}.cls-94{fill:#f7f7f7;}.cls-95{fill:#b5b5b5;}.cls-96{fill:#c4c4c4;}.cls-97{fill:#efefef;}.cls-98{fill:#d3d3d3;}.cls-99{fill:#bcbcbc;}.cls-100{fill:#ededed;}.cls-101{fill:#a6a6a6;}.cls-102{fill:#dbdbdb;}.cls-103{fill:#a8a8a8;}.cls-104{fill:#ccc;}.cls-105{fill:#bfbbb4;}.cls-106{fill:#696b6e;}.cls-107{fill:#5a5a5d;}.cls-108{fill:#e21e23;}.cls-109{fill:#808285;}.cls-110{fill:#d5d1c8;}</style></defs><title>Монтажная область 1</title><polygon class="cls-1" points="882.21 457.24 441.73 677.48 1.25 457.24 0.11 436.45 441.73 237 883.35 436.45 882.21 457.24"/><polygon class="cls-2" points="883.35 436.45 441.73 657.26 0.11 436.45 441.73 215.64 883.35 436.45"/><polygon class="cls-3" points="0.76 437.05 441.73 657.54 882.69 437.05 441.73 216.57 0.76 437.05"/><polygon class="cls-4" points="798.95 437.05 840.82 457.99 882.69 437.05 840.82 416.12 798.95 437.05"/><polygon class="cls-4" points="754.61 459.23 796.48 480.16 838.35 459.23 796.48 438.29 754.61 459.23"/><polygon class="cls-4" points="710.26 481.4 752.13 502.33 794 481.4 752.13 460.46 710.26 481.4"/><polygon class="cls-4" points="665.92 503.57 707.79 524.5 749.66 503.57 707.79 482.63 665.92 503.57"/><polygon class="cls-4" points="621.58 525.74 663.45 546.68 705.32 525.74 663.45 504.81 621.58 525.74"/><polygon class="cls-4" points="577.23 547.91 619.1 568.85 660.97 547.91 619.1 526.98 577.23 547.91"/><polygon class="cls-4" points="532.89 570.09 574.76 591.02 616.63 570.09 574.76 549.15 532.89 570.09"/><polygon class="cls-4" points="488.54 592.26 530.41 613.19 572.28 592.26 530.41 571.32 488.54 592.26"/><polygon class="cls-4" points="444.2 614.43 486.07 635.37 527.94 614.43 486.07 593.5 444.2 614.43"/><polygon class="cls-4" points="399.86 636.6 441.73 657.54 483.59 636.6 441.73 615.67 399.86 636.6"/><polygon class="cls-4" points="754.61 414.88 796.48 435.82 838.35 414.88 796.48 393.95 754.61 414.88"/><polygon class="cls-4" points="710.26 437.05 752.13 457.99 794 437.05 752.13 416.12 710.26 437.05"/><polygon class="cls-4" points="665.92 459.23 707.79 480.16 749.66 459.23 707.79 438.29 665.92 459.23"/><polygon class="cls-4" points="621.58 481.4 663.45 502.33 705.32 481.4 663.45 460.46 621.58 481.4"/><polygon class="cls-4" points="577.23 503.57 619.1 524.5 660.97 503.57 619.1 482.63 577.23 503.57"/><polygon class="cls-4" points="532.89 525.74 574.76 546.68 616.63 525.74 574.76 504.81 532.89 525.74"/><polygon class="cls-4" points="488.54 547.91 530.41 568.85 572.28 547.91 530.41 526.98 488.54 547.91"/><polygon class="cls-4" points="444.2 570.09 486.07 591.02 527.94 570.09 486.07 549.15 444.2 570.09"/><polygon class="cls-4" points="399.86 592.26 441.73 613.19 483.59 592.26 441.73 571.32 399.86 592.26"/><polygon class="cls-4" points="355.51 614.43 397.38 635.37 439.25 614.43 397.38 593.5 355.51 614.43"/><polygon class="cls-4" points="710.26 392.71 752.13 413.64 794 392.71 752.13 371.77 710.26 392.71"/><polygon class="cls-4" points="665.92 414.88 707.79 435.82 749.66 414.88 707.79 393.95 665.92 414.88"/><polygon class="cls-4" points="621.58 437.05 663.45 457.99 705.32 437.05 663.45 416.12 621.58 437.05"/><polygon class="cls-4" points="577.23 459.23 619.1 480.16 660.97 459.23 619.1 438.29 577.23 459.23"/><polygon class="cls-4" points="532.89 481.4 574.76 502.33 616.63 481.4 574.76 460.46 532.89 481.4"/><polygon class="cls-4" points="488.54 503.57 530.41 524.5 572.28 503.57 530.41 482.63 488.54 503.57"/><polygon class="cls-4" points="444.2 525.74 486.07 546.68 527.94 525.74 486.07 504.81 444.2 525.74"/><polygon class="cls-4" points="399.86 547.91 441.73 568.85 483.59 547.91 441.73 526.98 399.86 547.91"/><polygon class="cls-4" points="355.51 570.09 397.38 591.02 439.25 570.09 397.38 549.15 355.51 570.09"/><polygon class="cls-4" points="311.17 592.26 353.04 613.19 394.9 592.26 353.04 571.32 311.17 592.26"/><polygon class="cls-4" points="665.92 370.54 707.79 391.47 749.66 370.54 707.79 349.6 665.92 370.54"/><polygon class="cls-4" points="621.58 392.71 663.45 413.64 705.32 392.71 663.45 371.77 621.58 392.71"/><polygon class="cls-4" points="577.23 414.88 619.1 435.82 660.97 414.88 619.1 393.95 577.23 414.88"/><polygon class="cls-4" points="532.89 437.05 574.76 457.99 616.63 437.05 574.76 416.12 532.89 437.05"/><polygon class="cls-4" points="488.54 459.23 530.41 480.16 572.28 459.23 530.41 438.29 488.54 459.23"/><polygon class="cls-4" points="444.2 481.4 486.07 502.33 527.94 481.4 486.07 460.46 444.2 481.4"/><polygon class="cls-4" points="399.86 503.57 441.73 524.5 483.59 503.57 441.73 482.63 399.86 503.57"/><polygon class="cls-4" points="355.51 525.74 397.38 546.68 439.25 525.74 397.38 504.81 355.51 525.74"/><polygon class="cls-4" points="311.17 547.91 353.04 568.85 394.9 547.91 353.04 526.98 311.17 547.91"/><polygon class="cls-4" points="266.82 570.09 308.69 591.02 350.56 570.09 308.69 549.15 266.82 570.09"/><polygon class="cls-4" points="621.58 348.37 663.45 369.3 705.32 348.37 663.45 327.43 621.58 348.37"/><polygon class="cls-4" points="577.23 370.54 619.1 391.47 660.97 370.54 619.1 349.6 577.23 370.54"/><polygon class="cls-4" points="532.89 392.71 574.76 413.64 616.63 392.71 574.76 371.77 532.89 392.71"/><polygon class="cls-4" points="488.54 414.88 530.41 435.82 572.28 414.88 530.41 393.95 488.54 414.88"/><polygon class="cls-4" points="444.2 437.05 486.07 457.99 527.94 437.05 486.07 416.12 444.2 437.05"/><polygon class="cls-4" points="399.86 459.23 441.73 480.16 483.59 459.23 441.73 438.29 399.86 459.23"/><polygon class="cls-4" points="355.51 481.4 397.38 502.33 439.25 481.4 397.38 460.46 355.51 481.4"/><polygon class="cls-4" points="311.17 503.57 353.04 524.5 394.9 503.57 353.04 482.63 311.17 503.57"/><polygon class="cls-4" points="266.82 525.74 308.69 546.68 350.56 525.74 308.69 504.81 266.82 525.74"/><polygon class="cls-4" points="222.48 547.91 264.35 568.85 306.22 547.91 264.35 526.98 222.48 547.91"/><polygon class="cls-4" points="577.23 326.19 619.1 347.13 660.97 326.19 619.1 305.26 577.23 326.19"/><polygon class="cls-4" points="532.89 348.37 574.76 369.3 616.63 348.37 574.76 327.43 532.89 348.37"/><polygon class="cls-4" points="488.54 370.54 530.41 391.47 572.28 370.54 530.41 349.6 488.54 370.54"/><polygon class="cls-4" points="444.2 392.71 486.07 413.64 527.94 392.71 486.07 371.77 444.2 392.71"/><polygon class="cls-4" points="399.86 414.88 441.73 435.82 483.59 414.88 441.73 393.95 399.86 414.88"/><polygon class="cls-4" points="355.51 437.05 397.38 457.99 439.25 437.05 397.38 416.12 355.51 437.05"/><polygon class="cls-4" points="311.17 459.23 353.04 480.16 394.9 459.23 353.04 438.29 311.17 459.23"/><polygon class="cls-4" points="266.82 481.4 308.69 502.33 350.56 481.4 308.69 460.46 266.82 481.4"/><polygon class="cls-4" points="222.48 503.57 264.35 524.5 306.22 503.57 264.35 482.63 222.48 503.57"/><polygon class="cls-4" points="178.13 525.74 220 546.68 261.87 525.74 220 504.81 178.13 525.74"/><polygon class="cls-4" points="532.89 304.02 574.76 324.95 616.63 304.02 574.76 283.09 532.89 304.02"/><polygon class="cls-4" points="488.54 326.19 530.41 347.13 572.28 326.19 530.41 305.26 488.54 326.19"/><polygon class="cls-4" points="444.2 348.37 486.07 369.3 527.94 348.37 486.07 327.43 444.2 348.37"/><polygon class="cls-4" points="399.86 370.54 441.73 391.47 483.59 370.54 441.73 349.6 399.86 370.54"/><polygon class="cls-4" points="355.51 392.71 397.38 413.64 439.25 392.71 397.38 371.77 355.51 392.71"/><polygon class="cls-4" points="311.17 414.88 353.04 435.82 394.9 414.88 353.04 393.95 311.17 414.88"/><polygon class="cls-4" points="266.82 437.05 308.69 457.99 350.56 437.05 308.69 416.12 266.82 437.05"/><polygon class="cls-4" points="222.48 459.23 264.35 480.16 306.22 459.23 264.35 438.29 222.48 459.23"/><polygon class="cls-4" points="178.13 481.4 220 502.33 261.87 481.4 220 460.46 178.13 481.4"/><polygon class="cls-4" points="133.79 503.57 175.66 524.5 217.53 503.57 175.66 482.63 133.79 503.57"/><polygon class="cls-4" points="488.54 281.85 530.41 302.78 572.28 281.85 530.41 260.91 488.54 281.85"/><polygon class="cls-4" points="444.2 304.02 486.07 324.95 527.94 304.02 486.07 283.09 444.2 304.02"/><polygon class="cls-4" points="399.86 326.19 441.73 347.13 483.59 326.19 441.73 305.26 399.86 326.19"/><polygon class="cls-4" points="355.51 348.37 397.38 369.3 439.25 348.37 397.38 327.43 355.51 348.37"/><polygon class="cls-4" points="311.17 370.54 353.04 391.47 394.9 370.54 353.04 349.6 311.17 370.54"/><polygon class="cls-4" points="266.82 392.71 308.69 413.64 350.56 392.71 308.69 371.77 266.82 392.71"/><polygon class="cls-4" points="222.48 414.88 264.35 435.82 306.22 414.88 264.35 393.95 222.48 414.88"/><polygon class="cls-4" points="178.13 437.05 220 457.99 261.87 437.05 220 416.12 178.13 437.05"/><polygon class="cls-4" points="133.79 459.23 175.66 480.16 217.53 459.23 175.66 438.29 133.79 459.23"/><polygon class="cls-4" points="89.45 481.4 131.31 502.33 173.19 481.4 131.31 460.46 89.45 481.4"/><polygon class="cls-4" points="444.2 259.68 486.07 280.61 527.94 259.68 486.07 238.74 444.2 259.68"/><polygon class="cls-4" points="399.86 281.85 441.73 302.78 483.59 281.85 441.73 260.91 399.86 281.85"/><polygon class="cls-4" points="355.51 304.02 397.38 324.95 439.25 304.02 397.38 283.09 355.51 304.02"/><polygon class="cls-4" points="311.17 326.19 353.04 347.13 394.9 326.19 353.04 305.26 311.17 326.19"/><polygon class="cls-4" points="266.82 348.37 308.69 369.3 350.56 348.37 308.69 327.43 266.82 348.37"/><polygon class="cls-4" points="222.48 370.54 264.35 391.47 306.22 370.54 264.35 349.6 222.48 370.54"/><polygon class="cls-4" points="178.13 392.71 220 413.64 261.87 392.71 220 371.77 178.13 392.71"/><polygon class="cls-4" points="133.79 414.88 175.66 435.82 217.53 414.88 175.66 393.95 133.79 414.88"/><polygon class="cls-4" points="89.45 437.05 131.31 457.99 173.19 437.05 131.31 416.12 89.45 437.05"/><polygon class="cls-4" points="45.1 459.23 86.97 480.16 128.84 459.23 86.97 438.29 45.1 459.23"/><polygon class="cls-4" points="399.86 237.5 441.73 258.44 483.59 237.5 441.73 216.57 399.86 237.5"/><polygon class="cls-4" points="355.51 259.68 397.38 280.61 439.25 259.68 397.38 238.74 355.51 259.68"/><polygon class="cls-4" points="311.17 281.85 353.04 302.78 394.9 281.85 353.04 260.91 311.17 281.85"/><polygon class="cls-4" points="266.82 304.02 308.69 324.95 350.56 304.02 308.69 283.09 266.82 304.02"/><polygon class="cls-4" points="222.48 326.19 264.35 347.13 306.22 326.19 264.35 305.26 222.48 326.19"/><polygon class="cls-4" points="178.13 348.37 220 369.3 261.87 348.37 220 327.43 178.13 348.37"/><polygon class="cls-4" points="133.79 370.54 175.66 391.47 217.53 370.54 175.66 349.6 133.79 370.54"/><polygon class="cls-4" points="89.45 392.71 131.31 413.64 173.19 392.71 131.31 371.77 89.45 392.71"/><polygon class="cls-4" points="45.1 414.88 86.97 435.82 128.84 414.88 86.97 393.95 45.1 414.88"/><polygon class="cls-4" points="0.76 437.05 42.63 457.99 84.5 437.05 42.63 416.12 0.76 437.05"/><polygon class="cls-5" points="425.05 332.26 430.85 329.59 430.85 310.34 425.05 313.02 425.05 332.26"/><polygon class="cls-6" points="430.85 310.39 425.05 313.05 419.26 310.15 425.05 307.49 430.85 310.39"/><polygon class="cls-7" points="425.05 332.26 425.05 313.02 419.26 310.12 419.26 329.36 425.05 332.26"/><polygon class="cls-5" points="326.98 283.59 332.78 280.92 332.78 261.68 326.98 264.35 326.98 283.59"/><polygon class="cls-6" points="332.78 261.72 326.98 264.38 321.19 261.48 326.98 258.82 332.78 261.72"/><polygon class="cls-7" points="326.98 283.59 326.98 264.35 321.19 261.45 321.19 280.69 326.98 283.59"/><polygon class="cls-5" points="523.14 282.91 528.94 280.24 528.94 244.66 523.14 247.33 523.14 282.91"/><polygon class="cls-6" points="528.94 244.71 523.14 247.37 517.35 244.47 523.14 241.81 528.94 244.71"/><polygon class="cls-7" points="523.14 282.91 523.14 247.33 517.35 244.43 517.35 280.01 523.14 282.91"/><polygon class="cls-8" points="321.17 141.35 425.05 193.3 528.94 141.35 425.05 89.41 321.17 141.35"/><polygon class="cls-1" points="433.9 139.17 470.7 157.57 507.5 139.17 470.7 120.77 433.9 139.17"/><polygon class="cls-1" points="394.86 119.65 431.66 138.05 468.46 119.65 431.66 101.25 394.86 119.65"/><polygon class="cls-1" points="394.03 159.1 430.83 177.5 467.63 159.1 430.83 140.7 394.03 159.1"/><polygon class="cls-1" points="354.99 139.58 391.79 157.99 428.59 139.58 391.79 121.18 354.99 139.58"/><polygon class="cls-9" points="425.05 313.49 528.94 261.54 528.94 141.32 425.05 193.27 425.05 313.49"/><polygon class="cls-10" points="445.5 280.06 524.22 240.69 524.22 192.17 445.5 231.54 445.5 280.06"/><polygon class="cls-10" points="429.65 226.88 524.22 179.59 524.22 156.95 429.65 204.24 429.65 226.88"/><polygon class="cls-11" points="425.05 206.56 528.94 154.61 528.94 141.32 425.05 193.27 425.05 206.56"/><polygon class="cls-9" points="452 244.71 517.43 211.99 517.43 204.94 452 237.66 452 244.71"/><polygon class="cls-12" points="452 244.71 459.05 241.18 459.05 234.14 452 237.66 452 244.71"/><polygon class="cls-12" points="510.39 215.51 517.43 211.99 517.43 204.94 510.39 208.46 510.39 215.51"/><polygon class="cls-13" points="321.19 261.56 425.07 313.51 425.07 193.29 321.19 141.34 321.19 261.56"/><polygon class="cls-10" points="321.17 193.69 425.05 245.64 425.05 242.19 321.17 190.23 321.17 193.69"/><polygon class="cls-9" points="326.38 144 430.26 92.04 430.26 81.67 326.38 133.62 326.38 144"/><polygon class="cls-8" points="430.26 81.71 326.38 133.65 321.19 131.06 425.07 79.12 430.26 81.71"/><polygon class="cls-13" points="326.38 144 326.38 133.62 321.19 131.03 321.19 141.4 326.38 144"/><path class="cls-14" d="M507.7,176.12c0,1.93,1.57,2.72,3.5,1.75a6.59,6.59,0,0,0,3.5-5.25c0-1.93-1.57-2.72-3.5-1.75A6.59,6.59,0,0,0,507.7,176.12Z"/><polygon class="cls-14" points="515.27 171.78 513.88 170.78 509.18 174 508.47 177.92 509.91 178.97 515.27 171.78"/><path class="cls-1" d="M509.06,177.11c0,1.93,1.57,2.72,3.5,1.75a6.59,6.59,0,0,0,3.5-5.25c0-1.93-1.57-2.72-3.5-1.75A6.59,6.59,0,0,0,509.06,177.11Z"/><path class="cls-14" d="M489.07,186.57c0,1.93,1.57,2.72,3.5,1.75a6.59,6.59,0,0,0,3.5-5.25c0-1.93-1.57-2.72-3.5-1.75A6.59,6.59,0,0,0,489.07,186.57Z"/><polygon class="cls-14" points="496.64 182.23 495.25 181.22 490.55 184.46 489.84 188.37 491.28 189.41 496.64 182.23"/><path class="cls-1" d="M490.43,187.56c0,1.93,1.57,2.72,3.5,1.75a6.59,6.59,0,0,0,3.5-5.25c0-1.93-1.57-2.72-3.5-1.75A6.59,6.59,0,0,0,490.43,187.56Z"/><path class="cls-14" d="M467.69,197.08c0,1.93,1.57,2.72,3.5,1.75a6.59,6.59,0,0,0,3.5-5.25c0-1.93-1.57-2.72-3.5-1.75A6.59,6.59,0,0,0,467.69,197.08Z"/><polygon class="cls-14" points="475.26 192.74 473.87 191.73 469.17 194.96 468.46 198.88 469.9 199.92 475.26 192.74"/><path class="cls-1" d="M469.05,198.06c0,1.93,1.57,2.72,3.5,1.75a6.59,6.59,0,0,0,3.5-5.25c0-1.93-1.57-2.72-3.5-1.75A6.59,6.59,0,0,0,469.05,198.06Z"/><path class="cls-14" d="M445.5,207.07c0,1.93,1.57,2.72,3.5,1.75a6.59,6.59,0,0,0,3.5-5.25c0-1.93-1.57-2.72-3.5-1.75A6.59,6.59,0,0,0,445.5,207.07Z"/><polygon class="cls-14" points="453.07 202.74 451.68 201.73 446.98 204.96 446.27 208.88 447.71 209.92 453.07 202.74"/><path class="cls-1" d="M446.86,208.06c0,1.93,1.57,2.72,3.5,1.75a6.59,6.59,0,0,0,3.5-5.25c0-1.93-1.57-2.72-3.5-1.75A6.59,6.59,0,0,0,446.86,208.06Z"/><polygon class="cls-5" points="321.16 384.22 326.96 381.55 326.96 362.3 321.16 364.97 321.16 384.22"/><polygon class="cls-6" points="326.96 362.35 321.16 365.01 315.37 362.11 321.16 359.45 326.96 362.35"/><polygon class="cls-7" points="321.17 384.22 321.16 364.97 315.37 362.07 315.37 381.32 321.17 384.22"/><polygon class="cls-5" points="223.1 335.21 228.89 332.54 228.89 313.29 223.1 315.96 223.1 335.21"/><polygon class="cls-6" points="228.89 313.34 223.1 316 217.3 313.1 223.1 310.44 228.89 313.34"/><polygon class="cls-7" points="223.1 335.21 223.1 315.96 217.3 313.06 217.3 332.31 223.1 335.21"/><polygon class="cls-5" points="419.26 335.21 425.05 332.54 425.05 296.95 419.26 299.63 419.26 335.21"/><polygon class="cls-6" points="425.05 297 419.26 299.66 413.46 296.76 419.26 294.11 425.05 297"/><polygon class="cls-7" points="419.26 335.21 419.26 299.63 413.46 296.73 413.46 332.31 419.26 335.21"/><polygon class="cls-8" points="217.28 193.31 321.17 245.25 425.05 193.31 321.17 141.37 217.28 193.31"/><polygon class="cls-9" points="321.17 365.45 425.05 313.49 425.05 193.27 321.17 245.23 321.17 365.45"/><polygon class="cls-11" points="321.17 258.52 425.05 206.56 425.05 193.27 321.17 245.23 321.17 258.52"/><polygon class="cls-15" points="321.17 297.6 425.05 245.64 425.05 242.27 321.17 294.22 321.17 297.6"/><polygon class="cls-16" points="346.62 308.39 403.28 280.05 403.28 273.95 346.62 302.29 346.62 308.39"/><polygon class="cls-12" points="346.62 308.39 352.72 305.34 352.72 299.24 346.62 302.29 346.62 308.39"/><polygon class="cls-12" points="397.18 283.1 403.28 280.05 403.28 273.95 397.18 277 397.18 283.1"/><polygon class="cls-13" points="217.3 313.51 321.19 365.47 321.19 245.25 217.3 193.29 217.3 313.51"/><polygon class="cls-10" points="217.28 245.64 321.17 297.6 321.17 294.14 217.28 242.19 217.28 245.64"/><polygon class="cls-9" points="222.49 195.95 326.38 144 326.38 133.62 222.49 185.58 222.49 195.95"/><polygon class="cls-8" points="326.37 133.66 222.49 185.61 217.3 183.01 321.19 131.07 326.37 133.66"/><polygon class="cls-13" points="222.49 195.95 222.49 185.58 217.3 182.98 217.3 193.36 222.49 195.95"/><polygon class="cls-16" points="398.15 190.71 322.3 228.64 244.18 190.18 320.03 152.25 398.15 190.71"/><polygon class="cls-1" points="389.07 190.68 322.16 224.13 253.26 190.21 320.17 156.76 389.07 190.68"/><polygon class="cls-17" points="276.14 201.47 322.16 224.13 366.19 202.12 320.17 179.46 276.14 201.47"/><path class="cls-1" d="M291.66,170.36a2,2,0,0,1-2-2V125.18a35.81,35.81,0,0,1,2.37-13c4.06-10.45,10.07-11.79,14.39-11.07,5.66.94,10.3,7.13,13.78,18.4a105.37,105.37,0,0,1,3.5,15.91,2,2,0,0,1-3.88.5c-1-8.13-5.59-29.53-14-30.94-4.21-.7-7.61,2.2-10.1,8.62a31.91,31.91,0,0,0-2.1,11.6V168.4A2,2,0,0,1,291.66,170.36Z"/><path class="cls-18" d="M291,167.25c2.2,1.1,2.2,2.88,0,4a10,10,0,0,1-8,0c-2.2-1.1-2.2-2.88,0-4A10,10,0,0,1,291,167.25Z"/><rect class="cls-18" x="281.41" y="162.82" width="11.27" height="6.42"/><path class="cls-19" d="M291,160.82c2.2,1.1,2.2,2.88,0,4a10,10,0,0,1-8,0c-2.2-1.1-2.2-2.88,0-4A10,10,0,0,1,291,160.82Z"/><path class="cls-20" d="M460.31,104.26l3.24-1.62c3.24-1.62,3.24-4.27,0-5.89l-4.78-2.39a14.88,14.88,0,0,0-11.77,0L443.76,96l-2.82-1.41,6.06-3a14.88,14.88,0,0,1,11.77,0l10.41,5.21c3.24,1.62,3.24,4.27,0,5.89l-6.06,3Z"/><path class="cls-21" d="M460.31,103.22l3.24-1.62c3.24-1.62,3.24-4.27,0-5.89l-4.78-2.39a14.88,14.88,0,0,0-11.77,0l-3.24,1.62-2.82-1.41,6.06-3a14.87,14.87,0,0,1,11.77,0l10.41,5.21c3.24,1.62,3.24,4.27,0,5.89l-6.06,3Z"/><path class="cls-16" d="M408.27,141.35c-13.39,6.7-13.39,17.55,0,24.25s35.1,6.7,48.49,0,13.39-17.55,0-24.25S421.66,134.66,408.27,141.35Z"/><path class="cls-22" d="M408.27,140.5c-13.39,6.7-13.39,17.55,0,24.25s35.1,6.7,48.49,0,13.39-17.55,0-24.25S421.66,133.8,408.27,140.5Z"/><polygon class="cls-22" points="466.8 109.32 466.8 152.62 398.23 152.62 398.23 108.44 466.8 109.32"/><path class="cls-20" d="M404,115.07l-3.24,1.62c-3.24,1.62-3.24,4.27,0,5.89l4.78,2.39a14.88,14.88,0,0,0,11.77,0l3.24-1.62,2.82,1.41-6.06,3a14.88,14.88,0,0,1-11.77,0l-10.41-5.21c-3.24-1.62-3.24-5.41,0-7l6.06-1.89Z"/><path class="cls-21" d="M404,113.92l-3.24,1.62c-3.24,1.62-3.24,4.27,0,5.89l4.78,2.39a14.88,14.88,0,0,0,11.77,0l3.24-1.62,2.82,1.41-6.06,3a14.88,14.88,0,0,1-11.77,0l-10.41-5.21c-3.24-1.62-3.24-4.27,0-5.89l6.06-3Z"/><path class="cls-2" d="M461.55,123.3v29.32s-5.42,11.77-27.39,11.2C453.42,152.62,458,146.29,461.55,123.3Z"/><path class="cls-2" d="M408.27,96.32c-13.39,6.7-13.39,17.55,0,24.25s35.1,6.7,48.49,0,13.39-17.55,0-24.25S421.66,89.62,408.27,96.32Z"/><path class="cls-4" d="M409.88,97.12c-12.5,6.25-12.5,16.38,0,22.64s32.77,6.25,45.27,0,12.5-16.39,0-22.64S422.38,90.87,409.88,97.12Z"/><path class="cls-23" d="M409.88,108.87c12.5-6.25,32.77-6.25,45.27,0a20.82,20.82,0,0,1,7.15,5.45,20.82,20.82,0,0,1-7.15,5.45c-12.5,6.25-32.77,6.25-45.27,0a20.82,20.82,0,0,1-7.15-5.45A20.82,20.82,0,0,1,409.88,108.87Z"/><path class="cls-24" d="M431.46,116.25c-2.71,1.35-2.71,3.55,0,4.9a12.34,12.34,0,0,0,9.8,0c2.71-1.35,2.71-3.55,0-4.9A12.34,12.34,0,0,0,431.46,116.25Z"/><path class="cls-24" d="M415,110.59c-2.31,1.16-2.31,3,0,4.18a10.53,10.53,0,0,0,8.37,0c2.31-1.16,2.31-3,0-4.18A10.53,10.53,0,0,0,415,110.59Z"/><path class="cls-24" d="M436.44,109.2c-1.49.75-1.49,2,0,2.71a6.81,6.81,0,0,0,5.41,0c1.49-.75,1.49-2,0-2.71A6.82,6.82,0,0,0,436.44,109.2Z"/><polygon class="cls-5" points="217.3 436.16 223.09 433.49 223.09 414.24 217.3 416.91 217.3 436.16"/><polygon class="cls-6" points="223.09 414.29 217.3 416.95 211.5 414.05 217.3 411.39 223.09 414.29"/><polygon class="cls-7" points="217.3 436.16 217.3 416.91 211.5 414.01 211.5 433.26 217.3 436.16"/><polygon class="cls-5" points="119.23 387.15 125.03 384.48 125.03 365.23 119.23 367.9 119.23 387.15"/><polygon class="cls-6" points="125.02 365.28 119.23 367.94 113.43 365.04 119.23 362.38 125.02 365.28"/><polygon class="cls-7" points="119.23 387.15 119.23 367.9 113.43 365 113.43 384.25 119.23 387.15"/><polygon class="cls-5" points="315.39 387.15 321.19 384.48 321.19 348.89 315.39 351.57 315.39 387.15"/><polygon class="cls-6" points="321.19 348.94 315.39 351.6 309.59 348.7 315.39 346.05 321.19 348.94"/><polygon class="cls-7" points="315.39 387.15 315.39 351.57 309.59 348.67 309.59 384.25 315.39 387.15"/><polygon class="cls-8" points="113.41 245.25 217.3 297.19 321.19 245.25 217.3 193.31 113.41 245.25"/><polygon class="cls-9" points="217.3 417.39 321.19 365.43 321.19 245.21 217.3 297.17 217.3 417.39"/><polygon class="cls-11" points="217.3 310.46 321.19 258.5 321.19 245.21 217.3 297.17 217.3 310.46"/><polygon class="cls-15" points="217.3 349.54 321.19 297.58 321.19 294.21 217.3 346.16 217.3 349.54"/><polygon class="cls-16" points="242.76 360.33 299.41 331.99 299.41 325.89 242.76 354.23 242.76 360.33"/><polygon class="cls-12" points="242.76 360.33 248.85 357.28 248.85 351.18 242.76 354.23 242.76 360.33"/><polygon class="cls-12" points="293.31 335.04 299.41 331.99 299.41 325.89 293.31 328.94 293.31 335.04"/><polygon class="cls-13" points="113.43 365.45 217.32 417.41 217.32 297.19 113.43 245.23 113.43 365.45"/><polygon class="cls-10" points="113.41 297.58 217.3 349.54 217.3 346.08 113.41 294.13 113.41 297.58"/><polygon class="cls-9" points="118.62 247.89 222.51 195.94 222.51 185.56 118.62 237.52 118.62 247.89"/><polygon class="cls-8" points="222.51 185.6 118.62 237.55 113.43 234.96 217.32 183.01 222.51 185.6"/><polygon class="cls-13" points="118.62 247.89 118.62 237.52 113.43 234.92 113.43 245.3 118.62 247.89"/><path class="cls-16" d="M211.62,200.29c-10.16,5.08-10.16,13.32,0,18.4s26.64,5.08,36.8,0,10.16-13.32,0-18.4S221.79,195.21,211.62,200.29Z"/><path class="cls-22" d="M211.62,199.64c-10.16,5.08-10.16,13.32,0,18.4s26.64,5.08,36.8,0,10.16-13.32,0-18.4S221.79,194.56,211.62,199.64Z"/><polygon class="cls-22" points="256.05 175.97 256.05 208.84 204 208.84 204 175.31 256.05 175.97"/><path class="cls-2" d="M252.06,186.59v22.25s-4.11,8.93-20.79,8.5C245.89,208.84,249.35,204,252.06,186.59Z"/><path class="cls-2" d="M211.62,166.11c-10.16,5.08-10.16,13.32,0,18.4s26.64,5.08,36.8,0,10.16-13.32,0-18.4S221.79,161,211.62,166.11Z"/><path class="cls-4" d="M212.85,166.72c-9.49,4.74-9.49,12.43,0,17.18s24.87,4.74,34.36,0,9.49-12.43,0-17.18S222.33,162,212.85,166.72Z"/><path class="cls-3" d="M235.8,174.91v-4.63a2.72,2.72,0,0,0-2.71-2.71H225.2a2.72,2.72,0,0,0-2.71,2.71v4.63h-2.27V168a2.72,2.72,0,0,1,2.71-2.71h12.42a2.72,2.72,0,0,1,2.71,2.71v6.9Z"/><path class="cls-21" d="M235.8,175.63V171a2.72,2.72,0,0,0-2.71-2.71H225.2a2.72,2.72,0,0,0-2.71,2.71v4.63h-2.27v-6.9a2.72,2.72,0,0,1,2.71-2.71h12.42a2.72,2.72,0,0,1,2.71,2.71v6.9Z"/><path class="cls-25" d="M246,174.46s-3.36,5.63-12.34,6.71c-9.53.76-14.72-1.09-14.72-1.09s7.8,4.12,15.16,2.82S246,174.46,246,174.46Z"/><path class="cls-26" d="M540.63,311.51S542,330.79,539.5,332c-13.27-.25-13.14-1.75-13.14-1.75a5.09,5.09,0,0,0-2.25-2.76c-1.75-1-3.25,1.76-4.51,1.76s-13.64.25-20.8-3.1c-24.5-11.64-19.5-14.67-18-15.92s28.78-2,32.53-4.77S540.63,311.51,540.63,311.51Z"/><path class="cls-14" d="M546.5,176.45l3,130.46s-1.66,5.79-5.79,6.62-14.48.83-24.41,0-9.1-147.3-9.1-147.3Z"/><path class="cls-27" d="M517.82,336s1.38,19.28-1.13,20.53c-13.27-.25-13.14-1.75-13.14-1.75a5.09,5.09,0,0,0-2.25-2.76c-1.75-1-3.25,1.76-4.51,1.76s-13.64.25-20.8-3.1c-24.5-11.64-19.5-14.67-18-15.92s28.78-2,32.53-4.77S517.82,336,517.82,336Z"/><path class="cls-12" d="M531.29,186.5s-8.67,67-8.26,84.82,0,58.74,0,58.74,2.5,6.63-4.54,9.11-29.79-4.55-32.27-7.45c-.83-5,1.66-4.14,1.66-4.14,2.9-5.38-6.88-129.1-6.88-129.1Z"/><path class="cls-28" d="M540,147.73l17.82,50.36-4.75,6-4.6-11.93,2.12,14.2s-10.33,13.95-27.12,17-44.42-2.07-44.42-2.07l-1.22-62.75Z"/><polygon class="cls-29" points="472.61 61.22 485.35 69.4 501.7 55 496.11 47.27 472.09 50.46 472.61 61.22"/><path class="cls-30" d="M453.24,39.46a62.06,62.06,0,0,0,4.48,15.73c3.44,7.58,10.67,16.87,10.67,16.87s2.47,3.16,9.13-4.78c6.8-8.11,7.62-11.66,6.59-16.14S479,41.76,473,37.88C470.22,36.12,463.91,32.68,453.24,39.46Z"/><path class="cls-31" d="M453.75,42.47c-.7,1.79,13,11.61,15.1,10.3.43-2.07,1.42-5.72,2.28-6s4.17-1.12,4.52,3.62-.34,6.07-.34,6.07,7.3.52,9.16-.27a32.25,32.25,0,0,0,7.16-4.28c4-3.27,4.48-4.65,4.48-4.65l-2.41-6.54S488.6,24,475,22.48C462.88,21.1,450.48,29.47,453.75,42.47Z"/><path class="cls-4" d="M449.54,2.59l2.93,38.57a156.83,156.83,0,0,0,19.63,2.41c8.26.26,22.2-4.72,22.2-4.72L490.17,0S463.4-.33,449.54,2.59Z"/><path class="cls-28" d="M452,29.2s15.64,4.39,32.08,1.72c7-1.13,9-4.12,9-4.12l1.28,12.05c.57,2.93-25.33,11.28-41.83,2.31C451.55,29.11,452,29.2,452,29.2Z"/><path class="cls-32" d="M501.7,55s22,3.89,30,20.16,11.83,56.66,16.73,66.21c-3.92,12.53-12.09,16.77-18.2,20.48,0,0-5.51,6-30,4.22s-23.18-2.22-25.53-30c-1.49-17.56-2.66-35.9-2.66-35.9a38.23,38.23,0,0,1,13.3-30.82Z"/><path class="cls-30" d="M462.66,130.69l-16-9.47s-3.87-8.26-7.23-8.52-11.62,1.81-12.14,5,5,10.2,8.44,12.52,17.91,9.93,26.88,19.28S462.66,130.69,462.66,130.69Z"/><path class="cls-12" d="M483.84,79c7.62-4.65,18.85-.26,17.82,17s-20.7,65.76-23.29,64.85c-18.15-12.13-27.78-18-27.78-18s-3.1-13.95,0-16.79a13.45,13.45,0,0,1,5.42-3.36l17.24,11.54a110.29,110.29,0,0,1,2.32-33.57C479.71,82.4,483.84,79,483.84,79Z"/><path class="cls-12" d="M485.35,69.4V63s9.33-5,15.19-13.19c2.93,7.38,4.1,5.85,4.1,5.85s-3.36,2.43-7,5.27S485.35,69.4,485.35,69.4Z"/><path class="cls-4" d="M470.37.4c-5.26.39-20.83,2.2-20.83,2.2s13.17.86,20.83.52S490.17,0,490.17,0,472.54.23,470.37.4Z"/><polygon class="cls-33" points="253.96 125.33 23.11 243.25 23.12 236.81 253.97 118.89 253.96 125.33"/><polygon class="cls-4" points="253.96 118.87 23.11 236.78 0 225.18 230.85 107.26 253.96 118.87"/><polygon class="cls-34" points="0 231.64 0.01 225.21 23.12 236.81 23.11 243.25 0 231.64"/><path class="cls-35" d="M145.65,164.47h0l-.4-26.2c-.18-2.81-4.13-16.25-4.13-16.25l-6.95.11s-3.68,13-3.63,16.36l.41,26.73H131a3.69,3.69,0,0,0,2.1,2,13.09,13.09,0,0,0,10.4-.16,3.69,3.69,0,0,0,2-2.1h.09Z"/><path class="cls-36" d="M141.07,118.76l-6.95.11,0,3.27h0a1.67,1.67,0,0,0,1,1,6.19,6.19,0,0,0,4.91-.08,1.66,1.66,0,0,0,1-1.07h0Z"/><path class="cls-37" d="M140,117.64a6.18,6.18,0,0,0-4.91.07c-1.35.7-1.33,1.8,0,2.46a6.19,6.19,0,0,0,4.91-.07C141.42,119.4,141.41,118.3,140,117.64Z"/><path class="cls-38" d="M145.54,157.63,145.31,142c0,.94-.69,1.89-2.11,2.63a13.09,13.09,0,0,1-10.4.16c-1.45-.7-2.18-1.63-2.19-2.57l.24,15.67h0c0,.94.75,1.87,2.19,2.57a13.09,13.09,0,0,0,10.4-.16C144.86,159.53,145.56,158.57,145.54,157.63Z"/><polygon class="cls-39" points="190.23 132.44 189.24 145.35 179.5 136.81 180.5 123.89 190.23 132.44"/><polygon class="cls-40" points="217.31 108.9 227.05 117.45 190.24 132.44 180.5 123.89 217.31 108.9"/><polygon class="cls-41" points="204.83 115.97 211.48 121.8 210.61 122.16 203.96 116.32 204.83 115.97"/><polygon class="cls-41" points="206.76 115.18 213.41 121.02 212.54 121.37 205.89 115.53 206.76 115.18"/><polygon class="cls-41" points="208.68 114.4 215.33 120.23 214.46 120.59 207.81 114.75 208.68 114.4"/><polygon class="cls-41" points="210.61 113.61 217.26 119.45 216.39 119.8 209.74 113.97 210.61 113.61"/><polygon class="cls-41" points="212.54 112.83 219.19 118.67 218.32 119.02 211.67 113.18 212.54 112.83"/><polygon class="cls-41" points="214.47 112.04 221.12 117.88 220.25 118.23 213.6 112.4 214.47 112.04"/><polygon class="cls-42" points="227.05 117.45 226.05 130.37 189.24 145.35 190.24 132.44 227.05 117.45"/><polygon class="cls-39" points="219.48 122.44 218.8 131.26 196.75 140.23 197.43 131.41 219.48 122.44"/><rect class="cls-43" x="182.2" y="131.97" width="2.96" height="6.28" transform="translate(-37.38 79.22) rotate(-22.15)"/><path class="cls-43" d="M183,133a5.59,5.59,0,0,0,1.68,4.11,2.55,2.55,0,0,0,.38.28c.87.52,1.58.08,1.68-1.12a5.59,5.59,0,0,0-1.68-4.11c-.91-.8-1.74-.6-2,.41A2.6,2.6,0,0,0,183,133Z"/><path class="cls-44" d="M180.52,134a5.59,5.59,0,0,0,1.68,4.11c1,.91,2,.53,2.06-.84a5.59,5.59,0,0,0-1.68-4.11C181.54,132.25,180.62,132.63,180.52,134Z"/><path class="cls-45" d="M151.62,122.51v32.22h.1a4.44,4.44,0,0,0,2.49,2.49,15.78,15.78,0,0,0,12.53,0,4.44,4.44,0,0,0,2.49-2.49h.1V122.51Z"/><path class="cls-46" d="M166.74,119.56a15.78,15.78,0,0,0-12.53,0c-3.46,1.73-3.46,4.54,0,6.27a15.77,15.77,0,0,0,12.53,0C170.2,124.1,170.2,121.3,166.74,119.56Z"/><path class="cls-46" d="M169.34,149.66h0v-21.4c0,1.13-.87,2.27-2.6,3.13a15.78,15.78,0,0,1-12.53,0c-1.73-.87-2.6-2-2.6-3.13v21.9h.06a4.3,4.3,0,0,0,2.53,2.64,15.78,15.78,0,0,0,12.53,0,4.3,4.3,0,0,0,2.53-2.64h.06Z"/><path class="cls-45" d="M76.74,161.16v32.22h.1a4.44,4.44,0,0,0,2.49,2.49,15.77,15.77,0,0,0,12.53,0,4.44,4.44,0,0,0,2.49-2.49h.1V161.16Z"/><path class="cls-46" d="M91.87,158.22a15.77,15.77,0,0,0-12.53,0c-3.46,1.73-3.46,4.54,0,6.27a15.78,15.78,0,0,0,12.53,0C95.33,162.76,95.33,160,91.87,158.22Z"/><path class="cls-46" d="M94.46,188.32h0v-21.4c0,1.13-.87,2.27-2.6,3.13a15.77,15.77,0,0,1-12.53,0c-1.73-.87-2.6-2-2.6-3.13v21.9h.06a4.3,4.3,0,0,0,2.53,2.64,15.77,15.77,0,0,0,12.53,0,4.3,4.3,0,0,0,2.53-2.64h.06Z"/><path class="cls-45" d="M57.69,181.07v25.82h.08a3.56,3.56,0,0,0,2,2,12.64,12.64,0,0,0,10,0,3.56,3.56,0,0,0,2-2h.08V181.07Z"/><path class="cls-46" d="M69.81,178.72a12.64,12.64,0,0,0-10,0c-2.77,1.39-2.77,3.63,0,5a12.64,12.64,0,0,0,10,0C72.58,182.35,72.58,180.1,69.81,178.72Z"/><path class="cls-46" d="M71.89,202.83h0V185.68c0,.91-.69,1.82-2.08,2.51a12.64,12.64,0,0,1-10,0c-1.39-.69-2.08-1.6-2.08-2.51v17.54h0a3.45,3.45,0,0,0,2,2.11,12.64,12.64,0,0,0,10,0,3.45,3.45,0,0,0,2-2.11h0Z"/><path class="cls-45" d="M40.42,196.54v20.82h.07A2.87,2.87,0,0,0,42.1,219a10.19,10.19,0,0,0,8.1,0,2.87,2.87,0,0,0,1.61-1.61h.07V196.54Z"/><path class="cls-46" d="M50.19,194.64a10.19,10.19,0,0,0-8.1,0c-2.24,1.12-2.24,2.93,0,4a10.19,10.19,0,0,0,8.1,0C52.43,197.57,52.43,195.76,50.19,194.64Z"/><path class="cls-46" d="M51.87,214.09h0V200.26c0,.73-.56,1.47-1.68,2a10.19,10.19,0,0,1-8.1,0c-1.12-.56-1.68-1.29-1.68-2v14.15h0a2.78,2.78,0,0,0,1.64,1.7,10.19,10.19,0,0,0,8.1,0,2.78,2.78,0,0,0,1.64-1.7h0Z"/><path class="cls-47" d="M101.82,172.72c-5.59,2.79-5.59,7.32,0,10.12s14.65,2.79,20.24,0,5.59-7.32,0-10.12S107.41,169.92,101.82,172.72Z"/><polygon class="cls-48" points="125.2 170.17 122.23 177.78 99.65 177.78 96.95 171.01 125.2 170.17"/><path class="cls-49" d="M106.2,158c-2.62,1.31-2.62,3.43,0,4.74a11.94,11.94,0,0,0,9.49,0c2.62-1.31,2.62-3.43,0-4.74A11.94,11.94,0,0,0,106.2,158Z"/><path class="cls-48" d="M102.83,172.69c-4.48,2.24-4.48,5.87,0,8.11a20.43,20.43,0,0,0,16.23,0c4.48-2.24,4.48-5.87,0-8.11A20.43,20.43,0,0,0,102.83,172.69Z"/><path class="cls-50" d="M98.91,165.53h0a11.06,11.06,0,0,1,1.27-.82c1.58-1.08,4.06-3,4-4.34,0-2-2.68-5.94-2.68-5.94l19-.35s-2.8,4.33-2.86,6.29c0,1.46,2.74,3.48,4.17,4.42.23.14.45.28.66.42l.17.1h0c4,2.8,3.46,6.7-1.55,9.21-5.6,2.8-14.68,2.8-20.28,0C95.93,172.06,95.3,168.31,98.91,165.53Z"/><path class="cls-51" d="M104,149.59c-3.82,1.91-3.82,5,0,6.92a17.41,17.41,0,0,0,13.83,0c3.82-1.91,3.82-5,0-6.92A17.41,17.41,0,0,0,104,149.59Z"/><path class="cls-52" d="M105,150.09c-3.26,1.63-3.26,4.28,0,5.91a14.89,14.89,0,0,0,11.82,0c3.26-1.63,3.26-4.28,0-5.91A14.88,14.88,0,0,0,105,150.09Z"/><polygon class="cls-33" points="253.96 55.09 23.11 173.01 23.12 166.58 253.97 48.65 253.96 55.09"/><polygon class="cls-4" points="253.96 48.63 23.11 166.55 0 154.94 230.85 37.02 253.96 48.63"/><polygon class="cls-34" points="0 161.41 0.01 154.97 23.12 166.58 23.11 173.01 0 161.41"/><polygon class="cls-53" points="208.21 30.05 234.98 16.67 224.98 11.67 198.21 25.05 208.21 30.05"/><polygon class="cls-54" points="198.21 60.95 208.21 65.95 208.21 30.08 198.21 25.08 198.21 60.95"/><polygon class="cls-55" points="208.21 65.95 234.98 52.57 234.98 16.7 208.21 30.08 208.21 65.95"/><polygon class="cls-54" points="211.17 48.58 232.32 38 232.32 21.76 211.17 32.33 211.17 48.58"/><polygon class="cls-56" points="178.66 50.45 201.98 38.79 193.27 34.43 169.95 46.09 178.66 50.45"/><polygon class="cls-57" points="169.95 77.36 178.66 81.72 178.66 50.47 169.95 46.11 169.95 77.36"/><polygon class="cls-58" points="178.66 81.72 201.98 70.06 201.98 38.81 178.66 50.47 178.66 81.72"/><polygon class="cls-57" points="181.24 66.58 199.66 57.37 199.66 43.22 181.24 52.44 181.24 66.58"/><polygon class="cls-59" points="153.69 64.34 177 52.68 168.29 48.33 144.97 59.98 153.69 64.34"/><polygon class="cls-60" points="144.97 91.26 153.69 95.62 153.69 64.37 144.97 60.01 144.97 91.26"/><polygon class="cls-61" points="153.69 95.62 177 83.96 177 52.7 153.69 64.37 153.69 95.62"/><polygon class="cls-60" points="156.26 80.48 174.69 71.27 174.69 57.11 156.26 66.33 156.26 80.48"/><polygon class="cls-62" points="121.58 81.52 143.25 70.69 135.15 66.64 113.49 77.47 121.58 81.52"/><polygon class="cls-63" points="113.49 106.53 121.58 110.58 121.58 81.55 113.49 77.5 113.49 106.53"/><polygon class="cls-64" points="121.58 110.58 143.25 99.75 143.25 70.71 121.58 81.55 121.58 110.58"/><polygon class="cls-63" points="123.97 96.52 141.09 87.95 141.09 74.81 123.97 83.37 123.97 96.52"/><polygon class="cls-56" points="85.6 96.74 111.43 83.83 101.78 79 75.95 91.92 85.6 96.74"/><polygon class="cls-57" points="75.95 126.55 85.6 131.38 85.6 96.77 75.95 91.94 75.95 126.55"/><polygon class="cls-58" points="85.6 131.38 111.43 118.47 111.43 83.86 85.6 96.77 85.6 131.38"/><polygon class="cls-57" points="88.45 114.61 108.86 104.41 108.86 88.74 88.45 98.94 88.45 114.61"/><path class="cls-47" d="M49,132.65c-5.59,2.79-5.59,7.32,0,10.12s14.65,2.79,20.24,0,5.59-7.32,0-10.12S54.55,129.85,49,132.65Z"/><polygon class="cls-65" points="72.34 130.1 69.37 137.71 46.79 137.71 44.1 130.94 72.34 130.1"/><path class="cls-66" d="M53.34,117.91c-2.62,1.31-2.62,3.43,0,4.74a11.94,11.94,0,0,0,9.49,0c2.62-1.31,2.62-3.43,0-4.74A11.94,11.94,0,0,0,53.34,117.91Z"/><path class="cls-65" d="M50,132.62c-4.48,2.24-4.48,5.87,0,8.11a20.43,20.43,0,0,0,16.23,0c4.48-2.24,4.48-5.87,0-8.11A20.43,20.43,0,0,0,50,132.62Z"/><path class="cls-67" d="M46.06,125.46h0a11.1,11.1,0,0,1,1.27-.82c1.58-1.08,4.06-3,4-4.34,0-2-2.68-5.94-2.68-5.94l19-.35s-2.8,4.33-2.86,6.29c0,1.46,2.74,3.48,4.17,4.42.23.14.45.28.66.42l.17.1h0c4,2.8,3.46,6.7-1.55,9.21-5.6,2.8-14.68,2.8-20.28,0C43.07,132,42.44,128.24,46.06,125.46Z"/><path class="cls-68" d="M51.17,109.52c-3.82,1.91-3.82,5,0,6.92a17.41,17.41,0,0,0,13.83,0c3.82-1.91,3.82-5,0-6.92A17.41,17.41,0,0,0,51.17,109.52Z"/><path class="cls-69" d="M52.17,110c-3.26,1.63-3.26,4.28,0,5.91a14.88,14.88,0,0,0,11.82,0c3.26-1.63,3.26-4.28,0-5.91A14.89,14.89,0,0,0,52.17,110Z"/><polygon class="cls-5" points="113.41 488.07 119.21 485.4 119.21 466.15 113.41 468.82 113.41 488.07"/><polygon class="cls-6" points="119.2 466.2 113.41 468.86 107.61 465.96 113.41 463.3 119.2 466.2"/><polygon class="cls-7" points="113.41 488.07 113.41 468.82 107.61 465.93 107.61 485.17 113.41 488.07"/><polygon class="cls-5" points="15.34 439.06 21.14 436.39 21.14 417.14 15.34 419.81 15.34 439.06"/><polygon class="cls-6" points="21.14 417.19 15.34 419.85 9.54 416.95 15.34 414.29 21.14 417.19"/><polygon class="cls-7" points="15.34 439.06 15.34 419.81 9.54 416.91 9.54 436.16 15.34 439.06"/><polygon class="cls-5" points="211.5 439.06 217.3 436.39 217.3 400.81 211.5 403.48 211.5 439.06"/><polygon class="cls-6" points="217.3 400.86 211.5 403.51 205.71 400.62 211.5 397.96 217.3 400.86"/><polygon class="cls-7" points="211.5 439.06 211.5 403.48 205.71 400.58 205.71 436.16 211.5 439.06"/><polygon class="cls-8" points="9.52 297.16 113.41 349.1 217.3 297.16 113.41 245.22 9.52 297.16"/><polygon class="cls-9" points="113.41 469.3 217.3 417.35 217.3 297.12 113.41 349.08 113.41 469.3"/><polygon class="cls-11" points="113.41 362.37 217.3 310.42 217.3 297.12 113.41 349.08 113.41 362.37"/><polygon class="cls-15" points="113.41 401.45 217.3 349.49 217.3 346.12 113.41 398.07 113.41 401.45"/><polygon class="cls-16" points="138.87 412.24 195.53 383.9 195.53 377.81 138.87 406.14 138.87 412.24"/><polygon class="cls-12" points="138.87 412.24 144.97 409.19 144.97 403.09 138.87 406.14 138.87 412.24"/><polygon class="cls-12" points="189.43 386.95 195.53 383.9 195.53 377.81 189.43 380.86 189.43 386.95"/><polygon class="cls-13" points="9.54 417.37 113.43 469.32 113.43 349.1 9.54 297.14 9.54 417.37"/><polygon class="cls-10" points="9.52 349.49 113.41 401.45 113.41 398 9.52 346.04 9.52 349.49"/><polygon class="cls-9" points="14.73 299.8 118.62 247.85 118.62 237.47 14.73 289.43 14.73 299.8"/><polygon class="cls-8" points="118.62 237.52 14.73 289.46 9.54 286.87 113.43 234.92 118.62 237.52"/><polygon class="cls-13" points="14.73 299.8 14.73 289.43 9.54 286.83 9.54 297.21 14.73 299.8"/><path class="cls-70" d="M184.94,296.72,112.78,332.8a10.27,10.27,0,0,1-8.13,0L52,306.45a3.55,3.55,0,0,1,0-6l72.16-34.11a10.27,10.27,0,0,1,8.13,0L185.55,291C187.78,292.16,187.18,295.6,184.94,296.72Z"/><path class="cls-71" d="M184.94,294.75l-72.16,36.08a10.27,10.27,0,0,1-8.13,0L52,304.48c-2.24-1.12-2.24-2.95,0-4.06l72.16-36.08a10.27,10.27,0,0,1,8.13,0l52.69,26.35C187.18,291.8,187.18,293.63,184.94,294.75Z"/><path class="cls-72" d="M44.44,299.36h0l-.4-26.2c-.18-2.81-4.13-16.25-4.13-16.25L33,257s-3.68,13-3.63,16.36l.41,26.73h.08a3.69,3.69,0,0,0,2.1,2,13.09,13.09,0,0,0,10.4-.16,3.69,3.69,0,0,0,2-2.1h.08Z"/><path class="cls-73" d="M39.86,253.65l-6.95.11L33,257h0a1.67,1.67,0,0,0,1,1,6.19,6.19,0,0,0,4.91-.07,1.66,1.66,0,0,0,1-1.07h0Z"/><path class="cls-74" d="M38.83,252.53a6.19,6.19,0,0,0-4.91.07c-1.35.7-1.33,1.8,0,2.46a6.19,6.19,0,0,0,4.91-.07C40.21,254.29,40.19,253.19,38.83,252.53Z"/><path class="cls-75" d="M44.33,292.52l-.24-15.67c0,.94-.69,1.89-2.11,2.63a13.09,13.09,0,0,1-10.4.16c-1.45-.7-2.18-1.63-2.19-2.57l.24,15.67h0c0,.94.75,1.87,2.19,2.57a13.09,13.09,0,0,0,10.4-.16C43.64,294.42,44.35,293.46,44.33,292.52Z"/><polygon class="cls-76" points="93.72 265.57 92.73 278.49 82.99 269.94 83.99 257.02 93.72 265.57"/><polygon class="cls-77" points="120.8 242.04 130.54 250.59 93.73 265.57 83.99 257.02 120.8 242.04"/><polygon class="cls-78" points="108.32 249.1 114.97 254.94 114.1 255.29 107.45 249.46 108.32 249.1"/><polygon class="cls-78" points="110.25 248.32 116.9 254.16 116.03 254.51 109.38 248.67 110.25 248.32"/><polygon class="cls-78" points="112.17 247.53 118.83 253.37 117.96 253.73 111.31 247.89 112.17 247.53"/><polygon class="cls-78" points="114.1 246.75 120.75 252.59 119.88 252.94 113.23 247.1 114.1 246.75"/><polygon class="cls-78" points="116.03 245.97 122.68 251.8 121.81 252.16 115.16 246.32 116.03 245.97"/><polygon class="cls-78" points="117.96 245.18 124.61 251.02 123.74 251.37 117.09 245.53 117.96 245.18"/><polygon class="cls-79" points="130.54 250.59 129.54 263.51 92.73 278.49 93.73 265.57 130.54 250.59"/><polygon class="cls-76" points="122.97 255.57 122.29 264.4 100.24 273.37 100.92 264.55 122.97 255.57"/><rect class="cls-43" x="85.69" y="265.1" width="2.96" height="6.28" transform="translate(-94.7 52.66) rotate(-22.15)"/><path class="cls-43" d="M86.52,266.11a5.59,5.59,0,0,0,1.68,4.12,2.6,2.6,0,0,0,.38.28c.87.52,1.59.08,1.68-1.12a5.59,5.59,0,0,0-1.68-4.11c-.91-.8-1.74-.6-2,.41A2.64,2.64,0,0,0,86.52,266.11Z"/><path class="cls-80" d="M84,267.13a5.59,5.59,0,0,0,1.68,4.12c1,.9,2,.53,2.06-.84a5.59,5.59,0,0,0-1.68-4.11C85,265.39,84.12,265.76,84,267.13Z"/><path class="cls-81" d="M50.41,257.4v32.22h.1A4.45,4.45,0,0,0,53,292.11a15.78,15.78,0,0,0,12.53,0A4.45,4.45,0,0,0,68,289.62h.1V257.4Z"/><path class="cls-82" d="M65.53,254.45a15.78,15.78,0,0,0-12.53,0c-3.46,1.73-3.46,4.54,0,6.27a15.78,15.78,0,0,0,12.53,0C69,259,69,256.19,65.53,254.45Z"/><path class="cls-82" d="M68.13,284.55h0v-21.4c0,1.13-.87,2.27-2.6,3.13a15.78,15.78,0,0,1-12.53,0c-1.73-.87-2.6-2-2.6-3.13V285h.06A4.3,4.3,0,0,0,53,287.68a15.77,15.77,0,0,0,12.53,0A4.3,4.3,0,0,0,68.07,285h.06Z"/><polygon class="cls-83" points="150.05 270.9 176.55 277.32 178.89 283.19 152.78 273.81 150.05 270.9"/><polygon class="cls-83" points="152.05 274.46 182.23 286.21 181.21 294.06 153.27 277.98 152.05 274.46"/><polygon class="cls-83" points="151.07 278.15 177.16 296.75 169.41 299.51 148.4 280.1 151.07 278.15"/><circle class="cls-84" cx="112.45" cy="278.93" r="12.83" transform="translate(-60.08 32.59) rotate(-13.05)"/><circle class="cls-84" cx="113.01" cy="260.3" r="12.83" transform="translate(-55.86 32.24) rotate(-13.05)"/><circle class="cls-84" cx="129.75" cy="269.19" r="12.83" transform="translate(-57.43 36.25) rotate(-13.05)"/><circle class="cls-85" cx="119.1" cy="283.24" r="12.83" transform="translate(-60.88 34.2) rotate(-13.05)"/><circle class="cls-85" cx="119.66" cy="264.61" r="12.83" transform="translate(-56.66 33.85) rotate(-13.05)"/><circle class="cls-85" cx="136.4" cy="273.49" r="12.83" transform="translate(-58.23 37.86) rotate(-13.05)"/><circle class="cls-86" cx="143.54" cy="268.32" r="12.83" transform="translate(-56.88 39.34) rotate(-13.05)"/><circle class="cls-86" cx="131.25" cy="278.88" r="8.74" transform="translate(-59.58 36.84) rotate(-13.05)"/><circle class="cls-86" cx="139.77" cy="288.07" r="8.74" transform="translate(-61.43 39) rotate(-13.05)"/><circle class="cls-86" cx="146.63" cy="281.64" r="8.74" transform="translate(-59.81 40.38) rotate(-13.05)"/><circle class="cls-86" cx="129.58" cy="289.78" r="8.74" transform="translate(-62.08 36.74) rotate(-13.05)"/><circle class="cls-85" cx="131.68" cy="256.8" r="12.83" transform="translate(-54.58 36.36) rotate(-13.05)"/><path class="cls-84" d="M130.47,254.47a10.27,10.27,0,0,0-7.93,10.6,10.27,10.27,0,1,1,19.72-4.57A10.27,10.27,0,0,0,130.47,254.47Z"/><circle class="cls-85" cx="132.74" cy="278.54" r="12.83" transform="translate(-59.46 37.16) rotate(-13.05)"/><circle class="cls-85" cx="141.9" cy="270.62" r="10.18" transform="matrix(0.97, -0.23, 0.23, 0.97, -57.44, 39.03)"/><path class="cls-84" d="M129,284.86a8.07,8.07,0,0,0,9.6-4,8.07,8.07,0,1,1-15.19-4.74A8.07,8.07,0,0,0,129,284.86Z"/><polygon class="cls-86" points="151.78 270.23 178.28 276.65 178.34 281.85 152.23 272.46 151.78 270.23"/><polygon class="cls-86" points="153.78 273.79 183.96 285.54 180.96 293.04 153.02 276.96 153.78 273.79"/><polygon class="cls-86" points="152.8 277.48 178.89 296.08 171.14 298.85 150.13 279.43 152.8 277.48"/><polygon class="cls-85" points="150.73 270.9 174.06 277.05 174.06 283.42 150.05 273.79 150.73 270.9"/><polygon class="cls-85" points="149.42 275.75 175.56 288.83 171.96 293.04 147.32 277.48 149.42 275.75"/><path class="cls-87" d="M100.09,285.45l-.63.31L72.54,299.22,66.7,296.3s12.85-5.67,19.93-7.56C92.14,287.27,98,285.42,100,285,100.52,284.84,100.09,285.45,100.09,285.45Z"/><polygon class="cls-88" points="72.54 299.22 58.93 306.03 54.88 304 68.49 297.2 72.54 299.22"/><path class="cls-9" d="M100.09,285,72.54,298.74l-5.84-2.92s12.85-5.67,19.93-7.56S100.09,285,100.09,285Z"/><polygon class="cls-89" points="72.54 298.74 58.93 305.55 54.88 303.52 68.49 296.72 72.54 298.74"/><rect class="cls-90" x="149.36" y="290.03" width="0.36" height="2.36" transform="translate(-170.21 361.43) rotate(-75.2)"/><path class="cls-91" d="M145.21,292c-3.19-1.52-5.32-5.65-4.93-5s4.2,0,7,.71a2.61,2.61,0,0,1,2,3.54C148.46,292.88,146.38,292.61,145.21,292Z"/><path class="cls-92" d="M150.59,290.19l-.16,3.41.91.22s-.1-2.79.8-3.75S150.59,290.19,150.59,290.19Z"/><path class="cls-93" d="M159.84,299c-.37-4.71-4.75-8-8.89-5.86-4.64-1.21-8.55,2.5-8.17,7.21s4.53,8.69,9.24,8.32S160.22,303.73,159.84,299Z"/><path class="cls-18" d="M775.85,417.65c0,4.94,4,10.95,8.94,13.42s8.94.47,8.94-4.47-4-10.95-8.94-13.42S775.85,412.71,775.85,417.65Z"/><polygon class="cls-18" points="788.41 433.04 791.4 431.46 792.52 422.24 786.02 414.84 778.82 412.44 774.93 414.48 784.96 418.39 788.15 422.71 789.1 429.46 788.41 433.04"/><path class="cls-11" d="M772.59,419.38c0,4.94,4,10.95,8.94,13.42s8.94.47,8.94-4.47-4-10.95-8.94-13.42S772.59,414.44,772.59,419.38Z"/><path class="cls-25" d="M774.93,420.55c0,3.65,3,8.09,6.61,9.92s6.61.35,6.61-3.3-3-8.09-6.61-9.92S774.93,416.89,774.93,420.55Z"/><path class="cls-18" d="M705.35,382.72c0,4.58,3.71,10.14,8.29,12.43s8.29.43,8.29-4.14-3.71-10.14-8.29-12.43S705.35,378.14,705.35,382.72Z"/><polygon class="cls-18" points="716.99 396.97 719.76 395.5 720.79 386.96 714.77 380.11 708.1 377.89 704.5 379.78 713.79 383.4 716.74 387.4 717.63 393.65 716.99 396.97"/><path class="cls-11" d="M702.34,384.31c0,4.58,3.71,10.14,8.29,12.43s8.29.43,8.29-4.14-3.71-10.14-8.29-12.43S702.34,379.74,702.34,384.31Z"/><path class="cls-25" d="M704.5,385.39c0,3.38,2.74,7.5,6.12,9.19s6.12.32,6.12-3.06-2.74-7.5-6.12-9.19S704.5,382,704.5,385.39Z"/><path class="cls-94" d="M691.4,347V212.83c0-9.92,8.07-14,18-9L809,253.68c9.92,5,18,17.06,18,27V414.8c0,9.92-8.07,14-18,9l-99.66-49.84C699.47,369,691.4,356.88,691.4,347Zm18-137.51c-6.82-3.41-12.37-.64-12.37,6.18V349.77c0,6.82,5.55,15.14,12.37,18.55L809,418.17c6.82,3.41,12.37.64,12.37-6.18V277.85c0-6.82-5.55-15.14-12.37-18.55Z"/><path class="cls-28" d="M688.59,349.21V215.07c0-9.92,8.07-14,18-9l99.66,49.84c9.92,5,18,17.06,18,27V417c0,9.92-8.07,14-18,9l-99.66-49.84C696.66,371.23,688.59,359.13,688.59,349.21Zm18-137.51c-6.82-3.41-12.37-.64-12.37,6.18V352c0,6.82,5.55,15.14,12.37,18.55l99.66,49.84c6.82,3.41,12.37.64,12.37-6.18V280.1c0-6.82-5.55-15.14-12.37-18.55Z"/><polygon class="cls-8" points="666.63 213.36 840.57 300.13 840.57 297.01 666.63 210.24 666.63 213.36"/><path class="cls-18" d="M703.81,452.63c0,4.94,4,10.95,8.94,13.42s8.94.47,8.94-4.47-4-10.95-8.94-13.42S703.81,447.69,703.81,452.63Z"/><polygon class="cls-18" points="716.38 468.02 719.37 466.43 720.48 457.21 713.99 449.81 706.78 447.41 702.89 449.46 712.92 453.36 716.11 457.68 717.06 464.43 716.38 468.02"/><path class="cls-11" d="M700.56,454.35c0,4.94,4,10.95,8.94,13.42s8.94.47,8.94-4.47-4-10.95-8.94-13.42S700.56,449.41,700.56,454.35Z"/><path class="cls-25" d="M702.89,455.52c0,3.65,3,8.09,6.61,9.92s6.61.35,6.61-3.3-3-8.09-6.61-9.92S702.89,451.87,702.89,455.52Z"/><polygon class="cls-95" points="594.59 248.33 768.53 335.1 768.53 331.99 594.59 245.22 594.59 248.33"/><polygon class="cls-94" points="840.57 297.01 768.53 331.99 594.59 245.22 666.63 210.24 840.57 297.01"/><polygon class="cls-96" points="840.57 297.01 768.53 331.99 768.53 335.1 840.57 300.13 840.57 297.01"/><path class="cls-22" d="M726.85,266.93c-15.55,7.77-15.55,20.38,0,28.15s40.76,7.77,56.31,0,15.55-20.38,0-28.15S742.4,259.15,726.85,266.93Z"/><path class="cls-97" d="M726.85,265.56c-15.55,7.77-15.55,20.38,0,28.15s40.76,7.77,56.31,0,15.55-20.38,0-28.15S742.4,257.79,726.85,265.56Z"/><path class="cls-98" d="M735.56,270.7c-10.74,5.37-10.74,14.07,0,19.44s28.14,5.37,38.88,0,10.74-14.07,0-19.44S746.3,265.33,735.56,270.7Z"/><path class="cls-25" d="M734.08,268.94c-11.56,5.78-11.56,15.14,0,20.92s30.29,5.78,41.85,0,11.56-15.14,0-20.92S745.63,263.16,734.08,268.94Z"/><path class="cls-99" d="M734.08,268.94c-11.56,5.78-11.56,15.14,0,20.92s30.29,5.78,41.85,0,11.56-15.14,0-20.92S745.63,263.16,734.08,268.94Z"/><path class="cls-98" d="M735.56,270.7c-10.74,5.37-10.74,14.07,0,19.44s28.14,5.37,38.88,0,10.74-14.07,0-19.44S746.3,265.33,735.56,270.7Z"/><path class="cls-22" d="M726.85,263c-15.55,7.77-15.55,20.38,0,28.15s40.76,7.77,56.31,0,15.55-20.38,0-28.15S742.4,255.24,726.85,263Z"/><path class="cls-97" d="M726.85,261.65c-15.55,7.77-15.55,20.38,0,28.15s40.76,7.77,56.31,0,15.55-20.38,0-28.15S742.4,253.88,726.85,261.65Z"/><path class="cls-98" d="M735.56,266.79c-10.74,5.37-10.74,14.07,0,19.44s28.14,5.37,38.88,0,10.74-14.07,0-19.44S746.3,261.42,735.56,266.79Z"/><path class="cls-25" d="M734.08,265c-11.56,5.78-11.56,15.14,0,20.92s30.29,5.78,41.85,0,11.56-15.14,0-20.92S745.63,259.25,734.08,265Z"/><path class="cls-99" d="M734.08,265c-11.56,5.78-11.56,15.14,0,20.92s30.29,5.78,41.85,0,11.56-15.14,0-20.92S745.63,259.25,734.08,265Z"/><path class="cls-98" d="M735.56,266.79c-10.74,5.37-10.74,14.07,0,19.44s28.14,5.37,38.88,0,10.74-14.07,0-19.44S746.3,261.42,735.56,266.79Z"/><path class="cls-22" d="M726.85,259.11c-15.55,7.77-15.55,20.38,0,28.15s40.76,7.77,56.31,0,15.55-20.38,0-28.15S742.4,251.33,726.85,259.11Z"/><path class="cls-97" d="M726.85,257.74c-15.55,7.77-15.55,20.38,0,28.15s40.76,7.77,56.31,0,15.55-20.38,0-28.15S742.4,250,726.85,257.74Z"/><path class="cls-98" d="M735.56,262.88c-10.74,5.37-10.74,14.07,0,19.44s28.14,5.37,38.88,0,10.74-14.07,0-19.44S746.3,257.51,735.56,262.88Z"/><path class="cls-25" d="M734.08,261.12c-11.56,5.78-11.56,15.14,0,20.92s30.29,5.78,41.85,0,11.56-15.14,0-20.92S745.63,255.34,734.08,261.12Z"/><path class="cls-99" d="M734.08,261.12c-11.56,5.78-11.56,15.14,0,20.92s30.29,5.78,41.85,0,11.56-15.14,0-20.92S745.63,255.34,734.08,261.12Z"/><path class="cls-98" d="M735.56,262.88c-10.74,5.37-10.74,14.07,0,19.44s28.14,5.37,38.88,0,10.74-14.07,0-19.44S746.3,257.51,735.56,262.88Z"/><path class="cls-22" d="M726.85,255.2c-15.55,7.77-15.55,20.38,0,28.15s40.76,7.77,56.31,0,15.55-20.38,0-28.15S742.4,247.42,726.85,255.2Z"/><path class="cls-97" d="M726.85,253.83c-15.55,7.77-15.55,20.38,0,28.15s40.76,7.77,56.31,0,15.55-20.38,0-28.15S742.4,246.05,726.85,253.83Z"/><path class="cls-98" d="M735.56,259c-10.74,5.37-10.74,14.07,0,19.44s28.14,5.37,38.88,0,10.74-14.07,0-19.44S746.3,253.6,735.56,259Z"/><path class="cls-25" d="M734.08,257.21c-11.56,5.78-11.56,15.14,0,20.92s30.29,5.78,41.85,0,11.56-15.14,0-20.92S745.63,251.43,734.08,257.21Z"/><path class="cls-99" d="M734.08,257.21c-11.56,5.78-11.56,15.14,0,20.92s30.29,5.78,41.85,0,11.56-15.14,0-20.92S745.63,251.43,734.08,257.21Z"/><path class="cls-98" d="M735.56,259c-10.74,5.37-10.74,14.07,0,19.44s28.14,5.37,38.88,0,10.74-14.07,0-19.44S746.3,253.6,735.56,259Z"/><path class="cls-22" d="M726.85,251.29c-15.55,7.77-15.55,20.38,0,28.15s40.76,7.77,56.31,0,15.55-20.38,0-28.15S742.4,243.51,726.85,251.29Z"/><path class="cls-97" d="M726.85,249.92c-15.55,7.77-15.55,20.38,0,28.15s40.76,7.77,56.31,0,15.55-20.38,0-28.15S742.4,242.14,726.85,249.92Z"/><path class="cls-98" d="M735.56,255.06c-10.74,5.37-10.74,14.07,0,19.44s28.14,5.37,38.88,0,10.74-14.07,0-19.44S746.3,249.69,735.56,255.06Z"/><path class="cls-25" d="M734.08,253.3c-11.56,5.78-11.56,15.14,0,20.92s30.29,5.78,41.85,0,11.56-15.14,0-20.92S745.63,247.52,734.08,253.3Z"/><path class="cls-99" d="M734.08,253.3c-11.56,5.78-11.56,15.14,0,20.92s30.29,5.78,41.85,0,11.56-15.14,0-20.92S745.63,247.52,734.08,253.3Z"/><path class="cls-98" d="M735.56,255.06c-10.74,5.37-10.74,14.07,0,19.44s28.14,5.37,38.88,0,10.74-14.07,0-19.44S746.3,249.69,735.56,255.06Z"/><path class="cls-22" d="M726.85,247.38c-15.55,7.77-15.55,20.38,0,28.15s40.76,7.77,56.31,0,15.55-20.38,0-28.15S742.4,239.6,726.85,247.38Z"/><path class="cls-97" d="M726.85,246c-15.55,7.77-15.55,20.38,0,28.15s40.76,7.77,56.31,0,15.55-20.38,0-28.15S742.4,238.23,726.85,246Z"/><path class="cls-98" d="M735.56,251.15c-10.74,5.37-10.74,14.07,0,19.44s28.14,5.37,38.88,0,10.74-14.07,0-19.44S746.3,245.78,735.56,251.15Z"/><path class="cls-25" d="M734.08,249.39c-11.56,5.78-11.56,15.14,0,20.92s30.29,5.78,41.85,0,11.56-15.14,0-20.92S745.63,243.61,734.08,249.39Z"/><path class="cls-99" d="M734.08,249.39c-11.56,5.78-11.56,15.14,0,20.92s30.29,5.78,41.85,0,11.56-15.14,0-20.92S745.63,243.61,734.08,249.39Z"/><path class="cls-98" d="M735.56,251.15c-10.74,5.37-10.74,14.07,0,19.44s28.14,5.37,38.88,0,10.74-14.07,0-19.44S746.3,245.78,735.56,251.15Z"/><path class="cls-22" d="M726.85,243.47c-15.55,7.77-15.55,20.38,0,28.15s40.76,7.77,56.31,0,15.55-20.38,0-28.15S742.4,235.69,726.85,243.47Z"/><path class="cls-97" d="M726.85,242.1c-15.55,7.77-15.55,20.38,0,28.15s40.76,7.77,56.31,0,15.55-20.38,0-28.15S742.4,234.32,726.85,242.1Z"/><path class="cls-98" d="M735.56,247.24c-10.74,5.37-10.74,14.07,0,19.44s28.14,5.37,38.88,0,10.74-14.07,0-19.44S746.3,241.87,735.56,247.24Z"/><path class="cls-25" d="M734.08,245.48c-11.56,5.78-11.56,15.14,0,20.92s30.29,5.78,41.85,0,11.56-15.14,0-20.92S745.63,239.7,734.08,245.48Z"/><path class="cls-99" d="M734.08,245.48c-11.56,5.78-11.56,15.14,0,20.92s30.29,5.78,41.85,0,11.56-15.14,0-20.92S745.63,239.7,734.08,245.48Z"/><path class="cls-98" d="M735.56,247.24c-10.74,5.37-10.74,14.07,0,19.44s28.14,5.37,38.88,0,10.74-14.07,0-19.44S746.3,241.87,735.56,247.24Z"/><path class="cls-22" d="M726.85,239.56c-15.55,7.77-15.55,20.38,0,28.15s40.76,7.77,56.31,0,15.55-20.38,0-28.15S742.4,231.78,726.85,239.56Z"/><path class="cls-97" d="M726.85,238.19c-15.55,7.77-15.55,20.38,0,28.15s40.76,7.77,56.31,0,15.55-20.38,0-28.15S742.4,230.41,726.85,238.19Z"/><path class="cls-98" d="M735.56,243.33c-10.74,5.37-10.74,14.07,0,19.44s28.14,5.37,38.88,0,10.74-14.07,0-19.44S746.3,238,735.56,243.33Z"/><path class="cls-25" d="M734.08,241.57c-11.56,5.78-11.56,15.14,0,20.92s30.29,5.78,41.85,0,11.56-15.14,0-20.92S745.63,235.79,734.08,241.57Z"/><path class="cls-99" d="M734.08,241.57c-11.56,5.78-11.56,15.14,0,20.92s30.29,5.78,41.85,0,11.56-15.14,0-20.92S745.63,235.79,734.08,241.57Z"/><path class="cls-98" d="M735.56,243.33c-10.74,5.37-10.74,14.07,0,19.44s28.14,5.37,38.88,0,10.74-14.07,0-19.44S746.3,238,735.56,243.33Z"/><path class="cls-22" d="M726.85,235.65c-15.55,7.77-15.55,20.38,0,28.15s40.76,7.77,56.31,0,15.55-20.38,0-28.15S742.4,227.87,726.85,235.65Z"/><path class="cls-97" d="M726.85,234.28c-15.55,7.77-15.55,20.38,0,28.15s40.76,7.77,56.31,0,15.55-20.38,0-28.15S742.4,226.5,726.85,234.28Z"/><path class="cls-98" d="M735.56,239.42c-10.74,5.37-10.74,14.07,0,19.44s28.14,5.37,38.88,0,10.74-14.07,0-19.44S746.3,234,735.56,239.42Z"/><path class="cls-25" d="M734.08,237.66c-11.56,5.78-11.56,15.14,0,20.92s30.29,5.78,41.85,0,11.56-15.14,0-20.92S745.63,231.88,734.08,237.66Z"/><path class="cls-99" d="M734.08,237.66c-11.56,5.78-11.56,15.14,0,20.92s30.29,5.78,41.85,0,11.56-15.14,0-20.92S745.63,231.88,734.08,237.66Z"/><path class="cls-98" d="M735.56,239.42c-10.74,5.37-10.74,14.07,0,19.44s28.14,5.37,38.88,0,10.74-14.07,0-19.44S746.3,234,735.56,239.42Z"/><polygon class="cls-95" points="594.59 361.89 768.53 448.66 768.53 445.55 594.59 358.78 594.59 361.89"/><polygon class="cls-100" points="840.57 410.58 768.53 445.55 594.59 358.78 666.63 323.81 840.57 410.58"/><polygon class="cls-96" points="840.57 410.58 768.53 445.55 768.53 448.66 840.57 413.69 840.57 410.58"/><path class="cls-101" d="M717.61,385c-15.55,7.77-15.55,20.38,0,28.15s40.76,7.77,56.31,0,15.55-20.38,0-28.15S733.16,377.26,717.61,385Z"/><path class="cls-102" d="M717.61,383.67c-15.55,7.77-15.55,20.38,0,28.15s40.76,7.77,56.31,0,15.55-20.38,0-28.15S733.16,375.89,717.61,383.67Z"/><path class="cls-21" d="M726.33,388.81c-10.74,5.37-10.74,14.07,0,19.44s28.14,5.37,38.88,0,10.74-14.07,0-19.44S737.07,383.44,726.33,388.81Z"/><path class="cls-32" d="M724.85,387c-11.56,5.78-11.56,15.14,0,20.92s30.29,5.78,41.85,0,11.56-15.14,0-20.92S736.4,381.27,724.85,387Z"/><path class="cls-103" d="M724.85,387c-11.56,5.78-11.56,15.14,0,20.92s30.29,5.78,41.85,0,11.56-15.14,0-20.92S736.4,381.27,724.85,387Z"/><path class="cls-21" d="M726.33,388.81c-10.74,5.37-10.74,14.07,0,19.44s28.14,5.37,38.88,0,10.74-14.07,0-19.44S737.07,383.44,726.33,388.81Z"/><path class="cls-101" d="M717.61,381.13c-15.55,7.77-15.55,20.38,0,28.15s40.76,7.77,56.31,0,15.55-20.38,0-28.15S733.16,373.35,717.61,381.13Z"/><path class="cls-102" d="M717.61,379.76c-15.55,7.77-15.55,20.38,0,28.15s40.76,7.77,56.31,0,15.55-20.38,0-28.15S733.16,372,717.61,379.76Z"/><path class="cls-21" d="M726.33,384.9c-10.74,5.37-10.74,14.07,0,19.44s28.14,5.37,38.88,0,10.74-14.07,0-19.44S737.07,379.53,726.33,384.9Z"/><path class="cls-32" d="M724.85,383.14c-11.56,5.78-11.56,15.14,0,20.92s30.29,5.78,41.85,0,11.56-15.14,0-20.92S736.4,377.36,724.85,383.14Z"/><path class="cls-103" d="M724.85,383.14c-11.56,5.78-11.56,15.14,0,20.92s30.29,5.78,41.85,0,11.56-15.14,0-20.92S736.4,377.36,724.85,383.14Z"/><path class="cls-21" d="M726.33,384.9c-10.74,5.37-10.74,14.07,0,19.44s28.14,5.37,38.88,0,10.74-14.07,0-19.44S737.07,379.53,726.33,384.9Z"/><path class="cls-101" d="M717.61,377.22c-15.55,7.77-15.55,20.38,0,28.15s40.76,7.77,56.31,0,15.55-20.38,0-28.15S733.16,369.44,717.61,377.22Z"/><path class="cls-102" d="M717.61,375.85c-15.55,7.77-15.55,20.38,0,28.15s40.76,7.77,56.31,0,15.55-20.38,0-28.15S733.16,368.07,717.61,375.85Z"/><path class="cls-21" d="M726.33,381c-10.74,5.37-10.74,14.07,0,19.44s28.14,5.37,38.88,0,10.74-14.07,0-19.44S737.07,375.62,726.33,381Z"/><path class="cls-32" d="M724.85,379.23c-11.56,5.78-11.56,15.14,0,20.92s30.29,5.78,41.85,0,11.56-15.14,0-20.92S736.4,373.45,724.85,379.23Z"/><path class="cls-103" d="M724.85,379.23c-11.56,5.78-11.56,15.14,0,20.92s30.29,5.78,41.85,0,11.56-15.14,0-20.92S736.4,373.45,724.85,379.23Z"/><path class="cls-21" d="M726.33,381c-10.74,5.37-10.74,14.07,0,19.44s28.14,5.37,38.88,0,10.74-14.07,0-19.44S737.07,375.62,726.33,381Z"/><path class="cls-101" d="M717.61,373.3c-15.55,7.77-15.55,20.38,0,28.15s40.76,7.77,56.31,0,15.55-20.38,0-28.15S733.16,365.53,717.61,373.3Z"/><path class="cls-102" d="M717.61,371.94c-15.55,7.77-15.55,20.38,0,28.15s40.76,7.77,56.31,0,15.55-20.38,0-28.15S733.16,364.16,717.61,371.94Z"/><path class="cls-21" d="M726.33,377.08c-10.74,5.37-10.74,14.07,0,19.44s28.14,5.37,38.88,0,10.74-14.07,0-19.44S737.07,371.71,726.33,377.08Z"/><path class="cls-32" d="M724.85,375.32c-11.56,5.78-11.56,15.14,0,20.92s30.29,5.78,41.85,0,11.56-15.14,0-20.92S736.4,369.54,724.85,375.32Z"/><path class="cls-103" d="M724.85,375.32c-11.56,5.78-11.56,15.14,0,20.92s30.29,5.78,41.85,0,11.56-15.14,0-20.92S736.4,369.54,724.85,375.32Z"/><path class="cls-21" d="M726.33,377.08c-10.74,5.37-10.74,14.07,0,19.44s28.14,5.37,38.88,0,10.74-14.07,0-19.44S737.07,371.71,726.33,377.08Z"/><path class="cls-101" d="M717.61,369.39c-15.55,7.77-15.55,20.38,0,28.15s40.76,7.77,56.31,0,15.55-20.38,0-28.15S733.16,361.62,717.61,369.39Z"/><path class="cls-102" d="M717.61,368c-15.55,7.77-15.55,20.38,0,28.15s40.76,7.77,56.31,0,15.55-20.38,0-28.15S733.16,360.25,717.61,368Z"/><path class="cls-21" d="M726.33,373.17c-10.74,5.37-10.74,14.07,0,19.44s28.14,5.37,38.88,0,10.74-14.07,0-19.44S737.07,367.8,726.33,373.17Z"/><path class="cls-32" d="M724.85,371.41c-11.56,5.78-11.56,15.14,0,20.92s30.29,5.78,41.85,0,11.56-15.14,0-20.92S736.4,365.63,724.85,371.41Z"/><path class="cls-103" d="M724.85,371.41c-11.56,5.78-11.56,15.14,0,20.92s30.29,5.78,41.85,0,11.56-15.14,0-20.92S736.4,365.63,724.85,371.41Z"/><path class="cls-21" d="M726.33,373.17c-10.74,5.37-10.74,14.07,0,19.44s28.14,5.37,38.88,0,10.74-14.07,0-19.44S737.07,367.8,726.33,373.17Z"/><path class="cls-101" d="M717.61,365.48c-15.55,7.77-15.55,20.38,0,28.15s40.76,7.77,56.31,0,15.55-20.38,0-28.15S733.16,357.71,717.61,365.48Z"/><path class="cls-102" d="M717.61,364.12c-15.55,7.77-15.55,20.38,0,28.15s40.76,7.77,56.31,0,15.55-20.38,0-28.15S733.16,356.34,717.61,364.12Z"/><path class="cls-21" d="M726.33,369.25c-10.74,5.37-10.74,14.07,0,19.44s28.14,5.37,38.88,0,10.74-14.07,0-19.44S737.07,363.89,726.33,369.25Z"/><path class="cls-32" d="M724.85,367.49c-11.56,5.78-11.56,15.14,0,20.92s30.29,5.78,41.85,0,11.56-15.14,0-20.92S736.4,361.72,724.85,367.49Z"/><path class="cls-103" d="M724.85,367.49c-11.56,5.78-11.56,15.14,0,20.92s30.29,5.78,41.85,0,11.56-15.14,0-20.92S736.4,361.72,724.85,367.49Z"/><path class="cls-21" d="M726.33,369.25c-10.74,5.37-10.74,14.07,0,19.44s28.14,5.37,38.88,0,10.74-14.07,0-19.44S737.07,363.89,726.33,369.25Z"/><path class="cls-101" d="M717.61,361.57c-15.55,7.77-15.55,20.38,0,28.15s40.76,7.77,56.31,0,15.55-20.38,0-28.15S733.16,353.8,717.61,361.57Z"/><path class="cls-102" d="M717.61,360.2c-15.55,7.77-15.55,20.38,0,28.15s40.76,7.77,56.31,0,15.55-20.38,0-28.15S733.16,352.43,717.61,360.2Z"/><path class="cls-21" d="M726.33,365.34c-10.74,5.37-10.74,14.07,0,19.44s28.14,5.37,38.88,0,10.74-14.07,0-19.44S737.07,360,726.33,365.34Z"/><path class="cls-32" d="M724.85,363.58c-11.56,5.78-11.56,15.14,0,20.92s30.29,5.78,41.85,0,11.56-15.14,0-20.92S736.4,357.81,724.85,363.58Z"/><path class="cls-103" d="M724.85,363.58c-11.56,5.78-11.56,15.14,0,20.92s30.29,5.78,41.85,0,11.56-15.14,0-20.92S736.4,357.81,724.85,363.58Z"/><path class="cls-21" d="M726.33,365.34c-10.74,5.37-10.74,14.07,0,19.44s28.14,5.37,38.88,0,10.74-14.07,0-19.44S737.07,360,726.33,365.34Z"/><path class="cls-101" d="M717.61,357.66c-15.55,7.77-15.55,20.38,0,28.15s40.76,7.77,56.31,0,15.55-20.38,0-28.15S733.16,349.89,717.61,357.66Z"/><path class="cls-102" d="M717.61,356.29c-15.55,7.77-15.55,20.38,0,28.15s40.76,7.77,56.31,0,15.55-20.38,0-28.15S733.16,348.52,717.61,356.29Z"/><path class="cls-21" d="M726.33,361.43c-10.74,5.37-10.74,14.07,0,19.44s28.14,5.37,38.88,0,10.74-14.07,0-19.44S737.07,356.07,726.33,361.43Z"/><path class="cls-32" d="M724.85,359.67c-11.56,5.78-11.56,15.14,0,20.92s30.29,5.78,41.85,0,11.56-15.14,0-20.92S736.4,353.9,724.85,359.67Z"/><path class="cls-103" d="M724.85,359.67c-11.56,5.78-11.56,15.14,0,20.92s30.29,5.78,41.85,0,11.56-15.14,0-20.92S736.4,353.9,724.85,359.67Z"/><path class="cls-21" d="M726.33,361.43c-10.74,5.37-10.74,14.07,0,19.44s28.14,5.37,38.88,0,10.74-14.07,0-19.44S737.07,356.07,726.33,361.43Z"/><path class="cls-101" d="M717.61,353.75c-15.55,7.77-15.55,20.38,0,28.15s40.76,7.77,56.31,0,15.55-20.38,0-28.15S733.16,346,717.61,353.75Z"/><path class="cls-102" d="M717.61,352.38c-15.55,7.77-15.55,20.38,0,28.15s40.76,7.77,56.31,0,15.55-20.38,0-28.15S733.16,344.61,717.61,352.38Z"/><path class="cls-21" d="M726.33,357.52c-10.74,5.37-10.74,14.07,0,19.44s28.14,5.37,38.88,0,10.74-14.07,0-19.44S737.07,352.16,726.33,357.52Z"/><path class="cls-32" d="M724.85,355.76c-11.56,5.78-11.56,15.14,0,20.92s30.29,5.78,41.85,0,11.56-15.14,0-20.92S736.4,350,724.85,355.76Z"/><path class="cls-103" d="M724.85,355.76c-11.56,5.78-11.56,15.14,0,20.92s30.29,5.78,41.85,0,11.56-15.14,0-20.92S736.4,350,724.85,355.76Z"/><path class="cls-21" d="M726.33,357.52c-10.74,5.37-10.74,14.07,0,19.44s28.14,5.37,38.88,0,10.74-14.07,0-19.44S737.07,352.16,726.33,357.52Z"/><path class="cls-101" d="M717.61,349.84c-15.55,7.77-15.55,20.38,0,28.15s40.76,7.77,56.31,0,15.55-20.38,0-28.15S733.16,342.07,717.61,349.84Z"/><path class="cls-102" d="M717.61,348.47c-15.55,7.77-15.55,20.38,0,28.15s40.76,7.77,56.31,0,15.55-20.38,0-28.15S733.16,340.7,717.61,348.47Z"/><path class="cls-21" d="M726.33,353.61c-10.74,5.37-10.74,14.07,0,19.44s28.14,5.37,38.88,0,10.74-14.07,0-19.44S737.07,348.24,726.33,353.61Z"/><path class="cls-32" d="M724.85,351.85c-11.56,5.78-11.56,15.14,0,20.92s30.29,5.78,41.85,0,11.56-15.14,0-20.92S736.4,346.07,724.85,351.85Z"/><path class="cls-103" d="M724.85,351.85c-11.56,5.78-11.56,15.14,0,20.92s30.29,5.78,41.85,0,11.56-15.14,0-20.92S736.4,346.07,724.85,351.85Z"/><path class="cls-21" d="M726.33,353.61c-10.74,5.37-10.74,14.07,0,19.44s28.14,5.37,38.88,0,10.74-14.07,0-19.44S737.07,348.24,726.33,353.61Z"/><path class="cls-101" d="M717.61,345.93c-15.55,7.77-15.55,20.38,0,28.15s40.76,7.77,56.31,0,15.55-20.38,0-28.15S733.16,338.16,717.61,345.93Z"/><path class="cls-102" d="M717.61,344.56c-15.55,7.77-15.55,20.38,0,28.15s40.76,7.77,56.31,0,15.55-20.38,0-28.15S733.16,336.79,717.61,344.56Z"/><path class="cls-21" d="M726.33,349.7c-10.74,5.37-10.74,14.07,0,19.44s28.14,5.37,38.88,0,10.74-14.07,0-19.44S737.07,344.33,726.33,349.7Z"/><path class="cls-32" d="M724.85,347.94c-11.56,5.78-11.56,15.14,0,20.92s30.29,5.78,41.85,0,11.56-15.14,0-20.92S736.4,342.16,724.85,347.94Z"/><path class="cls-103" d="M724.85,347.94c-11.56,5.78-11.56,15.14,0,20.92s30.29,5.78,41.85,0,11.56-15.14,0-20.92S736.4,342.16,724.85,347.94Z"/><path class="cls-21" d="M726.33,349.7c-10.74,5.37-10.74,14.07,0,19.44s28.14,5.37,38.88,0,10.74-14.07,0-19.44S737.07,344.33,726.33,349.7Z"/><path class="cls-101" d="M717.61,342c-15.55,7.77-15.55,20.38,0,28.15s40.76,7.77,56.31,0,15.55-20.38,0-28.15S733.16,334.25,717.61,342Z"/><path class="cls-102" d="M717.61,340.65c-15.55,7.77-15.55,20.38,0,28.15s40.76,7.77,56.31,0,15.55-20.38,0-28.15S733.16,332.88,717.61,340.65Z"/><path class="cls-21" d="M726.33,345.79c-10.74,5.37-10.74,14.07,0,19.44s28.14,5.37,38.88,0,10.74-14.07,0-19.44S737.07,340.42,726.33,345.79Z"/><path class="cls-32" d="M724.85,344c-11.56,5.78-11.56,15.14,0,20.92s30.29,5.78,41.85,0,11.56-15.14,0-20.92S736.4,338.25,724.85,344Z"/><path class="cls-103" d="M724.85,344c-11.56,5.78-11.56,15.14,0,20.92s30.29,5.78,41.85,0,11.56-15.14,0-20.92S736.4,338.25,724.85,344Z"/><path class="cls-104" d="M726.33,345.79c-10.74,5.37-10.74,14.07,0,19.44s28.14,5.37,38.88,0,10.74-14.07,0-19.44S737.07,340.42,726.33,345.79Z"/><path class="cls-101" d="M644.53,355.91c-12.2,6.1-12.2,16,0,22.09s32,6.1,44.19,0,12.2-16,0-22.09S656.73,349.81,644.53,355.91Z"/><path class="cls-102" d="M644.53,354.84c-12.2,6.1-12.2,16,0,22.09s32,6.1,44.19,0,12.2-16,0-22.09S656.73,348.74,644.53,354.84Z"/><path class="cls-21" d="M651.37,358.87c-8.43,4.21-8.43,11,0,15.26s22.08,4.21,30.51,0,8.43-11,0-15.26S659.79,354.66,651.37,358.87Z"/><path class="cls-32" d="M650.21,357.49c-9.07,4.53-9.07,11.89,0,16.42s23.77,4.53,32.84,0,9.07-11.89,0-16.42S659.27,353,650.21,357.49Z"/><path class="cls-103" d="M650.21,357.49c-9.07,4.53-9.07,11.89,0,16.42s23.77,4.53,32.84,0,9.07-11.89,0-16.42S659.27,353,650.21,357.49Z"/><path class="cls-21" d="M651.37,358.87c-8.43,4.21-8.43,11,0,15.26s22.08,4.21,30.51,0,8.43-11,0-15.26S659.79,354.66,651.37,358.87Z"/><path class="cls-101" d="M644.53,352.85c-12.2,6.1-12.2,16,0,22.09s32,6.1,44.19,0,12.2-16,0-22.09S656.73,346.74,644.53,352.85Z"/><path class="cls-102" d="M644.53,351.77c-12.2,6.1-12.2,16,0,22.09s32,6.1,44.19,0,12.2-16,0-22.09S656.73,345.67,644.53,351.77Z"/><path class="cls-21" d="M651.37,355.8c-8.43,4.21-8.43,11,0,15.26s22.08,4.21,30.51,0,8.43-11,0-15.26S659.79,351.59,651.37,355.8Z"/><path class="cls-32" d="M650.21,354.42c-9.07,4.53-9.07,11.89,0,16.42s23.77,4.53,32.84,0,9.07-11.89,0-16.42S659.27,349.89,650.21,354.42Z"/><path class="cls-103" d="M650.21,354.42c-9.07,4.53-9.07,11.89,0,16.42s23.77,4.53,32.84,0,9.07-11.89,0-16.42S659.27,349.89,650.21,354.42Z"/><path class="cls-21" d="M651.37,355.8c-8.43,4.21-8.43,11,0,15.26s22.08,4.21,30.51,0,8.43-11,0-15.26S659.79,351.59,651.37,355.8Z"/><path class="cls-101" d="M644.53,349.78c-12.2,6.1-12.2,16,0,22.09s32,6.1,44.19,0,12.2-16,0-22.09S656.73,343.68,644.53,349.78Z"/><path class="cls-102" d="M644.53,348.7c-12.2,6.1-12.2,16,0,22.09s32,6.1,44.19,0,12.2-16,0-22.09S656.73,342.6,644.53,348.7Z"/><path class="cls-21" d="M651.37,352.74c-8.43,4.21-8.43,11,0,15.26s22.08,4.21,30.51,0,8.43-11,0-15.26S659.79,348.52,651.37,352.74Z"/><path class="cls-32" d="M650.21,351.35c-9.07,4.53-9.07,11.89,0,16.42s23.77,4.53,32.84,0,9.07-11.89,0-16.42S659.27,346.82,650.21,351.35Z"/><path class="cls-103" d="M650.21,351.35c-9.07,4.53-9.07,11.89,0,16.42s23.77,4.53,32.84,0,9.07-11.89,0-16.42S659.27,346.82,650.21,351.35Z"/><path class="cls-21" d="M651.37,352.74c-8.43,4.21-8.43,11,0,15.26s22.08,4.21,30.51,0,8.43-11,0-15.26S659.79,348.52,651.37,352.74Z"/><path class="cls-101" d="M644.53,346.71c-12.2,6.1-12.2,16,0,22.09s32,6.1,44.19,0,12.2-16,0-22.09S656.73,340.61,644.53,346.71Z"/><path class="cls-102" d="M644.53,345.63c-12.2,6.1-12.2,16,0,22.09s32,6.1,44.19,0,12.2-16,0-22.09S656.73,339.53,644.53,345.63Z"/><path class="cls-21" d="M651.37,349.67c-8.43,4.21-8.43,11,0,15.26s22.08,4.21,30.51,0,8.43-11,0-15.26S659.79,345.45,651.37,349.67Z"/><path class="cls-32" d="M650.21,348.29c-9.07,4.53-9.07,11.89,0,16.42s23.77,4.53,32.84,0,9.07-11.89,0-16.42S659.27,343.75,650.21,348.29Z"/><path class="cls-103" d="M650.21,348.29c-9.07,4.53-9.07,11.89,0,16.42s23.77,4.53,32.84,0,9.07-11.89,0-16.42S659.27,343.75,650.21,348.29Z"/><path class="cls-21" d="M651.37,349.67c-8.43,4.21-8.43,11,0,15.26s22.08,4.21,30.51,0,8.43-11,0-15.26S659.79,345.45,651.37,349.67Z"/><path class="cls-101" d="M644.53,343.64c-12.2,6.1-12.2,16,0,22.09s32,6.1,44.19,0,12.2-16,0-22.09S656.73,337.54,644.53,343.64Z"/><path class="cls-102" d="M644.53,342.56c-12.2,6.1-12.2,16,0,22.09s32,6.1,44.19,0,12.2-16,0-22.09S656.73,336.46,644.53,342.56Z"/><path class="cls-21" d="M651.37,346.6c-8.43,4.21-8.43,11,0,15.26s22.08,4.21,30.51,0,8.43-11,0-15.26S659.79,342.39,651.37,346.6Z"/><path class="cls-32" d="M650.21,345.22c-9.07,4.53-9.07,11.89,0,16.42s23.77,4.53,32.84,0,9.07-11.89,0-16.42S659.27,340.68,650.21,345.22Z"/><path class="cls-103" d="M650.21,345.22c-9.07,4.53-9.07,11.89,0,16.42s23.77,4.53,32.84,0,9.07-11.89,0-16.42S659.27,340.68,650.21,345.22Z"/><path class="cls-21" d="M651.37,346.6c-8.43,4.21-8.43,11,0,15.26s22.08,4.21,30.51,0,8.43-11,0-15.26S659.79,342.39,651.37,346.6Z"/><path class="cls-101" d="M644.53,340.57c-12.2,6.1-12.2,16,0,22.09s32,6.1,44.19,0,12.2-16,0-22.09S656.73,334.47,644.53,340.57Z"/><path class="cls-102" d="M644.53,339.5c-12.2,6.1-12.2,16,0,22.09s32,6.1,44.19,0,12.2-16,0-22.09S656.73,333.39,644.53,339.5Z"/><path class="cls-21" d="M651.37,343.53c-8.43,4.21-8.43,11,0,15.26s22.08,4.21,30.51,0,8.43-11,0-15.26S659.79,339.32,651.37,343.53Z"/><path class="cls-32" d="M650.21,342.15c-9.07,4.53-9.07,11.89,0,16.42s23.77,4.53,32.84,0,9.07-11.89,0-16.42S659.27,337.61,650.21,342.15Z"/><path class="cls-103" d="M650.21,342.15c-9.07,4.53-9.07,11.89,0,16.42s23.77,4.53,32.84,0,9.07-11.89,0-16.42S659.27,337.61,650.21,342.15Z"/><path class="cls-21" d="M651.37,343.53c-8.43,4.21-8.43,11,0,15.26s22.08,4.21,30.51,0,8.43-11,0-15.26S659.79,339.32,651.37,343.53Z"/><path class="cls-18" d="M633.32,417.69c0,4.58,3.71,10.14,8.29,12.43s8.29.43,8.29-4.14-3.71-10.14-8.29-12.43S633.32,413.11,633.32,417.69Z"/><polygon class="cls-18" points="644.95 431.94 647.72 430.47 648.76 421.93 642.74 415.08 636.07 412.86 632.46 414.75 641.75 418.37 644.71 422.37 645.59 428.62 644.95 431.94"/><path class="cls-11" d="M630.3,419.29c0,4.58,3.71,10.14,8.29,12.43s8.29.43,8.29-4.14-3.71-10.14-8.29-12.43S630.3,414.71,630.3,419.29Z"/><path class="cls-25" d="M632.46,420.37c0,3.38,2.74,7.49,6.12,9.19s6.12.32,6.12-3.06-2.74-7.5-6.12-9.19S632.46,417,632.46,420.37Z"/><path class="cls-25" d="M619.36,381.93V247.8c0-9.92,8.07-14,18-9L737,288.65c9.92,5,18,17.06,18,27V449.77c0,9.92-8.07,14-18,9l-99.66-49.84C627.43,404,619.36,391.85,619.36,381.93Zm18-137.51c-6.82-3.41-12.37-.64-12.37,6.18V384.74c0,6.82,5.55,15.14,12.37,18.55L737,453.14c6.82,3.41,12.37.64,12.37-6.18V312.82c0-6.82-5.55-15.14-12.37-18.55Z"/><path class="cls-28" d="M616.55,384.18V250c0-9.92,8.07-14,18-9L734.2,290.9c9.92,5,18,17.06,18,27V452c0,9.92-8.07,14-18,9l-99.66-49.84C624.62,406.2,616.55,394.1,616.55,384.18Zm18-137.51c-6.82-3.41-12.37-.64-12.37,6.18V387c0,6.82,5.55,15.14,12.37,18.55l99.66,49.84c6.82,3.41,12.37.64,12.37-6.18V315.07c0-6.82-5.55-15.14-12.37-18.55Z"/><polygon class="cls-105" points="840.12 18.89 840.11 41.52 837.79 42.68 837.8 18.6 840.12 18.89"/><polygon class="cls-106" points="850.67 25.56 850.68 14.42 827.24 26.05 827.24 37.05 850.67 25.56"/><polygon class="cls-107" points="827.24 37.05 817.23 29.62 817.24 18.63 827.24 26.05 827.24 37.05"/><path class="cls-25" d="M816.65,27.17a1.81,1.81,0,0,1,.72-1.66L818.89,24c.54-.76,1.66-.73,3,.23,1.83,1.35,3.58,4.33,3.58,6.28,0,.07,0,.13,0,.19s0,.14,0,.21a1.81,1.81,0,0,1-.72,1.66L823,33.87c-.54.76-1.7.64-3-.32a8.59,8.59,0,0,1-3.3-6c0-.07,0-.13,0-.19S816.65,27.23,816.65,27.17Z"/><path class="cls-108" d="M816.27,27.52a8.59,8.59,0,0,0,3.3,6c1.83,1.35,3.31.87,3.31-1.08a8.59,8.59,0,0,0-3.3-6C817.76,25.09,816.27,25.57,816.27,27.52Z"/><polygon class="cls-109" points="840.67 7 850.68 14.42 819.58 29.97 809.57 22.55 840.67 7"/><polygon class="cls-110" points="854.2 35.2 859.96 38 859.96 29.29 854.2 26.49 854.2 35.2"/><polygon class="cls-105" points="856.74 30.62 837.79 40.17 837.79 42.68 856.72 33.18 856.74 30.62"/><path class="cls-16" d="M415,606.1c-13.39,6.7-13.39,17.55,0,24.25s35.1,6.7,48.49,0,13.39-17.55,0-24.25S428.39,599.4,415,606.1Z"/><polygon class="cls-22" points="483.86 540.04 473.54 617.37 404.96 617.37 394.64 540.04 483.86 540.04"/><path class="cls-2" d="M407.71,524.27c-17.42,8.71-17.42,22.83,0,31.54s45.66,8.71,63.08,0,17.42-22.83,0-31.54S425.13,515.56,407.71,524.27Z"/><path class="cls-1" d="M409.8,525.31c-16.26,8.13-16.26,21.31,0,29.45s42.63,8.13,58.89,0,16.26-21.32,0-29.45S426.07,517.18,409.8,525.31Z"/><path class="cls-22" d="M415,604.67c-13.39,6.7-13.39,17.55,0,24.25s35.1,6.7,48.49,0,13.39-17.55,0-24.25S428.39,598,415,604.67Z"/><path class="cls-2" d="M472.59,585.87l-4.3,31.5s-5.42,11.77-27.39,11.2C460.16,617.36,464.85,607.67,472.59,585.87Z"/><path class="cls-2" d="M480.47,543c-1.24,4.29-5.16,8.43-11.77,11.74-16.26,8.13-42.63,8.13-58.89,0-7.35-3.68-11.37-8.38-12.07-13.19l-.08-.05a30.5,30.5,0,0,1-2.83-3.43c-1.11,6.34,3.18,12.87,12.89,17.73,17.42,8.71,45.66,8.71,63.08,0,6.57-3.29,10.66-7.34,12.28-11.59A7.85,7.85,0,0,1,480.47,543Z"/><polygon class="cls-25" points="556.63 460.31 568.15 469.79 579.67 460.31 570.19 471.83 579.67 483.35 568.15 473.87 556.63 483.35 566.12 471.83 556.63 460.31"/><polygon class="cls-25" points="568.15 439.49 571.01 468.97 600.49 471.83 571.01 474.69 568.15 504.17 565.29 474.69 535.81 471.83 565.29 468.97 568.15 439.49"/><polygon class="cls-25" points="537.26 510 544.71 516.13 552.15 510 546.02 517.45 552.15 524.89 544.71 518.77 537.26 524.89 543.39 517.45 537.26 510"/><polygon class="cls-25" points="544.71 496.55 546.55 515.6 565.6 517.45 546.55 519.3 544.71 538.35 542.86 519.3 523.81 517.45 542.86 515.6 544.71 496.55"/><polygon class="cls-25" points="504 434.81 509.73 439.54 515.47 434.81 510.75 440.55 515.47 446.29 509.73 441.56 504 446.29 508.72 440.55 504 434.81"/><polygon class="cls-25" points="509.73 424.45 511.16 439.13 525.83 440.55 511.16 441.97 509.73 456.65 508.31 441.97 493.63 440.55 508.31 439.13 509.73 424.45"/><polygon class="cls-105" points="24.53 18.38 24.54 41.01 26.86 42.17 26.85 18.09 24.53 18.38"/><polygon class="cls-106" points="13.98 25.05 13.97 13.91 37.41 25.54 37.41 36.54 13.98 25.05"/><polygon class="cls-107" points="37.41 36.54 47.42 29.11 47.42 18.11 37.41 25.54 37.41 36.54"/><path class="cls-25" d="M48,26.65A1.81,1.81,0,0,0,47.28,25l-1.52-1.47c-.54-.76-1.66-.73-3,.23C41,25.11,39.23,28.08,39.23,30c0,.07,0,.13,0,.19s0,.14,0,.21A1.81,1.81,0,0,0,40,32.09l1.75,1.27c.54.76,1.7.64,3-.32a8.59,8.59,0,0,0,3.3-6c0-.07,0-.13,0-.19S48,26.72,48,26.65Z"/><path class="cls-108" d="M48.38,27a8.59,8.59,0,0,1-3.3,6c-1.83,1.35-3.31.87-3.31-1.08a8.59,8.59,0,0,1,3.3-6C46.9,24.57,48.38,25.06,48.38,27Z"/><polygon class="cls-109" points="23.98 6.48 13.97 13.91 45.07 29.46 55.08 22.03 23.98 6.48"/><polygon class="cls-110" points="10.45 34.69 4.69 37.49 4.69 28.78 10.45 25.98 10.45 34.69"/><polygon class="cls-105" points="7.91 30.11 26.86 39.66 26.86 42.17 7.94 32.67 7.91 30.11"/></svg>