<svg id="Слой_1" data-name="Слой 1" xmlns="http://www.w3.org/2000/svg" viewBox="0 0 283.6 22.8"><defs><style>.cls-1{fill:#fff;}</style></defs><title>Монтажная область 1</title><g id="Слой_2" data-name="Слой 2"><g id="Слой_3" data-name="Слой 3"><path class="cls-1" d="M0,1.6H11.7V4.3H3.4V8.1H5.3c5,0,7.8,1.8,7.8,5.6,0,3.5-2.6,5.5-7.4,5.5H0Zm3.4,9.2v5.8H5.6c2.8,0,3.9-1.2,3.9-2.9,0-1.9-1.3-2.9-4.1-2.9Z"/><path class="cls-1" d="M15.1,12.6c0-5.5,2.9-7.3,6.5-7.3,4.2,0,5.8,2.5,5.8,6.9v1.2H18.5c0,2.9,1.9,3.5,4.1,3.5a13.2,13.2,0,0,0,3.9-.6l.6,2.5a16.22,16.22,0,0,1-4.9.8C17.9,19.6,15.1,18,15.1,12.6Zm8.8-1.5c0-2.1-.8-3.5-2.5-3.5s-2.8,1.2-2.9,3.5Z"/><path class="cls-1" d="M28.9,18.4l.9-2.5a8.61,8.61,0,0,0,3.8,1c1.2,0,2.2-.5,2.2-1.7s-1.1-1.6-2.4-1.6H31.5V11.1h1.8c1.5,0,2.1-.9,2.1-1.7s-.7-1.5-2-1.5a7.64,7.64,0,0,0-3.3.8l-.8-2.4a11,11,0,0,1,4.7-1c3.2,0,4.8,1.8,4.8,3.5a3.54,3.54,0,0,0-1.7,4.7,3.67,3.67,0,0,0,2.3,1.9c0,1.9-1.5,4-5.5,4A10.93,10.93,0,0,1,28.9,18.4Z"/><path class="cls-1" d="M48.1,5.6h6.1c3,0,4.7,1.3,4.7,3.6A3.08,3.08,0,0,1,57.1,12a3.05,3.05,0,0,1,2.5,3.2c0,2.5-2.1,4-5.3,4H48.1Zm5,5.7c1.6,0,2.5-.5,2.5-1.7S54.6,8,53.1,8H51.3v3.3Zm.5,5.6c1.5,0,2.6-.4,2.6-1.8s-1.1-1.8-2.8-1.8H51.5v3.5l2.1.1Z"/><path class="cls-1" d="M62.4,5.6h3.3v7.2l-.1,2,1.3-2,5-7.2h3.3V19.3H72V10.1l-1.3,2-5,7.2H62.4Z"/><path class="cls-1" d="M77.5,16.7H79a10.64,10.64,0,0,0,1.6-4.3,53.78,53.78,0,0,0,.7-6.9h9.5V16.6H93v6.2H90V19.1H80.6v3.7H77.5V16.7Zm10,0V8.1H84.1a47.75,47.75,0,0,1-.6,5.3,11.66,11.66,0,0,1-1.1,3.3Z"/><path class="cls-1" d="M94.8,12.6c0-5.5,2.9-7.3,6.5-7.3,4.2,0,5.8,2.5,5.8,6.9v1.2H98.2c0,2.9,1.9,3.5,4.1,3.5a13.2,13.2,0,0,0,3.9-.6l.5,2.5a16.22,16.22,0,0,1-4.9.8C97.5,19.6,94.8,18,94.8,12.6Zm8.8-1.5c0-2.1-.8-3.5-2.5-3.5s-2.8,1.2-2.9,3.5Z"/><path class="cls-1" d="M109,12.6c0-4.6,2.7-7.3,6.9-7.3,4.5,0,6.6,2.7,6.6,7.2,0,4.8-2.9,7.2-6.9,7.2C111.4,19.6,109,16.9,109,12.6Zm10.1-.1c0-2.3-.6-4.5-3.3-4.5s-3.4,2.2-3.4,4.5c0,2.5.8,4.4,3.4,4.4S119.1,14.9,119.1,12.5Z"/><path class="cls-1" d="M125.3,5.6h3.3v5.5h5.7V5.6h3.3V19.3h-3.3V13.7h-5.7v5.6h-3.3Z"/><path class="cls-1" d="M140.4,15.5c0-3.5,3.1-4.2,5.6-4.2h2.7V10.1c0-1.6-.9-2-2.7-2a13.86,13.86,0,0,0-4,.6l-.7-2.5a13.37,13.37,0,0,1,5.2-1c3.6,0,5.4,1.2,5.4,4.1v6.6c0,.7.6.8,1.3.8l-.1,2.5h-.6c-1.7,0-3.2-.3-3.5-1.5a7.43,7.43,0,0,1-4.3,1.7C142.1,19.5,140.4,18.1,140.4,15.5Zm8.3.5V13.3l-2.5.1c-1.5,0-2.5.7-2.5,1.8s.9,1.6,2,1.6A6.41,6.41,0,0,0,148.7,16Z"/><path class="cls-1" d="M155.4,11.8c0-3,.5-7.3,2.3-8.8,1.5-1.3,5.3-2.3,9.6-3l.5,3c-3.8.6-7.1,1.1-8,1.8a5.64,5.64,0,0,0-1.2,3.1,9.2,9.2,0,0,1,4.6-1.1c3.4,0,5.4,1.7,5.4,5.7,0,4.9-3,7.1-6.9,7.1S155.4,17.1,155.4,11.8Zm9.9.8c0-1.9-.9-3.3-3.1-3.3a7.49,7.49,0,0,0-3.6,1v1.5c0,3.5,1.1,5.1,3.4,5.1,2.5-.1,3.3-2.3,3.3-4.3Z"/><path class="cls-1" d="M169.8,17a5.18,5.18,0,0,0,2.7-1.9c.6-1.2,1.1-4.7,1.3-9.4h9.5V19.4H180V8.3h-3.3c-.4,4.6-.9,7.4-1.8,8.9a6.27,6.27,0,0,1-4.1,2.6Z"/><path class="cls-1" d="M192.9,13.7h-2.6v5.6H187V5.7h3.3v5.5h2.6a6.26,6.26,0,0,1,6.7-5.8c4.5,0,6.7,2.7,6.7,7.2,0,4.7-2.9,7.1-6.9,7.1S193.3,17.4,192.9,13.7Zm10-1.3c0-2.3-.6-4.5-3.3-4.5s-3.4,2.2-3.4,4.5c0,2.5.8,4.4,3.4,4.4s3.3-1.9,3.3-4.4Z"/><path class="cls-1" d="M207.7,16.7h1.5a10.64,10.64,0,0,0,1.6-4.3,53.78,53.78,0,0,0,.7-6.9H221V16.6h2.2v6.2h-3.1V19.1h-9.4v3.7h-3.1Zm10,0V8.1h-3.3a47.75,47.75,0,0,1-.6,5.3,11.66,11.66,0,0,1-1.1,3.3Z"/><path class="cls-1" d="M224.9,12.6c0-5.5,2.9-7.3,6.5-7.3,4.2,0,5.8,2.5,5.8,6.9v1.2h-8.9c0,2.9,1.9,3.5,4.1,3.5a13.2,13.2,0,0,0,3.9-.6l.5,2.5a16.22,16.22,0,0,1-4.9.8C227.7,19.6,224.9,18,224.9,12.6Zm8.8-1.5c0-2.1-.8-3.5-2.5-3.5s-2.8,1.2-2.9,3.5Z"/><path class="cls-1" d="M240,5.6h3.3v5.5H249V5.6h3.3V19.3H249V13.7h-5.7v5.6H240Z"/><path class="cls-1" d="M256,5.6h3.3v7.2l-.1,2,1.3-2,5-7.2h3.3V19.3h-3.3V10.1l-1.3,2-5,7.2H256Z"/><path class="cls-1" d="M271.2,19.3c.1-.1,3.7-4.9,3.8-5.1a4,4,0,0,1-2.4-3.8c0-3.1,2.4-4.8,5.5-4.8h5.5V19.3h-3.3V15H278l-3,4.3Zm8.9-6.8V8.2h-1.8a2.06,2.06,0,0,0-2.3,1.9v.4c0,1.4,1.3,2.1,2.7,2.1Z"/></g></g></svg>