<svg id="Слой_1" data-name="Слой 1" xmlns="http://www.w3.org/2000/svg" viewBox="0 0 883.35 677.49"><defs><style>.cls-1{fill:#8c8c8c;}.cls-2{fill:#e6e6e6;}.cls-3{fill:#e0e0e0;}.cls-4{fill:#f2f2f2;}.cls-5{opacity:0.1;}.cls-5,.cls-94{isolation:isolate;}.cls-6{fill:#b6b6b6;}.cls-7{fill:#cacaca;}.cls-8{fill:#ababab;}.cls-9{fill:#e8e8e8;}.cls-10{fill:#d4d4d4;}.cls-11{fill:#b3b3b3;}.cls-12{fill:#919191;}.cls-13{fill:#8a8a8a;}.cls-14{fill:#c9c9c9;}.cls-15{fill:#707070;}.cls-16{fill:#bababa;}.cls-17{fill:#b8b8b8;}.cls-18{fill:#696969;}.cls-19{fill:#787878;}.cls-20{fill:#adadad;}.cls-21{fill:#9e9e9e;}.cls-22{fill:#bfbfbf;}.cls-23{fill:#d1d1d1;}.cls-24{fill:#ba9886;}.cls-25{fill:#d6af9a;}.cls-26{fill:#fff;}.cls-27{fill:#424242;}.cls-28{fill:#575757;}.cls-29{fill:#dedede;}.cls-30{fill:#e6cdba;}.cls-31{fill:#f7ddc8;}.cls-32{fill:#593519;}.cls-33{fill:#ebebeb;}.cls-34{fill:#d1c1c1;}.cls-35{fill:#a39797;}.cls-36{fill:#a6636b;}.cls-37{fill:#e6c249;}.cls-38{fill:#e6f0c4;}.cls-39{fill:#e390ac;}.cls-40{fill:#f0d4d4;}.cls-41{fill:#a66763;}.cls-42{fill:#7d4e4b;}.cls-43{fill:#c77b77;}.cls-44{fill:#9c9c9c;}.cls-45{fill:#fffef9;}.cls-46{fill:#c68476;}.cls-47{fill:#ffe4e1;}.cls-48{fill:#baa37d;}.cls-49{fill:#ccb489;}.cls-50{fill:#e6ca9b;}.cls-51{fill:#ffe3ab;}.cls-52{fill:#ad9a74;}.cls-53{fill:#ffe2e2;}.cls-54{fill:#ab6e66;}.cls-55{fill:#e3938d;}.cls-56{fill:#d4f0ee;}.cls-57{fill:#63a0a6;}.cls-58{fill:#77c0c7;}.cls-59{fill:#ebd0d4;}.cls-60{fill:#834e6c;}.cls-61{fill:#c27878;}.cls-62{fill:#ffebe2;}.cls-63{fill:#ab8366;}.cls-64{fill:#e3ac8d;}.cls-65{fill:#bab6b1;}.cls-66{fill:#ccc8c2;}.cls-67{fill:#e6e2da;}.cls-68{fill:#fffbf2;}.cls-69{fill:#adaaa4;}.cls-70{fill:#bf3f30;}.cls-71{fill:#d66254;}.cls-72{fill:#a64c56;}.cls-73{fill:#e6ba29;}.cls-74{fill:#e2f0b4;}.cls-75{fill:#e37198;}.cls-76{fill:#f0caca;}.cls-77{fill:#a6514c;}.cls-78{fill:#7d3d39;}.cls-79{fill:#c7615b;}.cls-80{fill:#fffef7;}.cls-81{fill:#c66d5a;}.cls-82{fill:#ffdad6;}.cls-83{fill:#456b36;}.cls-84{fill:#8bd46b;}.cls-85{fill:#74b35a;}.cls-86{fill:#659c4e;}.cls-87{fill:#b4b4b4;}.cls-88{fill:#2d2d2d;}.cls-89{fill:#4d4d4d;}.cls-90{fill:#87da17;}.cls-91{fill:#8be712;}.cls-92{fill:#af7300;}.cls-93{fill:#ff4c36;}.cls-94{opacity:0.05;}.cls-95{fill:#f7f7f7;}.cls-96{fill:#b5b5b5;}.cls-97{fill:#c4c4c4;}.cls-98{fill:#efefef;}.cls-99{fill:#d3d3d3;}.cls-100{fill:#bcbcbc;}.cls-101{fill:#ededed;}.cls-102{fill:#a6a6a6;}.cls-103{fill:#dbdbdb;}.cls-104{fill:#a8a8a8;}.cls-105{fill:#ccc;}.cls-106{fill:#bfbbb4;}.cls-107{fill:#696b6e;}.cls-108{fill:#5a5a5d;}.cls-109{fill:#e21e23;}.cls-110{fill:#808285;}.cls-111{fill:#d5d1c8;}</style></defs><title>Монтажная область 1</title><g id="Слой_2" data-name="Слой 2"><g id="Слой_3" data-name="Слой 3"><polygon class="cls-1" points="882.21 457.25 441.73 677.49 1.25 457.25 0.11 436.46 441.73 237.01 883.35 436.46 882.21 457.25"/><polygon class="cls-2" points="883.35 436.46 441.73 657.27 0.11 436.46 441.73 215.65 883.35 436.46"/><polygon class="cls-3" points="0.76 437.06 441.73 657.55 882.69 437.06 441.73 216.58 0.76 437.06"/><polygon class="cls-4" points="798.95 437.06 840.82 458 882.69 437.06 840.82 416.13 798.95 437.06"/><polygon class="cls-4" points="754.61 459.24 796.48 480.17 838.35 459.24 796.48 438.3 754.61 459.24"/><polygon class="cls-4" points="710.26 481.41 752.13 502.34 794 481.41 752.13 460.47 710.26 481.41"/><polygon class="cls-4" points="665.92 503.58 707.79 524.51 749.66 503.58 707.79 482.64 665.92 503.58"/><polygon class="cls-4" points="621.58 525.75 663.45 546.69 705.32 525.75 663.45 504.82 621.58 525.75"/><polygon class="cls-4" points="577.23 547.92 619.1 568.86 660.97 547.92 619.1 526.99 577.23 547.92"/><polygon class="cls-4" points="532.89 570.1 574.76 591.03 616.63 570.1 574.76 549.16 532.89 570.1"/><polygon class="cls-4" points="488.54 592.27 530.41 613.2 572.28 592.27 530.41 571.33 488.54 592.27"/><polygon class="cls-4" points="444.2 614.44 486.07 635.38 527.94 614.44 486.07 593.51 444.2 614.44"/><polygon class="cls-4" points="399.86 636.61 441.73 657.55 483.59 636.61 441.73 615.68 399.86 636.61"/><polygon class="cls-4" points="754.61 414.89 796.48 435.83 838.35 414.89 796.48 393.96 754.61 414.89"/><polygon class="cls-4" points="710.26 437.06 752.13 458 794 437.06 752.13 416.13 710.26 437.06"/><polygon class="cls-4" points="665.92 459.24 707.79 480.17 749.66 459.24 707.79 438.3 665.92 459.24"/><polygon class="cls-4" points="621.58 481.41 663.45 502.34 705.32 481.41 663.45 460.47 621.58 481.41"/><polygon class="cls-4" points="577.23 503.58 619.1 524.51 660.97 503.58 619.1 482.64 577.23 503.58"/><polygon class="cls-4" points="532.89 525.75 574.76 546.69 616.63 525.75 574.76 504.82 532.89 525.75"/><polygon class="cls-4" points="488.54 547.92 530.41 568.86 572.28 547.92 530.41 526.99 488.54 547.92"/><polygon class="cls-4" points="444.2 570.1 486.07 591.03 527.94 570.1 486.07 549.16 444.2 570.1"/><polygon class="cls-4" points="399.86 592.27 441.73 613.2 483.59 592.27 441.73 571.33 399.86 592.27"/><polygon class="cls-4" points="355.51 614.44 397.38 635.38 439.25 614.44 397.38 593.51 355.51 614.44"/><polygon class="cls-4" points="710.26 392.72 752.13 413.65 794 392.72 752.13 371.78 710.26 392.72"/><polygon class="cls-4" points="665.92 414.89 707.79 435.83 749.66 414.89 707.79 393.96 665.92 414.89"/><polygon class="cls-4" points="621.58 437.06 663.45 458 705.32 437.06 663.45 416.13 621.58 437.06"/><polygon class="cls-4" points="577.23 459.24 619.1 480.17 660.97 459.24 619.1 438.3 577.23 459.24"/><polygon class="cls-4" points="532.89 481.41 574.76 502.34 616.63 481.41 574.76 460.47 532.89 481.41"/><polygon class="cls-4" points="488.54 503.58 530.41 524.51 572.28 503.58 530.41 482.64 488.54 503.58"/><polygon class="cls-4" points="444.2 525.75 486.07 546.69 527.94 525.75 486.07 504.82 444.2 525.75"/><polygon class="cls-4" points="399.86 547.92 441.73 568.86 483.59 547.92 441.73 526.99 399.86 547.92"/><polygon class="cls-4" points="355.51 570.1 397.38 591.03 439.25 570.1 397.38 549.16 355.51 570.1"/><polygon class="cls-4" points="311.17 592.27 353.04 613.2 394.9 592.27 353.04 571.33 311.17 592.27"/><polygon class="cls-4" points="665.92 370.55 707.79 391.48 749.66 370.55 707.79 349.61 665.92 370.55"/><polygon class="cls-4" points="621.58 392.72 663.45 413.65 705.32 392.72 663.45 371.78 621.58 392.72"/><polygon class="cls-4" points="577.23 414.89 619.1 435.83 660.97 414.89 619.1 393.96 577.23 414.89"/><polygon class="cls-4" points="532.89 437.06 574.76 458 616.63 437.06 574.76 416.13 532.89 437.06"/><polygon class="cls-4" points="488.54 459.24 530.41 480.17 572.28 459.24 530.41 438.3 488.54 459.24"/><polygon class="cls-4" points="444.2 481.41 486.07 502.34 527.94 481.41 486.07 460.47 444.2 481.41"/><polygon class="cls-4" points="399.86 503.58 441.73 524.51 483.59 503.58 441.73 482.64 399.86 503.58"/><polygon class="cls-4" points="355.51 525.75 397.38 546.69 439.25 525.75 397.38 504.82 355.51 525.75"/><polygon class="cls-4" points="311.17 547.92 353.04 568.86 394.9 547.92 353.04 526.99 311.17 547.92"/><polygon class="cls-4" points="266.82 570.1 308.69 591.03 350.56 570.1 308.69 549.16 266.82 570.1"/><polygon class="cls-4" points="621.58 348.38 663.45 369.31 705.32 348.38 663.45 327.44 621.58 348.38"/><polygon class="cls-4" points="577.23 370.55 619.1 391.48 660.97 370.55 619.1 349.61 577.23 370.55"/><polygon class="cls-4" points="532.89 392.72 574.76 413.65 616.63 392.72 574.76 371.78 532.89 392.72"/><polygon class="cls-4" points="488.54 414.89 530.41 435.83 572.28 414.89 530.41 393.96 488.54 414.89"/><polygon class="cls-4" points="444.2 437.06 486.07 458 527.94 437.06 486.07 416.13 444.2 437.06"/><polygon class="cls-4" points="399.86 459.24 441.73 480.17 483.59 459.24 441.73 438.3 399.86 459.24"/><polygon class="cls-4" points="355.51 481.41 397.38 502.34 439.25 481.41 397.38 460.47 355.51 481.41"/><polygon class="cls-4" points="311.17 503.58 353.04 524.51 394.9 503.58 353.04 482.64 311.17 503.58"/><polygon class="cls-4" points="266.82 525.75 308.69 546.69 350.56 525.75 308.69 504.82 266.82 525.75"/><polygon class="cls-4" points="222.48 547.92 264.35 568.86 306.22 547.92 264.35 526.99 222.48 547.92"/><polygon class="cls-4" points="577.23 326.2 619.1 347.14 660.97 326.2 619.1 305.27 577.23 326.2"/><polygon class="cls-4" points="532.89 348.38 574.76 369.31 616.63 348.38 574.76 327.44 532.89 348.38"/><polygon class="cls-4" points="488.54 370.55 530.41 391.48 572.28 370.55 530.41 349.61 488.54 370.55"/><polygon class="cls-4" points="444.2 392.72 486.07 413.65 527.94 392.72 486.07 371.78 444.2 392.72"/><polygon class="cls-4" points="399.86 414.89 441.73 435.83 483.59 414.89 441.73 393.96 399.86 414.89"/><polygon class="cls-4" points="355.51 437.06 397.38 458 439.25 437.06 397.38 416.13 355.51 437.06"/><polygon class="cls-4" points="311.17 459.24 353.04 480.17 394.9 459.24 353.04 438.3 311.17 459.24"/><polygon class="cls-4" points="266.82 481.41 308.69 502.34 350.56 481.41 308.69 460.47 266.82 481.41"/><polygon class="cls-4" points="222.48 503.58 264.35 524.51 306.22 503.58 264.35 482.64 222.48 503.58"/><polygon class="cls-4" points="178.13 525.75 220 546.69 261.87 525.75 220 504.82 178.13 525.75"/><polygon class="cls-4" points="532.89 304.03 574.76 324.96 616.63 304.03 574.76 283.1 532.89 304.03"/><polygon class="cls-4" points="488.54 326.2 530.41 347.14 572.28 326.2 530.41 305.27 488.54 326.2"/><polygon class="cls-4" points="444.2 348.38 486.07 369.31 527.94 348.38 486.07 327.44 444.2 348.38"/><polygon class="cls-4" points="399.86 370.55 441.73 391.48 483.59 370.55 441.73 349.61 399.86 370.55"/><polygon class="cls-4" points="355.51 392.72 397.38 413.65 439.25 392.72 397.38 371.78 355.51 392.72"/><polygon class="cls-4" points="311.17 414.89 353.04 435.83 394.9 414.89 353.04 393.96 311.17 414.89"/><polygon class="cls-4" points="266.82 437.06 308.69 458 350.56 437.06 308.69 416.13 266.82 437.06"/><polygon class="cls-4" points="222.48 459.24 264.35 480.17 306.22 459.24 264.35 438.3 222.48 459.24"/><polygon class="cls-4" points="178.13 481.41 220 502.34 261.87 481.41 220 460.47 178.13 481.41"/><polygon class="cls-4" points="133.79 503.58 175.66 524.51 217.53 503.58 175.66 482.64 133.79 503.58"/><polygon class="cls-4" points="488.54 281.86 530.41 302.79 572.28 281.86 530.41 260.92 488.54 281.86"/><polygon class="cls-4" points="444.2 304.03 486.07 324.96 527.94 304.03 486.07 283.1 444.2 304.03"/><polygon class="cls-4" points="399.86 326.2 441.73 347.14 483.59 326.2 441.73 305.27 399.86 326.2"/><polygon class="cls-4" points="355.51 348.38 397.38 369.31 439.25 348.38 397.38 327.44 355.51 348.38"/><polygon class="cls-4" points="311.17 370.55 353.04 391.48 394.9 370.55 353.04 349.61 311.17 370.55"/><polygon class="cls-4" points="266.82 392.72 308.69 413.65 350.56 392.72 308.69 371.78 266.82 392.72"/><polygon class="cls-4" points="222.48 414.89 264.35 435.83 306.22 414.89 264.35 393.96 222.48 414.89"/><polygon class="cls-4" points="178.13 437.06 220 458 261.87 437.06 220 416.13 178.13 437.06"/><polygon class="cls-4" points="133.79 459.24 175.66 480.17 217.53 459.24 175.66 438.3 133.79 459.24"/><polygon class="cls-4" points="89.45 481.41 131.31 502.34 173.19 481.41 131.31 460.47 89.45 481.41"/><polygon class="cls-4" points="444.2 259.69 486.07 280.62 527.94 259.69 486.07 238.75 444.2 259.69"/><polygon class="cls-4" points="399.86 281.86 441.73 302.79 483.59 281.86 441.73 260.92 399.86 281.86"/><polygon class="cls-4" points="355.51 304.03 397.38 324.96 439.25 304.03 397.38 283.1 355.51 304.03"/><polygon class="cls-4" points="311.17 326.2 353.04 347.14 394.9 326.2 353.04 305.27 311.17 326.2"/><polygon class="cls-4" points="266.82 348.38 308.69 369.31 350.56 348.38 308.69 327.44 266.82 348.38"/><polygon class="cls-4" points="222.48 370.55 264.35 391.48 306.22 370.55 264.35 349.61 222.48 370.55"/><polygon class="cls-4" points="178.13 392.72 220 413.65 261.87 392.72 220 371.78 178.13 392.72"/><polygon class="cls-4" points="133.79 414.89 175.66 435.83 217.53 414.89 175.66 393.96 133.79 414.89"/><polygon class="cls-4" points="89.45 437.06 131.31 458 173.19 437.06 131.31 416.13 89.45 437.06"/><polygon class="cls-4" points="45.1 459.24 86.97 480.17 128.84 459.24 86.97 438.3 45.1 459.24"/><polygon class="cls-4" points="399.86 237.51 441.73 258.45 483.59 237.51 441.73 216.58 399.86 237.51"/><polygon class="cls-4" points="355.51 259.69 397.38 280.62 439.25 259.69 397.38 238.75 355.51 259.69"/><polygon class="cls-4" points="311.17 281.86 353.04 302.79 394.9 281.86 353.04 260.92 311.17 281.86"/><polygon class="cls-4" points="266.82 304.03 308.69 324.96 350.56 304.03 308.69 283.1 266.82 304.03"/><polygon class="cls-4" points="222.48 326.2 264.35 347.14 306.22 326.2 264.35 305.27 222.48 326.2"/><polygon class="cls-4" points="178.13 348.38 220 369.31 261.87 348.38 220 327.44 178.13 348.38"/><polygon class="cls-4" points="133.79 370.55 175.66 391.48 217.53 370.55 175.66 349.61 133.79 370.55"/><polygon class="cls-4" points="89.45 392.72 131.31 413.65 173.19 392.72 131.31 371.78 89.45 392.72"/><polygon class="cls-4" points="45.1 414.89 86.97 435.83 128.84 414.89 86.97 393.96 45.1 414.89"/><polygon class="cls-4" points="0.76 437.06 42.63 458 84.5 437.06 42.63 416.13 0.76 437.06"/><path class="cls-5" d="M.76,437.06l118.9,59.17,322.07-149.1s60.75,39.31,107.78,15.25-19.1-73.55-19.1-73.55l26.77-15.46-115.46-56.8Z"/><polygon class="cls-6" points="425.05 332.27 430.85 329.6 430.85 310.35 425.05 313.03 425.05 332.27"/><polygon class="cls-7" points="430.85 310.4 425.05 313.06 419.26 310.16 425.05 307.5 430.85 310.4"/><polygon class="cls-8" points="425.05 332.27 425.05 313.03 419.26 310.13 419.26 329.37 425.05 332.27"/><polygon class="cls-6" points="326.98 283.6 332.78 280.93 332.78 261.69 326.98 264.36 326.98 283.6"/><polygon class="cls-7" points="332.78 261.73 326.98 264.39 321.19 261.49 326.98 258.83 332.78 261.73"/><polygon class="cls-8" points="326.98 283.6 326.98 264.36 321.19 261.46 321.19 280.7 326.98 283.6"/><polygon class="cls-6" points="523.14 282.92 528.94 280.25 528.94 244.67 523.14 247.34 523.14 282.92"/><polygon class="cls-7" points="528.94 244.72 523.14 247.38 517.35 244.48 523.14 241.82 528.94 244.72"/><polygon class="cls-8" points="523.14 282.92 523.14 247.34 517.35 244.44 517.35 280.02 523.14 282.92"/><polygon class="cls-9" points="321.17 141.36 425.05 193.31 528.94 141.36 425.05 89.42 321.17 141.36"/><polygon class="cls-1" points="433.9 139.18 470.7 157.58 507.5 139.18 470.7 120.78 433.9 139.18"/><polygon class="cls-1" points="394.86 119.66 431.66 138.06 468.46 119.66 431.66 101.26 394.86 119.66"/><polygon class="cls-1" points="394.03 159.11 430.83 177.51 467.63 159.11 430.83 140.71 394.03 159.11"/><polygon class="cls-1" points="354.99 139.59 391.79 158 428.59 139.59 391.79 121.19 354.99 139.59"/><polygon class="cls-10" points="425.05 313.5 528.94 261.55 528.94 141.33 425.05 193.28 425.05 313.5"/><polygon class="cls-11" points="445.5 280.07 524.22 240.7 524.22 192.18 445.5 231.55 445.5 280.07"/><polygon class="cls-11" points="429.65 226.89 524.22 179.6 524.22 156.96 429.65 204.25 429.65 226.89"/><polygon class="cls-12" points="425.05 206.57 528.94 154.62 528.94 141.33 425.05 193.28 425.05 206.57"/><polygon class="cls-10" points="452 244.72 517.43 212 517.43 204.95 452 237.67 452 244.72"/><polygon class="cls-13" points="452 244.72 459.05 241.19 459.05 234.15 452 237.67 452 244.72"/><polygon class="cls-13" points="510.39 215.52 517.43 212 517.43 204.95 510.39 208.47 510.39 215.52"/><polygon class="cls-14" points="321.19 261.57 425.07 313.52 425.07 193.3 321.19 141.35 321.19 261.57"/><polygon class="cls-11" points="321.17 193.7 425.05 245.65 425.05 242.2 321.17 190.24 321.17 193.7"/><polygon class="cls-10" points="326.38 144.01 430.26 92.05 430.26 81.68 326.38 133.63 326.38 144.01"/><polygon class="cls-9" points="430.26 81.72 326.38 133.66 321.19 131.07 425.07 79.13 430.26 81.72"/><polygon class="cls-14" points="326.38 144.01 326.38 133.63 321.19 131.04 321.19 141.41 326.38 144.01"/><path class="cls-15" d="M507.7,176.13c0,1.93,1.57,2.72,3.5,1.75a6.59,6.59,0,0,0,3.5-5.25c0-1.93-1.57-2.72-3.5-1.75A6.59,6.59,0,0,0,507.7,176.13Z"/><polygon class="cls-15" points="515.27 171.79 513.88 170.79 509.18 174.01 508.47 177.93 509.91 178.98 515.27 171.79"/><path class="cls-1" d="M509.06,177.12c0,1.93,1.57,2.72,3.5,1.75a6.59,6.59,0,0,0,3.5-5.25c0-1.93-1.57-2.72-3.5-1.75A6.59,6.59,0,0,0,509.06,177.12Z"/><path class="cls-15" d="M489.07,186.58c0,1.93,1.57,2.72,3.5,1.75a6.59,6.59,0,0,0,3.5-5.25c0-1.93-1.57-2.72-3.5-1.75A6.59,6.59,0,0,0,489.07,186.58Z"/><polygon class="cls-15" points="496.64 182.24 495.25 181.23 490.55 184.47 489.84 188.38 491.28 189.42 496.64 182.24"/><path class="cls-1" d="M490.43,187.57c0,1.93,1.57,2.72,3.5,1.75a6.59,6.59,0,0,0,3.5-5.25c0-1.93-1.57-2.72-3.5-1.75A6.59,6.59,0,0,0,490.43,187.57Z"/><path class="cls-15" d="M467.69,197.09c0,1.93,1.57,2.72,3.5,1.75a6.59,6.59,0,0,0,3.5-5.25c0-1.93-1.57-2.72-3.5-1.75A6.59,6.59,0,0,0,467.69,197.09Z"/><polygon class="cls-15" points="475.26 192.75 473.87 191.74 469.17 194.97 468.46 198.89 469.9 199.93 475.26 192.75"/><path class="cls-1" d="M469,198.07c0,1.93,1.57,2.72,3.5,1.75a6.59,6.59,0,0,0,3.5-5.25c0-1.93-1.57-2.72-3.5-1.75A6.59,6.59,0,0,0,469,198.07Z"/><path class="cls-15" d="M445.5,207.08c0,1.93,1.57,2.72,3.5,1.75a6.59,6.59,0,0,0,3.5-5.25c0-1.93-1.57-2.72-3.5-1.75A6.59,6.59,0,0,0,445.5,207.08Z"/><polygon class="cls-15" points="453.07 202.75 451.68 201.74 446.98 204.97 446.27 208.89 447.71 209.93 453.07 202.75"/><path class="cls-1" d="M446.86,208.07c0,1.93,1.57,2.72,3.5,1.75a6.59,6.59,0,0,0,3.5-5.25c0-1.93-1.57-2.72-3.5-1.75A6.59,6.59,0,0,0,446.86,208.07Z"/><polygon class="cls-6" points="321.16 384.23 326.96 381.56 326.96 362.31 321.16 364.98 321.16 384.23"/><polygon class="cls-7" points="326.96 362.36 321.16 365.02 315.37 362.12 321.16 359.46 326.96 362.36"/><polygon class="cls-8" points="321.17 384.23 321.16 364.98 315.37 362.08 315.37 381.33 321.17 384.23"/><polygon class="cls-6" points="223.1 335.22 228.89 332.55 228.89 313.3 223.1 315.97 223.1 335.22"/><polygon class="cls-7" points="228.89 313.35 223.1 316.01 217.3 313.11 223.1 310.45 228.89 313.35"/><polygon class="cls-8" points="223.1 335.22 223.1 315.97 217.3 313.07 217.3 332.32 223.1 335.22"/><polygon class="cls-6" points="419.26 335.22 425.05 332.55 425.05 296.96 419.26 299.64 419.26 335.22"/><polygon class="cls-7" points="425.05 297.01 419.26 299.67 413.46 296.77 419.26 294.12 425.05 297.01"/><polygon class="cls-8" points="419.26 335.22 419.26 299.64 413.46 296.74 413.46 332.32 419.26 335.22"/><polygon class="cls-9" points="217.28 193.32 321.17 245.26 425.05 193.32 321.17 141.38 217.28 193.32"/><polygon class="cls-10" points="321.17 365.46 425.05 313.5 425.05 193.28 321.17 245.24 321.17 365.46"/><polygon class="cls-12" points="321.17 258.53 425.05 206.57 425.05 193.28 321.17 245.24 321.17 258.53"/><polygon class="cls-16" points="321.17 297.61 425.05 245.65 425.05 242.28 321.17 294.23 321.17 297.61"/><polygon class="cls-17" points="346.62 308.4 403.28 280.06 403.28 273.96 346.62 302.3 346.62 308.4"/><polygon class="cls-13" points="346.62 308.4 352.72 305.35 352.72 299.25 346.62 302.3 346.62 308.4"/><polygon class="cls-13" points="397.18 283.11 403.28 280.06 403.28 273.96 397.18 277.01 397.18 283.11"/><polygon class="cls-14" points="217.3 313.52 321.19 365.48 321.19 245.26 217.3 193.3 217.3 313.52"/><polygon class="cls-11" points="217.28 245.65 321.17 297.61 321.17 294.15 217.28 242.2 217.28 245.65"/><polygon class="cls-10" points="222.49 195.96 326.38 144.01 326.38 133.63 222.49 185.59 222.49 195.96"/><polygon class="cls-9" points="326.37 133.67 222.49 185.62 217.3 183.02 321.19 131.08 326.37 133.67"/><polygon class="cls-14" points="222.49 195.96 222.49 185.59 217.3 182.99 217.3 193.37 222.49 195.96"/><polygon class="cls-17" points="398.15 190.72 322.3 228.65 244.18 190.19 320.03 152.26 398.15 190.72"/><polygon class="cls-1" points="389.07 190.69 322.16 224.14 253.26 190.22 320.17 156.77 389.07 190.69"/><polygon class="cls-18" points="276.14 201.48 322.16 224.14 366.19 202.13 320.17 179.47 276.14 201.48"/><path class="cls-1" d="M291.66,170.37a2,2,0,0,1-2-2V125.19a35.81,35.81,0,0,1,2.37-13c4.06-10.45,10.07-11.79,14.39-11.07,5.66.94,10.3,7.13,13.78,18.4a105.37,105.37,0,0,1,3.5,15.91,2,2,0,0,1-3.88.5c-1-8.13-5.59-29.53-14-30.94-4.21-.7-7.61,2.2-10.1,8.62a31.91,31.91,0,0,0-2.1,11.6v43.2A2,2,0,0,1,291.66,170.37Z"/><path class="cls-19" d="M291,167.26c2.2,1.1,2.2,2.88,0,4a10,10,0,0,1-8,0c-2.2-1.1-2.2-2.88,0-4A10,10,0,0,1,291,167.26Z"/><rect class="cls-19" x="281.41" y="162.83" width="11.27" height="6.42"/><path class="cls-20" d="M291,160.83c2.2,1.1,2.2,2.88,0,4a10,10,0,0,1-8,0c-2.2-1.1-2.2-2.88,0-4A10,10,0,0,1,291,160.83Z"/><path class="cls-21" d="M460.31,104.27l3.24-1.62c3.24-1.62,3.24-4.27,0-5.89l-4.78-2.39a14.88,14.88,0,0,0-11.77,0L443.76,96l-2.82-1.41,6.06-3a14.88,14.88,0,0,1,11.77,0l10.41,5.21c3.24,1.62,3.24,4.27,0,5.89l-6.06,3Z"/><path class="cls-22" d="M460.31,103.23l3.24-1.62c3.24-1.62,3.24-4.27,0-5.89l-4.78-2.39a14.88,14.88,0,0,0-11.77,0L443.76,95l-2.82-1.41,6.06-3a14.87,14.87,0,0,1,11.77,0l10.41,5.21c3.24,1.62,3.24,4.27,0,5.89l-6.06,3Z"/><path class="cls-17" d="M408.27,141.36c-13.39,6.7-13.39,17.55,0,24.25s35.1,6.7,48.49,0,13.39-17.55,0-24.25S421.66,134.67,408.27,141.36Z"/><path class="cls-23" d="M408.27,140.51c-13.39,6.7-13.39,17.55,0,24.25s35.1,6.7,48.49,0,13.39-17.55,0-24.25S421.66,133.81,408.27,140.51Z"/><polygon class="cls-23" points="466.8 109.33 466.8 152.63 398.23 152.63 398.23 108.45 466.8 109.33"/><path class="cls-21" d="M404,115.08l-3.24,1.62c-3.24,1.62-3.24,4.27,0,5.89l4.78,2.39a14.88,14.88,0,0,0,11.77,0l3.24-1.62,2.82,1.41-6.06,3a14.88,14.88,0,0,1-11.77,0l-10.41-5.21c-3.24-1.62-3.24-5.41,0-7l6.06-1.89Z"/><path class="cls-22" d="M404,113.93l-3.24,1.62c-3.24,1.62-3.24,4.27,0,5.89l4.78,2.39a14.88,14.88,0,0,0,11.77,0l3.24-1.62,2.82,1.41-6.06,3a14.88,14.88,0,0,1-11.77,0l-10.41-5.21c-3.24-1.62-3.24-4.27,0-5.89l6.06-3Z"/><path class="cls-2" d="M461.55,123.31v29.32s-5.42,11.77-27.39,11.2C453.42,152.63,458,146.3,461.55,123.31Z"/><path class="cls-2" d="M408.27,96.33c-13.39,6.7-13.39,17.55,0,24.25s35.1,6.7,48.49,0,13.39-17.55,0-24.25S421.66,89.63,408.27,96.33Z"/><path class="cls-4" d="M409.88,97.13c-12.5,6.25-12.5,16.38,0,22.64s32.77,6.25,45.27,0,12.5-16.39,0-22.64S422.38,90.88,409.88,97.13Z"/><path class="cls-24" d="M409.88,108.88c12.5-6.25,32.77-6.25,45.27,0a20.82,20.82,0,0,1,7.15,5.45,20.82,20.82,0,0,1-7.15,5.45c-12.5,6.25-32.77,6.25-45.27,0a20.82,20.82,0,0,1-7.15-5.45A20.82,20.82,0,0,1,409.88,108.88Z"/><path class="cls-25" d="M431.46,116.26c-2.71,1.35-2.71,3.55,0,4.9a12.34,12.34,0,0,0,9.8,0c2.71-1.35,2.71-3.55,0-4.9A12.34,12.34,0,0,0,431.46,116.26Z"/><path class="cls-25" d="M415,110.6c-2.31,1.16-2.31,3,0,4.18a10.53,10.53,0,0,0,8.37,0c2.31-1.16,2.31-3,0-4.18A10.53,10.53,0,0,0,415,110.6Z"/><path class="cls-25" d="M436.44,109.21c-1.49.75-1.49,2,0,2.71a6.81,6.81,0,0,0,5.41,0c1.49-.75,1.49-2,0-2.71A6.82,6.82,0,0,0,436.44,109.21Z"/><polygon class="cls-6" points="217.3 436.17 223.09 433.5 223.09 414.25 217.3 416.92 217.3 436.17"/><polygon class="cls-7" points="223.09 414.3 217.3 416.96 211.5 414.06 217.3 411.4 223.09 414.3"/><polygon class="cls-8" points="217.3 436.17 217.3 416.92 211.5 414.02 211.5 433.27 217.3 436.17"/><polygon class="cls-6" points="119.23 387.16 125.03 384.49 125.03 365.24 119.23 367.91 119.23 387.16"/><polygon class="cls-7" points="125.02 365.29 119.23 367.95 113.43 365.05 119.23 362.39 125.02 365.29"/><polygon class="cls-8" points="119.23 387.16 119.23 367.91 113.43 365.01 113.43 384.26 119.23 387.16"/><polygon class="cls-6" points="315.39 387.16 321.19 384.49 321.19 348.9 315.39 351.58 315.39 387.16"/><polygon class="cls-7" points="321.19 348.95 315.39 351.61 309.59 348.71 315.39 346.06 321.19 348.95"/><polygon class="cls-8" points="315.39 387.16 315.39 351.58 309.59 348.68 309.59 384.26 315.39 387.16"/><polygon class="cls-9" points="113.41 245.26 217.3 297.2 321.19 245.26 217.3 193.32 113.41 245.26"/><polygon class="cls-10" points="217.3 417.4 321.19 365.44 321.19 245.22 217.3 297.18 217.3 417.4"/><polygon class="cls-12" points="217.3 310.47 321.19 258.51 321.19 245.22 217.3 297.18 217.3 310.47"/><polygon class="cls-16" points="217.3 349.55 321.19 297.59 321.19 294.22 217.3 346.17 217.3 349.55"/><polygon class="cls-17" points="242.76 360.34 299.41 332 299.41 325.9 242.76 354.24 242.76 360.34"/><polygon class="cls-13" points="242.76 360.34 248.85 357.29 248.85 351.19 242.76 354.24 242.76 360.34"/><polygon class="cls-13" points="293.31 335.05 299.41 332 299.41 325.9 293.31 328.95 293.31 335.05"/><polygon class="cls-14" points="113.43 365.46 217.32 417.42 217.32 297.2 113.43 245.24 113.43 365.46"/><polygon class="cls-11" points="113.41 297.59 217.3 349.55 217.3 346.09 113.41 294.14 113.41 297.59"/><polygon class="cls-10" points="118.62 247.9 222.51 195.95 222.51 185.57 118.62 237.53 118.62 247.9"/><polygon class="cls-9" points="222.51 185.61 118.62 237.56 113.43 234.97 217.32 183.02 222.51 185.61"/><polygon class="cls-14" points="118.62 247.9 118.62 237.53 113.43 234.93 113.43 245.31 118.62 247.9"/><path class="cls-17" d="M211.62,200.3c-10.16,5.08-10.16,13.32,0,18.4s26.64,5.08,36.8,0,10.16-13.32,0-18.4S221.79,195.22,211.62,200.3Z"/><path class="cls-23" d="M211.62,199.65c-10.16,5.08-10.16,13.32,0,18.4s26.64,5.08,36.8,0,10.16-13.32,0-18.4S221.79,194.57,211.62,199.65Z"/><polygon class="cls-23" points="256.05 175.98 256.05 208.85 204 208.85 204 175.32 256.05 175.98"/><path class="cls-2" d="M252.06,186.6v22.25s-4.11,8.93-20.79,8.5C245.89,208.85,249.35,204,252.06,186.6Z"/><path class="cls-2" d="M211.62,166.12c-10.16,5.08-10.16,13.32,0,18.4s26.64,5.08,36.8,0,10.16-13.32,0-18.4S221.79,161,211.62,166.12Z"/><path class="cls-4" d="M212.85,166.73c-9.49,4.74-9.49,12.43,0,17.18s24.87,4.74,34.36,0,9.49-12.43,0-17.18S222.33,162,212.85,166.73Z"/><path class="cls-3" d="M235.8,174.92v-4.63a2.72,2.72,0,0,0-2.71-2.71H225.2a2.72,2.72,0,0,0-2.71,2.71v4.63h-2.27V168a2.72,2.72,0,0,1,2.71-2.71h12.42a2.72,2.72,0,0,1,2.71,2.71v6.9Z"/><path class="cls-22" d="M235.8,175.64V171a2.72,2.72,0,0,0-2.71-2.71H225.2a2.72,2.72,0,0,0-2.71,2.71v4.63h-2.27v-6.9a2.72,2.72,0,0,1,2.71-2.71h12.42a2.72,2.72,0,0,1,2.71,2.71v6.9Z"/><path class="cls-26" d="M246,174.47s-3.36,5.63-12.34,6.71c-9.53.76-14.72-1.09-14.72-1.09s7.8,4.12,15.16,2.82S246,174.47,246,174.47Z"/><path class="cls-27" d="M540.63,311.52S542,330.8,539.5,332c-13.27-.25-13.14-1.75-13.14-1.75a5.09,5.09,0,0,0-2.25-2.76c-1.75-1-3.25,1.76-4.51,1.76s-13.64.25-20.8-3.1c-24.5-11.64-19.5-14.67-18-15.92s28.78-2,32.53-4.77S540.63,311.52,540.63,311.52Z"/><path class="cls-15" d="M546.5,176.46l3,130.46s-1.66,5.79-5.79,6.62-14.48.83-24.41,0-9.1-147.3-9.1-147.3Z"/><path class="cls-28" d="M517.82,336s1.38,19.28-1.13,20.53c-13.27-.25-13.14-1.75-13.14-1.75A5.09,5.09,0,0,0,501.3,352c-1.75-1-3.25,1.76-4.51,1.76s-13.64.25-20.8-3.1c-24.5-11.64-19.5-14.67-18-15.92s28.78-2,32.53-4.77S517.82,336,517.82,336Z"/><path class="cls-13" d="M531.29,186.51s-8.67,67-8.26,84.82,0,58.74,0,58.74,2.5,6.63-4.54,9.11-29.79-4.55-32.27-7.45c-.83-5,1.66-4.14,1.66-4.14,2.9-5.38-6.88-129.1-6.88-129.1Z"/><path class="cls-29" d="M540,147.74l17.82,50.36-4.75,6-4.6-11.93,2.12,14.2s-10.33,13.95-27.12,17-44.42-2.07-44.42-2.07l-1.22-62.75Z"/><polygon class="cls-30" points="472.61 61.23 485.35 69.41 501.7 55.01 496.11 47.28 472.09 50.47 472.61 61.23"/><path class="cls-31" d="M453.24,39.47a62.06,62.06,0,0,0,4.48,15.73c3.44,7.58,10.67,16.87,10.67,16.87s2.47,3.16,9.13-4.78c6.8-8.11,7.62-11.66,6.59-16.14S479,41.77,473,37.89C470.22,36.13,463.91,32.69,453.24,39.47Z"/><path class="cls-32" d="M453.75,42.48c-.7,1.79,13,11.61,15.1,10.3.43-2.07,1.42-5.72,2.28-6s4.17-1.12,4.52,3.62-.34,6.07-.34,6.07,7.3.52,9.16-.27a32.25,32.25,0,0,0,7.16-4.28c4-3.27,4.48-4.65,4.48-4.65l-2.41-6.54S488.6,24,475,22.49C462.88,21.11,450.48,29.48,453.75,42.48Z"/><path class="cls-4" d="M449.54,2.6l2.93,38.57a156.83,156.83,0,0,0,19.63,2.41c8.26.26,22.2-4.72,22.2-4.72L490.17,0S463.4-.32,449.54,2.6Z"/><path class="cls-29" d="M452,29.21s15.64,4.39,32.08,1.72c7-1.13,9-4.12,9-4.12l1.28,12c.57,2.93-25.33,11.28-41.83,2.31C451.55,29.12,452,29.21,452,29.21Z"/><path class="cls-33" d="M501.7,55s22,3.89,30,20.16,11.83,56.66,16.73,66.21c-3.92,12.53-12.09,16.77-18.2,20.48,0,0-5.51,6-30,4.22s-23.18-2.22-25.53-30c-1.49-17.56-2.66-35.9-2.66-35.9a38.23,38.23,0,0,1,13.3-30.82Z"/><path class="cls-31" d="M462.66,130.7l-16-9.47s-3.87-8.26-7.23-8.52-11.62,1.81-12.14,5,5,10.2,8.44,12.52,17.91,9.93,26.88,19.28S462.66,130.7,462.66,130.7Z"/><path class="cls-13" d="M483.84,79c7.62-4.65,18.85-.26,17.82,17s-20.7,65.76-23.29,64.85c-18.15-12.13-27.78-18-27.78-18s-3.1-13.95,0-16.79a13.45,13.45,0,0,1,5.42-3.36l17.24,11.54a110.29,110.29,0,0,1,2.32-33.57C479.71,82.41,483.84,79,483.84,79Z"/><path class="cls-13" d="M485.35,69.41V63s9.33-5,15.19-13.19c2.93,7.38,4.1,5.85,4.1,5.85s-3.36,2.43-7,5.27S485.35,69.41,485.35,69.41Z"/><path class="cls-4" d="M470.37.41c-5.26.39-20.83,2.2-20.83,2.2s13.17.86,20.83.52S490.17,0,490.17,0,472.54.24,470.37.41Z"/><polygon class="cls-34" points="253.96 125.34 23.11 243.26 23.12 236.82 253.97 118.9 253.96 125.34"/><polygon class="cls-4" points="253.96 118.88 23.11 236.79 0 225.19 230.85 107.27 253.96 118.88"/><polygon class="cls-35" points="0 231.65 0.01 225.22 23.12 236.82 23.11 243.26 0 231.65"/><path class="cls-36" d="M145.65,164.48h0l-.4-26.2c-.18-2.81-4.13-16.25-4.13-16.25l-6.95.11s-3.68,13-3.63,16.36l.41,26.73H131a3.69,3.69,0,0,0,2.1,2,13.09,13.09,0,0,0,10.4-.16,3.69,3.69,0,0,0,2-2.1h.09Z"/><path class="cls-37" d="M141.07,118.77l-6.95.11v3.27h0a1.67,1.67,0,0,0,1,1,6.19,6.19,0,0,0,4.91-.08,1.66,1.66,0,0,0,1-1.07h0Z"/><path class="cls-38" d="M140,117.65a6.18,6.18,0,0,0-4.91.07c-1.35.7-1.33,1.8,0,2.46a6.19,6.19,0,0,0,4.91-.07C141.42,119.41,141.41,118.31,140,117.65Z"/><path class="cls-39" d="M145.54,157.64,145.31,142c0,.94-.69,1.89-2.11,2.63a13.09,13.09,0,0,1-10.4.16c-1.45-.7-2.18-1.63-2.19-2.57l.24,15.67h0c0,.94.75,1.87,2.19,2.57a13.09,13.09,0,0,0,10.4-.16C144.86,159.54,145.56,158.58,145.54,157.64Z"/><polygon class="cls-40" points="190.23 132.45 189.24 145.36 179.5 136.82 180.5 123.9 190.23 132.45"/><polygon class="cls-41" points="217.31 108.91 227.05 117.46 190.24 132.45 180.5 123.9 217.31 108.91"/><polygon class="cls-42" points="204.83 115.98 211.48 121.81 210.61 122.17 203.96 116.33 204.83 115.98"/><polygon class="cls-42" points="206.76 115.19 213.41 121.03 212.54 121.38 205.89 115.54 206.76 115.19"/><polygon class="cls-42" points="208.68 114.41 215.33 120.24 214.46 120.6 207.81 114.76 208.68 114.41"/><polygon class="cls-42" points="210.61 113.62 217.26 119.46 216.39 119.81 209.74 113.98 210.61 113.62"/><polygon class="cls-42" points="212.54 112.84 219.19 118.68 218.32 119.03 211.67 113.19 212.54 112.84"/><polygon class="cls-42" points="214.47 112.05 221.12 117.89 220.25 118.24 213.6 112.41 214.47 112.05"/><polygon class="cls-43" points="227.05 117.46 226.05 130.38 189.24 145.36 190.24 132.45 227.05 117.46"/><polygon class="cls-40" points="219.48 122.45 218.8 131.27 196.75 140.24 197.43 131.42 219.48 122.45"/><rect class="cls-44" x="182.21" y="131.98" width="2.96" height="6.28" transform="translate(-37.39 79.23) rotate(-22.15)"/><path class="cls-44" d="M183,133a5.59,5.59,0,0,0,1.68,4.11,2.55,2.55,0,0,0,.38.28c.87.52,1.58.08,1.68-1.12a5.59,5.59,0,0,0-1.68-4.11c-.91-.8-1.74-.6-2,.41A2.6,2.6,0,0,0,183,133Z"/><path class="cls-45" d="M180.52,134a5.59,5.59,0,0,0,1.68,4.11c1,.91,2,.53,2.06-.84a5.59,5.59,0,0,0-1.68-4.11C181.54,132.26,180.62,132.64,180.52,134Z"/><path class="cls-46" d="M151.62,122.52v32.22h.1a4.44,4.44,0,0,0,2.49,2.49,15.78,15.78,0,0,0,12.53,0,4.44,4.44,0,0,0,2.49-2.49h.1V122.52Z"/><path class="cls-47" d="M166.74,119.57a15.78,15.78,0,0,0-12.53,0c-3.46,1.73-3.46,4.54,0,6.27a15.77,15.77,0,0,0,12.53,0C170.2,124.11,170.2,121.31,166.74,119.57Z"/><path class="cls-47" d="M169.34,149.67h0v-21.4c0,1.13-.87,2.27-2.6,3.13a15.78,15.78,0,0,1-12.53,0c-1.73-.87-2.6-2-2.6-3.13v21.9h.06a4.3,4.3,0,0,0,2.53,2.64,15.78,15.78,0,0,0,12.53,0,4.3,4.3,0,0,0,2.53-2.64h.06Z"/><path class="cls-46" d="M76.74,161.17v32.22h.1a4.44,4.44,0,0,0,2.49,2.49,15.77,15.77,0,0,0,12.53,0,4.44,4.44,0,0,0,2.49-2.49h.1V161.17Z"/><path class="cls-47" d="M91.87,158.23a15.77,15.77,0,0,0-12.53,0c-3.46,1.73-3.46,4.54,0,6.27a15.78,15.78,0,0,0,12.53,0C95.33,162.77,95.33,160,91.87,158.23Z"/><path class="cls-47" d="M94.46,188.33h0v-21.4c0,1.13-.87,2.27-2.6,3.13a15.77,15.77,0,0,1-12.53,0c-1.73-.87-2.6-2-2.6-3.13v21.9h.06a4.3,4.3,0,0,0,2.53,2.64,15.77,15.77,0,0,0,12.53,0,4.3,4.3,0,0,0,2.53-2.64h.06Z"/><path class="cls-46" d="M57.69,181.08V206.9h.08a3.56,3.56,0,0,0,2,2,12.64,12.64,0,0,0,10,0,3.56,3.56,0,0,0,2-2h.08V181.08Z"/><path class="cls-47" d="M69.81,178.73a12.64,12.64,0,0,0-10,0c-2.77,1.39-2.77,3.63,0,5a12.64,12.64,0,0,0,10,0C72.58,182.36,72.58,180.11,69.81,178.73Z"/><path class="cls-47" d="M71.89,202.84h0V185.69c0,.91-.69,1.82-2.08,2.51a12.64,12.64,0,0,1-10,0c-1.39-.69-2.08-1.6-2.08-2.51v17.54h0a3.45,3.45,0,0,0,2,2.11,12.64,12.64,0,0,0,10,0,3.45,3.45,0,0,0,2-2.11h0Z"/><path class="cls-46" d="M40.42,196.55v20.82h.07A2.87,2.87,0,0,0,42.1,219a10.19,10.19,0,0,0,8.1,0,2.87,2.87,0,0,0,1.61-1.61h.07V196.55Z"/><path class="cls-47" d="M50.19,194.65a10.19,10.19,0,0,0-8.1,0c-2.24,1.12-2.24,2.93,0,4a10.19,10.19,0,0,0,8.1,0C52.43,197.58,52.43,195.77,50.19,194.65Z"/><path class="cls-47" d="M51.87,214.1h0V200.27c0,.73-.56,1.47-1.68,2a10.19,10.19,0,0,1-8.1,0c-1.12-.56-1.68-1.29-1.68-2v14.15h0a2.78,2.78,0,0,0,1.64,1.7,10.19,10.19,0,0,0,8.1,0,2.78,2.78,0,0,0,1.64-1.7h0Z"/><path class="cls-5" d="M101.82,172.73c-5.59,2.79-5.59,7.32,0,10.12s14.65,2.79,20.24,0,5.59-7.32,0-10.12S107.41,169.93,101.82,172.73Z"/><polygon class="cls-48" points="125.2 170.18 122.23 177.79 99.65 177.79 96.95 171.02 125.2 170.18"/><path class="cls-49" d="M106.2,158c-2.62,1.31-2.62,3.43,0,4.74a11.94,11.94,0,0,0,9.49,0c2.62-1.31,2.62-3.43,0-4.74A11.94,11.94,0,0,0,106.2,158Z"/><path class="cls-48" d="M102.83,172.7c-4.48,2.24-4.48,5.87,0,8.11a20.43,20.43,0,0,0,16.23,0c4.48-2.24,4.48-5.87,0-8.11A20.43,20.43,0,0,0,102.83,172.7Z"/><path class="cls-50" d="M98.91,165.54h0a11.06,11.06,0,0,1,1.27-.82c1.58-1.08,4.06-3,4-4.34,0-2-2.68-5.94-2.68-5.94l19-.35s-2.8,4.33-2.86,6.29c0,1.46,2.74,3.48,4.17,4.42l.66.42.17.1h0c4,2.8,3.46,6.7-1.55,9.21-5.6,2.8-14.68,2.8-20.28,0C95.93,172.07,95.3,168.32,98.91,165.54Z"/><path class="cls-51" d="M104,149.6c-3.82,1.91-3.82,5,0,6.92a17.41,17.41,0,0,0,13.83,0c3.82-1.91,3.82-5,0-6.92A17.41,17.41,0,0,0,104,149.6Z"/><path class="cls-52" d="M105,150.1c-3.26,1.63-3.26,4.28,0,5.91a14.89,14.89,0,0,0,11.82,0c3.26-1.63,3.26-4.28,0-5.91A14.88,14.88,0,0,0,105,150.1Z"/><polygon class="cls-34" points="253.96 55.1 23.11 173.02 23.12 166.59 253.97 48.66 253.96 55.1"/><polygon class="cls-4" points="253.96 48.64 23.11 166.56 0 154.95 230.85 37.03 253.96 48.64"/><polygon class="cls-35" points="0 161.42 0.01 154.98 23.12 166.59 23.11 173.02 0 161.42"/><polygon class="cls-53" points="208.21 30.06 234.98 16.68 224.98 11.68 198.21 25.06 208.21 30.06"/><polygon class="cls-54" points="198.21 60.96 208.21 65.96 208.21 30.09 198.21 25.09 198.21 60.96"/><polygon class="cls-55" points="208.21 65.96 234.98 52.58 234.98 16.71 208.21 30.09 208.21 65.96"/><polygon class="cls-54" points="211.17 48.59 232.32 38.01 232.32 21.77 211.17 32.34 211.17 48.59"/><polygon class="cls-56" points="178.66 50.46 201.98 38.8 193.27 34.44 169.95 46.1 178.66 50.46"/><polygon class="cls-57" points="169.95 77.37 178.66 81.73 178.66 50.48 169.95 46.12 169.95 77.37"/><polygon class="cls-58" points="178.66 81.73 201.98 70.07 201.98 38.82 178.66 50.48 178.66 81.73"/><polygon class="cls-57" points="181.24 66.59 199.66 57.38 199.66 43.23 181.24 52.45 181.24 66.59"/><polygon class="cls-59" points="153.69 64.35 177 52.69 168.29 48.34 144.97 59.99 153.69 64.35"/><polygon class="cls-60" points="144.97 91.27 153.69 95.63 153.69 64.38 144.97 60.02 144.97 91.27"/><polygon class="cls-61" points="153.69 95.63 177 83.97 177 52.71 153.69 64.38 153.69 95.63"/><polygon class="cls-60" points="156.26 80.49 174.69 71.28 174.69 57.12 156.26 66.34 156.26 80.49"/><polygon class="cls-62" points="121.58 81.53 143.25 70.7 135.15 66.65 113.49 77.48 121.58 81.53"/><polygon class="cls-63" points="113.49 106.54 121.58 110.59 121.58 81.56 113.49 77.51 113.49 106.54"/><polygon class="cls-64" points="121.58 110.59 143.25 99.76 143.25 70.72 121.58 81.56 121.58 110.59"/><polygon class="cls-63" points="123.97 96.53 141.09 87.96 141.09 74.82 123.97 83.38 123.97 96.53"/><polygon class="cls-56" points="85.6 96.75 111.43 83.84 101.78 79.01 75.95 91.93 85.6 96.75"/><polygon class="cls-57" points="75.95 126.56 85.6 131.39 85.6 96.78 75.95 91.95 75.95 126.56"/><polygon class="cls-58" points="85.6 131.39 111.43 118.48 111.43 83.87 85.6 96.78 85.6 131.39"/><polygon class="cls-57" points="88.45 114.62 108.86 104.42 108.86 88.75 88.45 98.95 88.45 114.62"/><path class="cls-5" d="M49,132.66c-5.59,2.79-5.59,7.32,0,10.12s14.65,2.79,20.24,0,5.59-7.32,0-10.12S54.55,129.86,49,132.66Z"/><polygon class="cls-65" points="72.34 130.11 69.37 137.72 46.79 137.72 44.1 130.95 72.34 130.11"/><path class="cls-66" d="M53.34,117.92c-2.62,1.31-2.62,3.43,0,4.74a11.94,11.94,0,0,0,9.49,0c2.62-1.31,2.62-3.43,0-4.74A11.94,11.94,0,0,0,53.34,117.92Z"/><path class="cls-65" d="M50,132.63c-4.48,2.24-4.48,5.87,0,8.11a20.43,20.43,0,0,0,16.23,0c4.48-2.24,4.48-5.87,0-8.11A20.43,20.43,0,0,0,50,132.63Z"/><path class="cls-67" d="M46.06,125.47h0a11.1,11.1,0,0,1,1.27-.82c1.58-1.08,4.06-3,4-4.34,0-2-2.68-5.94-2.68-5.94l19-.35s-2.8,4.33-2.86,6.29c0,1.46,2.74,3.48,4.17,4.42l.66.42.17.1h0c4,2.8,3.46,6.7-1.55,9.21-5.6,2.8-14.68,2.8-20.28,0C43.07,132,42.44,128.25,46.06,125.47Z"/><path class="cls-68" d="M51.17,109.53c-3.82,1.91-3.82,5,0,6.92a17.41,17.41,0,0,0,13.83,0c3.82-1.91,3.82-5,0-6.92A17.41,17.41,0,0,0,51.17,109.53Z"/><path class="cls-69" d="M52.17,110c-3.26,1.63-3.26,4.28,0,5.91a14.88,14.88,0,0,0,11.82,0c3.26-1.63,3.26-4.28,0-5.91A14.89,14.89,0,0,0,52.17,110Z"/><polygon class="cls-6" points="113.41 488.08 119.21 485.41 119.21 466.16 113.41 468.83 113.41 488.08"/><polygon class="cls-7" points="119.2 466.21 113.41 468.87 107.61 465.97 113.41 463.31 119.2 466.21"/><polygon class="cls-8" points="113.41 488.08 113.41 468.83 107.61 465.94 107.61 485.18 113.41 488.08"/><polygon class="cls-6" points="15.34 439.07 21.14 436.4 21.14 417.15 15.34 419.82 15.34 439.07"/><polygon class="cls-7" points="21.14 417.2 15.34 419.86 9.54 416.96 15.34 414.3 21.14 417.2"/><polygon class="cls-8" points="15.34 439.07 15.34 419.82 9.54 416.92 9.54 436.17 15.34 439.07"/><polygon class="cls-6" points="211.5 439.07 217.3 436.4 217.3 400.82 211.5 403.49 211.5 439.07"/><polygon class="cls-7" points="217.3 400.87 211.5 403.52 205.71 400.63 211.5 397.97 217.3 400.87"/><polygon class="cls-8" points="211.5 439.07 211.5 403.49 205.71 400.59 205.71 436.17 211.5 439.07"/><polygon class="cls-9" points="9.52 297.17 113.41 349.11 217.3 297.17 113.41 245.23 9.52 297.17"/><polygon class="cls-10" points="113.41 469.31 217.3 417.36 217.3 297.13 113.41 349.09 113.41 469.31"/><polygon class="cls-12" points="113.41 362.38 217.3 310.43 217.3 297.13 113.41 349.09 113.41 362.38"/><polygon class="cls-16" points="113.41 401.46 217.3 349.5 217.3 346.13 113.41 398.08 113.41 401.46"/><polygon class="cls-17" points="138.87 412.25 195.53 383.91 195.53 377.82 138.87 406.15 138.87 412.25"/><polygon class="cls-13" points="138.87 412.25 144.97 409.2 144.97 403.1 138.87 406.15 138.87 412.25"/><polygon class="cls-13" points="189.43 386.96 195.53 383.91 195.53 377.82 189.43 380.87 189.43 386.96"/><polygon class="cls-14" points="9.54 417.38 113.43 469.33 113.43 349.11 9.54 297.15 9.54 417.38"/><polygon class="cls-11" points="9.52 349.5 113.41 401.46 113.41 398.01 9.52 346.05 9.52 349.5"/><polygon class="cls-10" points="14.73 299.81 118.62 247.86 118.62 237.48 14.73 289.44 14.73 299.81"/><polygon class="cls-9" points="118.62 237.53 14.73 289.47 9.54 286.88 113.43 234.93 118.62 237.53"/><polygon class="cls-14" points="14.73 299.81 14.73 289.44 9.54 286.84 9.54 297.22 14.73 299.81"/><path class="cls-70" d="M184.94,296.73l-72.16,36.08a10.27,10.27,0,0,1-8.13,0L52,306.46a3.55,3.55,0,0,1,0-6l72.16-34.11a10.27,10.27,0,0,1,8.13,0L185.55,291C187.78,292.17,187.18,295.61,184.94,296.73Z"/><path class="cls-71" d="M184.94,294.76l-72.16,36.08a10.27,10.27,0,0,1-8.13,0L52,304.49c-2.24-1.12-2.24-3,0-4.06l72.16-36.08a10.27,10.27,0,0,1,8.13,0L185,290.7C187.18,291.81,187.18,293.64,184.94,294.76Z"/><path class="cls-72" d="M44.44,299.37h0l-.4-26.2c-.18-2.81-4.13-16.25-4.13-16.25L33,257s-3.68,13-3.63,16.36l.41,26.73h.08a3.69,3.69,0,0,0,2.1,2,13.09,13.09,0,0,0,10.4-.16,3.69,3.69,0,0,0,2-2.1h.08Z"/><path class="cls-73" d="M39.86,253.66l-7,.11L33,257h0a1.67,1.67,0,0,0,1,1,6.19,6.19,0,0,0,4.91-.07,1.66,1.66,0,0,0,1-1.07h0Z"/><path class="cls-74" d="M38.83,252.54a6.19,6.19,0,0,0-4.91.07c-1.35.7-1.33,1.8,0,2.46a6.19,6.19,0,0,0,4.91-.07C40.21,254.3,40.19,253.2,38.83,252.54Z"/><path class="cls-75" d="M44.33,292.53l-.24-15.67c0,.94-.69,1.89-2.11,2.63a13.09,13.09,0,0,1-10.4.16c-1.45-.7-2.18-1.63-2.19-2.57l.24,15.67h0c0,.94.75,1.87,2.19,2.57a13.09,13.09,0,0,0,10.4-.16C43.64,294.43,44.35,293.47,44.33,292.53Z"/><polygon class="cls-76" points="93.72 265.58 92.73 278.5 82.99 269.95 83.99 257.03 93.72 265.58"/><polygon class="cls-77" points="120.8 242.05 130.54 250.6 93.73 265.58 83.99 257.03 120.8 242.05"/><polygon class="cls-78" points="108.32 249.11 114.97 254.95 114.1 255.3 107.45 249.47 108.32 249.11"/><polygon class="cls-78" points="110.25 248.33 116.9 254.17 116.03 254.52 109.38 248.68 110.25 248.33"/><polygon class="cls-78" points="112.17 247.54 118.83 253.38 117.96 253.74 111.31 247.9 112.17 247.54"/><polygon class="cls-78" points="114.1 246.76 120.75 252.6 119.88 252.95 113.23 247.11 114.1 246.76"/><polygon class="cls-78" points="116.03 245.98 122.68 251.81 121.81 252.17 115.16 246.33 116.03 245.98"/><polygon class="cls-78" points="117.96 245.19 124.61 251.03 123.74 251.38 117.09 245.54 117.96 245.19"/><polygon class="cls-79" points="130.54 250.6 129.54 263.52 92.73 278.5 93.73 265.58 130.54 250.6"/><polygon class="cls-76" points="122.97 255.58 122.29 264.41 100.24 273.38 100.92 264.56 122.97 255.58"/><rect class="cls-44" x="85.69" y="265.11" width="2.96" height="6.28" transform="translate(-94.71 52.66) rotate(-22.15)"/><path class="cls-44" d="M86.52,266.12a5.59,5.59,0,0,0,1.68,4.12,2.6,2.6,0,0,0,.38.28c.87.52,1.59.08,1.68-1.12a5.59,5.59,0,0,0-1.68-4.11c-.91-.8-1.74-.6-2,.41A2.64,2.64,0,0,0,86.52,266.12Z"/><path class="cls-80" d="M84,267.14a5.59,5.59,0,0,0,1.68,4.12c1,.9,2,.53,2.06-.84a5.59,5.59,0,0,0-1.68-4.11C85,265.4,84.12,265.77,84,267.14Z"/><path class="cls-81" d="M50.41,257.41v32.22h.1A4.45,4.45,0,0,0,53,292.12a15.78,15.78,0,0,0,12.53,0A4.45,4.45,0,0,0,68,289.63h.1V257.41Z"/><path class="cls-82" d="M65.53,254.46a15.78,15.78,0,0,0-12.53,0c-3.46,1.73-3.46,4.54,0,6.27a15.78,15.78,0,0,0,12.53,0C69,259,69,256.2,65.53,254.46Z"/><path class="cls-82" d="M68.13,284.56h0v-21.4c0,1.13-.87,2.27-2.6,3.13a15.78,15.78,0,0,1-12.53,0c-1.73-.87-2.6-2-2.6-3.13V285h.06A4.3,4.3,0,0,0,53,287.69a15.77,15.77,0,0,0,12.53,0A4.3,4.3,0,0,0,68.07,285h.06Z"/><polygon class="cls-83" points="150.05 270.91 176.55 277.33 178.89 283.2 152.78 273.82 150.05 270.91"/><polygon class="cls-83" points="152.05 274.47 182.23 286.22 181.21 294.07 153.27 277.99 152.05 274.47"/><polygon class="cls-83" points="151.07 278.16 177.16 296.76 169.41 299.52 148.4 280.11 151.07 278.16"/><circle class="cls-84" cx="112.45" cy="278.94" r="12.83" transform="translate(-60.08 32.59) rotate(-13.05)"/><circle class="cls-84" cx="113.01" cy="260.31" r="12.83" transform="translate(-55.86 32.24) rotate(-13.05)"/><circle class="cls-84" cx="129.75" cy="269.2" r="12.83" transform="translate(-57.43 36.25) rotate(-13.05)"/><circle class="cls-85" cx="119.1" cy="283.24" r="12.83" transform="translate(-60.88 34.21) rotate(-13.05)"/><circle class="cls-85" cx="119.66" cy="264.62" r="12.83" transform="translate(-56.66 33.85) rotate(-13.05)"/><circle class="cls-85" cx="136.4" cy="273.5" r="12.83" transform="translate(-58.23 37.86) rotate(-13.05)"/><circle class="cls-86" cx="143.54" cy="268.33" r="12.83" transform="translate(-56.88 39.34) rotate(-13.05)"/><circle class="cls-86" cx="131.25" cy="278.89" r="8.74" transform="translate(-59.58 36.84) rotate(-13.05)"/><circle class="cls-86" cx="139.78" cy="288.08" r="8.74" transform="translate(-61.44 39) rotate(-13.05)"/><circle class="cls-86" cx="146.63" cy="281.65" r="8.74" transform="translate(-59.81 40.38) rotate(-13.05)"/><circle class="cls-86" cx="129.59" cy="289.79" r="8.74" transform="translate(-62.09 36.74) rotate(-13.05)"/><circle class="cls-85" cx="131.68" cy="256.81" r="12.83" transform="translate(-54.59 36.37) rotate(-13.05)"/><path class="cls-84" d="M130.47,254.48a10.27,10.27,0,0,0-7.93,10.6,10.27,10.27,0,1,1,19.72-4.57A10.27,10.27,0,0,0,130.47,254.48Z"/><circle class="cls-85" cx="132.75" cy="278.54" r="12.83" transform="translate(-59.47 37.17) rotate(-13.05)"/><circle class="cls-85" cx="141.9" cy="270.63" r="10.18" transform="translate(-57.44 39.03) rotate(-13.05)"/><path class="cls-84" d="M129,284.87a8.07,8.07,0,0,0,9.6-4,8.07,8.07,0,1,1-15.19-4.74A8.07,8.07,0,0,0,129,284.87Z"/><polygon class="cls-86" points="151.78 270.24 178.28 276.66 178.34 281.86 152.23 272.47 151.78 270.24"/><polygon class="cls-86" points="153.78 273.8 183.96 285.55 180.96 293.05 153.02 276.97 153.78 273.8"/><polygon class="cls-86" points="152.8 277.49 178.89 296.09 171.14 298.86 150.13 279.44 152.8 277.49"/><polygon class="cls-85" points="150.73 270.91 174.06 277.06 174.06 283.43 150.05 273.8 150.73 270.91"/><polygon class="cls-85" points="149.42 275.76 175.56 288.84 171.96 293.05 147.32 277.49 149.42 275.76"/><path class="cls-87" d="M100.09,285.46l-.63.31L72.54,299.23l-5.84-2.92s12.85-5.67,19.93-7.56C92.14,287.28,98,285.43,100,285,100.52,284.85,100.09,285.46,100.09,285.46Z"/><polygon class="cls-88" points="72.54 299.23 58.93 306.04 54.88 304.01 68.49 297.21 72.54 299.23"/><path class="cls-10" d="M100.09,285,72.54,298.75l-5.84-2.92s12.85-5.67,19.93-7.56S100.09,285,100.09,285Z"/><polygon class="cls-89" points="72.54 298.75 58.93 305.56 54.88 303.53 68.49 296.73 72.54 298.75"/><rect class="cls-90" x="149.36" y="290.07" width="0.36" height="2.36" transform="translate(-170.25 361.43) rotate(-75.2)"/><path class="cls-91" d="M145.21,292c-3.19-1.52-5.32-5.65-4.93-5s4.2,0,7,.71a2.61,2.61,0,0,1,2,3.54C148.46,292.89,146.38,292.62,145.21,292Z"/><path class="cls-92" d="M150.59,290.2l-.16,3.41.91.22s-.1-2.79.8-3.75S150.59,290.2,150.59,290.2Z"/><path class="cls-93" d="M159.84,299c-.37-4.71-4.75-8-8.89-5.86-4.64-1.21-8.55,2.5-8.17,7.21s4.53,8.69,9.24,8.32S160.22,303.74,159.84,299Z"/><path class="cls-94" d="M587.79,408.77l128.33,64.17c12.73,6.37,33.38,6.37,46.11,0l70.51-35.25c12.73-6.37,12.73-16.69,0-23.06L704.41,350.46c-12.73-6.37-33.38-6.37-46.11,0l-70.51,35.25C575,392.08,575,402.41,587.79,408.77Z"/><path class="cls-19" d="M775.85,417.66c0,4.94,4,11,8.94,13.42s8.94.47,8.94-4.47-4-11-8.94-13.42S775.85,412.72,775.85,417.66Z"/><polygon class="cls-19" points="788.41 433.05 791.4 431.47 792.52 422.25 786.02 414.85 778.82 412.45 774.93 414.49 784.96 418.4 788.15 422.72 789.1 429.47 788.41 433.05"/><path class="cls-12" d="M772.59,419.39c0,4.94,4,11,8.94,13.42s8.94.47,8.94-4.47-4-11-8.94-13.42S772.59,414.45,772.59,419.39Z"/><path class="cls-26" d="M774.93,420.56c0,3.65,3,8.09,6.61,9.92s6.61.35,6.61-3.3-3-8.09-6.61-9.92S774.93,416.9,774.93,420.56Z"/><path class="cls-19" d="M705.35,382.73c0,4.58,3.71,10.14,8.29,12.43s8.29.43,8.29-4.14-3.71-10.14-8.29-12.43S705.35,378.15,705.35,382.73Z"/><polygon class="cls-19" points="716.99 396.98 719.76 395.51 720.79 386.97 714.77 380.12 708.1 377.9 704.5 379.79 713.79 383.41 716.74 387.41 717.63 393.66 716.99 396.98"/><path class="cls-12" d="M702.34,384.32c0,4.58,3.71,10.14,8.29,12.43s8.29.43,8.29-4.14-3.71-10.14-8.29-12.43S702.34,379.75,702.34,384.32Z"/><path class="cls-26" d="M704.5,385.4c0,3.38,2.74,7.5,6.12,9.19s6.12.32,6.12-3.06-2.74-7.5-6.12-9.19S704.5,382,704.5,385.4Z"/><path class="cls-95" d="M691.4,347V212.84c0-9.92,8.07-14,18-9L809,253.69c9.92,5,18,17.06,18,27V414.81c0,9.92-8.07,14-18,9L709.34,374C699.47,369,691.4,356.89,691.4,347Zm18-137.51c-6.82-3.41-12.37-.64-12.37,6.18v134.1c0,6.82,5.55,15.14,12.37,18.55L809,418.18c6.82,3.41,12.37.64,12.37-6.18V277.86c0-6.82-5.55-15.14-12.37-18.55Z"/><path class="cls-29" d="M688.59,349.22V215.08c0-9.92,8.07-14,18-9l99.66,49.84c9.92,5,18,17.06,18,27V417c0,9.92-8.07,14-18,9l-99.66-49.84C696.66,371.24,688.59,359.14,688.59,349.22Zm18-137.51c-6.82-3.41-12.37-.64-12.37,6.18V352c0,6.82,5.55,15.14,12.37,18.55l99.66,49.84c6.82,3.41,12.37.64,12.37-6.18V280.11c0-6.82-5.55-15.14-12.37-18.55Z"/><polygon class="cls-9" points="666.63 213.37 840.57 300.14 840.57 297.02 666.63 210.25 666.63 213.37"/><path class="cls-19" d="M703.81,452.64c0,4.94,4,11,8.94,13.42s8.94.47,8.94-4.47-4-11-8.94-13.42S703.81,447.7,703.81,452.64Z"/><polygon class="cls-19" points="716.38 468.03 719.37 466.44 720.48 457.22 713.99 449.82 706.78 447.42 702.89 449.47 712.92 453.37 716.11 457.69 717.06 464.44 716.38 468.03"/><path class="cls-12" d="M700.56,454.36c0,4.94,4,11,8.94,13.42s8.94.47,8.94-4.47-4-11-8.94-13.42S700.56,449.42,700.56,454.36Z"/><path class="cls-26" d="M702.89,455.53c0,3.65,3,8.09,6.61,9.92s6.61.35,6.61-3.3-3-8.09-6.61-9.92S702.89,451.88,702.89,455.53Z"/><polygon class="cls-96" points="594.59 248.34 768.53 335.11 768.53 332 594.59 245.23 594.59 248.34"/><polygon class="cls-95" points="840.57 297.02 768.53 332 594.59 245.23 666.63 210.25 840.57 297.02"/><polygon class="cls-97" points="840.57 297.02 768.53 332 768.53 335.11 840.57 300.14 840.57 297.02"/><path class="cls-23" d="M726.85,266.94c-15.55,7.77-15.55,20.38,0,28.15s40.76,7.77,56.31,0,15.55-20.38,0-28.15S742.4,259.16,726.85,266.94Z"/><path class="cls-98" d="M726.85,265.57c-15.55,7.77-15.55,20.38,0,28.15s40.76,7.77,56.31,0,15.55-20.38,0-28.15S742.4,257.8,726.85,265.57Z"/><path class="cls-99" d="M735.56,270.71c-10.74,5.37-10.74,14.07,0,19.44s28.14,5.37,38.88,0,10.74-14.07,0-19.44S746.3,265.34,735.56,270.71Z"/><path class="cls-26" d="M734.08,269c-11.56,5.78-11.56,15.14,0,20.92s30.29,5.78,41.85,0,11.56-15.14,0-20.92S745.63,263.17,734.08,269Z"/><path class="cls-100" d="M734.08,269c-11.56,5.78-11.56,15.14,0,20.92s30.29,5.78,41.85,0,11.56-15.14,0-20.92S745.63,263.17,734.08,269Z"/><path class="cls-99" d="M735.56,270.71c-10.74,5.37-10.74,14.07,0,19.44s28.14,5.37,38.88,0,10.74-14.07,0-19.44S746.3,265.34,735.56,270.71Z"/><path class="cls-23" d="M726.85,263c-15.55,7.77-15.55,20.38,0,28.15s40.76,7.77,56.31,0,15.55-20.38,0-28.15S742.4,255.25,726.85,263Z"/><path class="cls-98" d="M726.85,261.66c-15.55,7.77-15.55,20.38,0,28.15s40.76,7.77,56.31,0,15.55-20.38,0-28.15S742.4,253.89,726.85,261.66Z"/><path class="cls-99" d="M735.56,266.8c-10.74,5.37-10.74,14.07,0,19.44s28.14,5.37,38.88,0,10.74-14.07,0-19.44S746.3,261.43,735.56,266.8Z"/><path class="cls-26" d="M734.08,265c-11.56,5.78-11.56,15.14,0,20.92s30.29,5.78,41.85,0,11.56-15.14,0-20.92S745.63,259.26,734.08,265Z"/><path class="cls-100" d="M734.08,265c-11.56,5.78-11.56,15.14,0,20.92s30.29,5.78,41.85,0,11.56-15.14,0-20.92S745.63,259.26,734.08,265Z"/><path class="cls-99" d="M735.56,266.8c-10.74,5.37-10.74,14.07,0,19.44s28.14,5.37,38.88,0,10.74-14.07,0-19.44S746.3,261.43,735.56,266.8Z"/><path class="cls-23" d="M726.85,259.12c-15.55,7.77-15.55,20.38,0,28.15s40.76,7.77,56.31,0,15.55-20.38,0-28.15S742.4,251.34,726.85,259.12Z"/><path class="cls-98" d="M726.85,257.75c-15.55,7.77-15.55,20.38,0,28.15s40.76,7.77,56.31,0,15.55-20.38,0-28.15S742.4,250,726.85,257.75Z"/><path class="cls-99" d="M735.56,262.89c-10.74,5.37-10.74,14.07,0,19.44s28.14,5.37,38.88,0,10.74-14.07,0-19.44S746.3,257.52,735.56,262.89Z"/><path class="cls-26" d="M734.08,261.13c-11.56,5.78-11.56,15.14,0,20.92s30.29,5.78,41.85,0,11.56-15.14,0-20.92S745.63,255.35,734.08,261.13Z"/><path class="cls-100" d="M734.08,261.13c-11.56,5.78-11.56,15.14,0,20.92s30.29,5.78,41.85,0,11.56-15.14,0-20.92S745.63,255.35,734.08,261.13Z"/><path class="cls-99" d="M735.56,262.89c-10.74,5.37-10.74,14.07,0,19.44s28.14,5.37,38.88,0,10.74-14.07,0-19.44S746.3,257.52,735.56,262.89Z"/><path class="cls-23" d="M726.85,255.21c-15.55,7.77-15.55,20.38,0,28.15s40.76,7.77,56.31,0,15.55-20.38,0-28.15S742.4,247.43,726.85,255.21Z"/><path class="cls-98" d="M726.85,253.84c-15.55,7.77-15.55,20.38,0,28.15s40.76,7.77,56.31,0,15.55-20.38,0-28.15S742.4,246.06,726.85,253.84Z"/><path class="cls-99" d="M735.56,259c-10.74,5.37-10.74,14.07,0,19.44s28.14,5.37,38.88,0,10.74-14.07,0-19.44S746.3,253.61,735.56,259Z"/><path class="cls-26" d="M734.08,257.22c-11.56,5.78-11.56,15.14,0,20.92s30.29,5.78,41.85,0,11.56-15.14,0-20.92S745.63,251.44,734.08,257.22Z"/><path class="cls-100" d="M734.08,257.22c-11.56,5.78-11.56,15.14,0,20.92s30.29,5.78,41.85,0,11.56-15.14,0-20.92S745.63,251.44,734.08,257.22Z"/><path class="cls-99" d="M735.56,259c-10.74,5.37-10.74,14.07,0,19.44s28.14,5.37,38.88,0,10.74-14.07,0-19.44S746.3,253.61,735.56,259Z"/><path class="cls-23" d="M726.85,251.3c-15.55,7.77-15.55,20.38,0,28.15s40.76,7.77,56.31,0,15.55-20.38,0-28.15S742.4,243.52,726.85,251.3Z"/><path class="cls-98" d="M726.85,249.93c-15.55,7.77-15.55,20.38,0,28.15s40.76,7.77,56.31,0,15.55-20.38,0-28.15S742.4,242.15,726.85,249.93Z"/><path class="cls-99" d="M735.56,255.07c-10.74,5.37-10.74,14.07,0,19.44s28.14,5.37,38.88,0,10.74-14.07,0-19.44S746.3,249.7,735.56,255.07Z"/><path class="cls-26" d="M734.08,253.31c-11.56,5.78-11.56,15.14,0,20.92s30.29,5.78,41.85,0,11.56-15.14,0-20.92S745.63,247.53,734.08,253.31Z"/><path class="cls-100" d="M734.08,253.31c-11.56,5.78-11.56,15.14,0,20.92s30.29,5.78,41.85,0,11.56-15.14,0-20.92S745.63,247.53,734.08,253.31Z"/><path class="cls-99" d="M735.56,255.07c-10.74,5.37-10.74,14.07,0,19.44s28.14,5.37,38.88,0,10.74-14.07,0-19.44S746.3,249.7,735.56,255.07Z"/><path class="cls-23" d="M726.85,247.39c-15.55,7.77-15.55,20.38,0,28.15s40.76,7.77,56.31,0,15.55-20.38,0-28.15S742.4,239.61,726.85,247.39Z"/><path class="cls-98" d="M726.85,246c-15.55,7.77-15.55,20.38,0,28.15s40.76,7.77,56.31,0,15.55-20.38,0-28.15S742.4,238.24,726.85,246Z"/><path class="cls-99" d="M735.56,251.16c-10.74,5.37-10.74,14.07,0,19.44s28.14,5.37,38.88,0,10.74-14.07,0-19.44S746.3,245.79,735.56,251.16Z"/><path class="cls-26" d="M734.08,249.4c-11.56,5.78-11.56,15.14,0,20.92s30.29,5.78,41.85,0,11.56-15.14,0-20.92S745.63,243.62,734.08,249.4Z"/><path class="cls-100" d="M734.08,249.4c-11.56,5.78-11.56,15.14,0,20.92s30.29,5.78,41.85,0,11.56-15.14,0-20.92S745.63,243.62,734.08,249.4Z"/><path class="cls-99" d="M735.56,251.16c-10.74,5.37-10.74,14.07,0,19.44s28.14,5.37,38.88,0,10.74-14.07,0-19.44S746.3,245.79,735.56,251.16Z"/><path class="cls-23" d="M726.85,243.48c-15.55,7.77-15.55,20.38,0,28.15s40.76,7.77,56.31,0,15.55-20.38,0-28.15S742.4,235.7,726.85,243.48Z"/><path class="cls-98" d="M726.85,242.11c-15.55,7.77-15.55,20.38,0,28.15s40.76,7.77,56.31,0,15.55-20.38,0-28.15S742.4,234.33,726.85,242.11Z"/><path class="cls-99" d="M735.56,247.25c-10.74,5.37-10.74,14.07,0,19.44s28.14,5.37,38.88,0,10.74-14.07,0-19.44S746.3,241.88,735.56,247.25Z"/><path class="cls-26" d="M734.08,245.49c-11.56,5.78-11.56,15.14,0,20.92s30.29,5.78,41.85,0,11.56-15.14,0-20.92S745.63,239.71,734.08,245.49Z"/><path class="cls-100" d="M734.08,245.49c-11.56,5.78-11.56,15.14,0,20.92s30.29,5.78,41.85,0,11.56-15.14,0-20.92S745.63,239.71,734.08,245.49Z"/><path class="cls-99" d="M735.56,247.25c-10.74,5.37-10.74,14.07,0,19.44s28.14,5.37,38.88,0,10.74-14.07,0-19.44S746.3,241.88,735.56,247.25Z"/><path class="cls-23" d="M726.85,239.57c-15.55,7.77-15.55,20.38,0,28.15s40.76,7.77,56.31,0,15.55-20.38,0-28.15S742.4,231.79,726.85,239.57Z"/><path class="cls-98" d="M726.85,238.2c-15.55,7.77-15.55,20.38,0,28.15s40.76,7.77,56.31,0,15.55-20.38,0-28.15S742.4,230.42,726.85,238.2Z"/><path class="cls-99" d="M735.56,243.34c-10.74,5.37-10.74,14.07,0,19.44s28.14,5.37,38.88,0,10.74-14.07,0-19.44S746.3,238,735.56,243.34Z"/><path class="cls-26" d="M734.08,241.58c-11.56,5.78-11.56,15.14,0,20.92s30.29,5.78,41.85,0,11.56-15.14,0-20.92S745.63,235.8,734.08,241.58Z"/><path class="cls-100" d="M734.08,241.58c-11.56,5.78-11.56,15.14,0,20.92s30.29,5.78,41.85,0,11.56-15.14,0-20.92S745.63,235.8,734.08,241.58Z"/><path class="cls-99" d="M735.56,243.34c-10.74,5.37-10.74,14.07,0,19.44s28.14,5.37,38.88,0,10.74-14.07,0-19.44S746.3,238,735.56,243.34Z"/><path class="cls-23" d="M726.85,235.66c-15.55,7.77-15.55,20.38,0,28.15s40.76,7.77,56.31,0,15.55-20.38,0-28.15S742.4,227.88,726.85,235.66Z"/><path class="cls-98" d="M726.85,234.29c-15.55,7.77-15.55,20.38,0,28.15s40.76,7.77,56.31,0,15.55-20.38,0-28.15S742.4,226.51,726.85,234.29Z"/><path class="cls-99" d="M735.56,239.43c-10.74,5.37-10.74,14.07,0,19.44s28.14,5.37,38.88,0,10.74-14.07,0-19.44S746.3,234,735.56,239.43Z"/><path class="cls-26" d="M734.08,237.67c-11.56,5.78-11.56,15.14,0,20.92s30.29,5.78,41.85,0,11.56-15.14,0-20.92S745.63,231.89,734.08,237.67Z"/><path class="cls-100" d="M734.08,237.67c-11.56,5.78-11.56,15.14,0,20.92s30.29,5.78,41.85,0,11.56-15.14,0-20.92S745.63,231.89,734.08,237.67Z"/><path class="cls-99" d="M735.56,239.43c-10.74,5.37-10.74,14.07,0,19.44s28.14,5.37,38.88,0,10.74-14.07,0-19.44S746.3,234,735.56,239.43Z"/><polygon class="cls-96" points="594.59 361.9 768.53 448.67 768.53 445.56 594.59 358.79 594.59 361.9"/><polygon class="cls-101" points="840.57 410.59 768.53 445.56 594.59 358.79 666.63 323.82 840.57 410.59"/><polygon class="cls-97" points="840.57 410.59 768.53 445.56 768.53 448.67 840.57 413.7 840.57 410.59"/><path class="cls-102" d="M717.61,385c-15.55,7.77-15.55,20.38,0,28.15s40.76,7.77,56.31,0,15.55-20.38,0-28.15S733.16,377.27,717.61,385Z"/><path class="cls-103" d="M717.61,383.68c-15.55,7.77-15.55,20.38,0,28.15s40.76,7.77,56.31,0,15.55-20.38,0-28.15S733.16,375.9,717.61,383.68Z"/><path class="cls-22" d="M726.33,388.82c-10.74,5.37-10.74,14.07,0,19.44s28.14,5.37,38.88,0,10.74-14.07,0-19.44S737.07,383.45,726.33,388.82Z"/><path class="cls-33" d="M724.85,387c-11.56,5.78-11.56,15.14,0,20.92s30.29,5.78,41.85,0,11.56-15.14,0-20.92S736.4,381.28,724.85,387Z"/><path class="cls-104" d="M724.85,387c-11.56,5.78-11.56,15.14,0,20.92s30.29,5.78,41.85,0,11.56-15.14,0-20.92S736.4,381.28,724.85,387Z"/><path class="cls-22" d="M726.33,388.82c-10.74,5.37-10.74,14.07,0,19.44s28.14,5.37,38.88,0,10.74-14.07,0-19.44S737.07,383.45,726.33,388.82Z"/><path class="cls-102" d="M717.61,381.14c-15.55,7.77-15.55,20.38,0,28.15s40.76,7.77,56.31,0,15.55-20.38,0-28.15S733.16,373.36,717.61,381.14Z"/><path class="cls-103" d="M717.61,379.77c-15.55,7.77-15.55,20.38,0,28.15s40.76,7.77,56.31,0,15.55-20.38,0-28.15S733.16,372,717.61,379.77Z"/><path class="cls-22" d="M726.33,384.91c-10.74,5.37-10.74,14.07,0,19.44s28.14,5.37,38.88,0,10.74-14.07,0-19.44S737.07,379.54,726.33,384.91Z"/><path class="cls-33" d="M724.85,383.15c-11.56,5.78-11.56,15.14,0,20.92s30.29,5.78,41.85,0,11.56-15.14,0-20.92S736.4,377.37,724.85,383.15Z"/><path class="cls-104" d="M724.85,383.15c-11.56,5.78-11.56,15.14,0,20.92s30.29,5.78,41.85,0,11.56-15.14,0-20.92S736.4,377.37,724.85,383.15Z"/><path class="cls-22" d="M726.33,384.91c-10.74,5.37-10.74,14.07,0,19.44s28.14,5.37,38.88,0,10.74-14.07,0-19.44S737.07,379.54,726.33,384.91Z"/><path class="cls-102" d="M717.61,377.23c-15.55,7.77-15.55,20.38,0,28.15s40.76,7.77,56.31,0,15.55-20.38,0-28.15S733.16,369.45,717.61,377.23Z"/><path class="cls-103" d="M717.61,375.86c-15.55,7.77-15.55,20.38,0,28.15s40.76,7.77,56.31,0,15.55-20.38,0-28.15S733.16,368.08,717.61,375.86Z"/><path class="cls-22" d="M726.33,381c-10.74,5.37-10.74,14.07,0,19.44s28.14,5.37,38.88,0,10.74-14.07,0-19.44S737.07,375.63,726.33,381Z"/><path class="cls-33" d="M724.85,379.24c-11.56,5.78-11.56,15.14,0,20.92s30.29,5.78,41.85,0,11.56-15.14,0-20.92S736.4,373.46,724.85,379.24Z"/><path class="cls-104" d="M724.85,379.24c-11.56,5.78-11.56,15.14,0,20.92s30.29,5.78,41.85,0,11.56-15.14,0-20.92S736.4,373.46,724.85,379.24Z"/><path class="cls-22" d="M726.33,381c-10.74,5.37-10.74,14.07,0,19.44s28.14,5.37,38.88,0,10.74-14.07,0-19.44S737.07,375.63,726.33,381Z"/><path class="cls-102" d="M717.61,373.31c-15.55,7.77-15.55,20.38,0,28.15s40.76,7.77,56.31,0,15.55-20.38,0-28.15S733.16,365.54,717.61,373.31Z"/><path class="cls-103" d="M717.61,372c-15.55,7.77-15.55,20.38,0,28.15s40.76,7.77,56.31,0,15.55-20.38,0-28.15S733.16,364.17,717.61,372Z"/><path class="cls-22" d="M726.33,377.09c-10.74,5.37-10.74,14.07,0,19.44s28.14,5.37,38.88,0,10.74-14.07,0-19.44S737.07,371.72,726.33,377.09Z"/><path class="cls-33" d="M724.85,375.33c-11.56,5.78-11.56,15.14,0,20.92s30.29,5.78,41.85,0,11.56-15.14,0-20.92S736.4,369.55,724.85,375.33Z"/><path class="cls-104" d="M724.85,375.33c-11.56,5.78-11.56,15.14,0,20.92s30.29,5.78,41.85,0,11.56-15.14,0-20.92S736.4,369.55,724.85,375.33Z"/><path class="cls-22" d="M726.33,377.09c-10.74,5.37-10.74,14.07,0,19.44s28.14,5.37,38.88,0,10.74-14.07,0-19.44S737.07,371.72,726.33,377.09Z"/><path class="cls-102" d="M717.61,369.4c-15.55,7.77-15.55,20.38,0,28.15s40.76,7.77,56.31,0,15.55-20.38,0-28.15S733.16,361.63,717.61,369.4Z"/><path class="cls-103" d="M717.61,368c-15.55,7.77-15.55,20.38,0,28.15s40.76,7.77,56.31,0,15.55-20.38,0-28.15S733.16,360.26,717.61,368Z"/><path class="cls-22" d="M726.33,373.18c-10.74,5.37-10.74,14.07,0,19.44s28.14,5.37,38.88,0,10.74-14.07,0-19.44S737.07,367.81,726.33,373.18Z"/><path class="cls-33" d="M724.85,371.42c-11.56,5.78-11.56,15.14,0,20.92s30.29,5.78,41.85,0,11.56-15.14,0-20.92S736.4,365.64,724.85,371.42Z"/><path class="cls-104" d="M724.85,371.42c-11.56,5.78-11.56,15.14,0,20.92s30.29,5.78,41.85,0,11.56-15.14,0-20.92S736.4,365.64,724.85,371.42Z"/><path class="cls-22" d="M726.33,373.18c-10.74,5.37-10.74,14.07,0,19.44s28.14,5.37,38.88,0,10.74-14.07,0-19.44S737.07,367.81,726.33,373.18Z"/><path class="cls-102" d="M717.61,365.49c-15.55,7.77-15.55,20.38,0,28.15s40.76,7.77,56.31,0,15.55-20.38,0-28.15S733.16,357.72,717.61,365.49Z"/><path class="cls-103" d="M717.61,364.13c-15.55,7.77-15.55,20.38,0,28.15s40.76,7.77,56.31,0,15.55-20.38,0-28.15S733.16,356.35,717.61,364.13Z"/><path class="cls-22" d="M726.33,369.26c-10.74,5.37-10.74,14.07,0,19.44s28.14,5.37,38.88,0,10.74-14.07,0-19.44S737.07,363.9,726.33,369.26Z"/><path class="cls-33" d="M724.85,367.5c-11.56,5.78-11.56,15.14,0,20.92s30.29,5.78,41.85,0,11.56-15.14,0-20.92S736.4,361.73,724.85,367.5Z"/><path class="cls-104" d="M724.85,367.5c-11.56,5.78-11.56,15.14,0,20.92s30.29,5.78,41.85,0,11.56-15.14,0-20.92S736.4,361.73,724.85,367.5Z"/><path class="cls-22" d="M726.33,369.26c-10.74,5.37-10.74,14.07,0,19.44s28.14,5.37,38.88,0,10.74-14.07,0-19.44S737.07,363.9,726.33,369.26Z"/><path class="cls-102" d="M717.61,361.58c-15.55,7.77-15.55,20.38,0,28.15s40.76,7.77,56.31,0,15.55-20.38,0-28.15S733.16,353.81,717.61,361.58Z"/><path class="cls-103" d="M717.61,360.21c-15.55,7.77-15.55,20.38,0,28.15s40.76,7.77,56.31,0,15.55-20.38,0-28.15S733.16,352.44,717.61,360.21Z"/><path class="cls-22" d="M726.33,365.35c-10.74,5.37-10.74,14.07,0,19.44s28.14,5.37,38.88,0,10.74-14.07,0-19.44S737.07,360,726.33,365.35Z"/><path class="cls-33" d="M724.85,363.59c-11.56,5.78-11.56,15.14,0,20.92s30.29,5.78,41.85,0,11.56-15.14,0-20.92S736.4,357.82,724.85,363.59Z"/><path class="cls-104" d="M724.85,363.59c-11.56,5.78-11.56,15.14,0,20.92s30.29,5.78,41.85,0,11.56-15.14,0-20.92S736.4,357.82,724.85,363.59Z"/><path class="cls-22" d="M726.33,365.35c-10.74,5.37-10.74,14.07,0,19.44s28.14,5.37,38.88,0,10.74-14.07,0-19.44S737.07,360,726.33,365.35Z"/><path class="cls-102" d="M717.61,357.67c-15.55,7.77-15.55,20.38,0,28.15s40.76,7.77,56.31,0,15.55-20.38,0-28.15S733.16,349.9,717.61,357.67Z"/><path class="cls-103" d="M717.61,356.3c-15.55,7.77-15.55,20.38,0,28.15s40.76,7.77,56.31,0,15.55-20.38,0-28.15S733.16,348.53,717.61,356.3Z"/><path class="cls-22" d="M726.33,361.44c-10.74,5.37-10.74,14.07,0,19.44s28.14,5.37,38.88,0,10.74-14.07,0-19.44S737.07,356.08,726.33,361.44Z"/><path class="cls-33" d="M724.85,359.68c-11.56,5.78-11.56,15.14,0,20.92s30.29,5.78,41.85,0,11.56-15.14,0-20.92S736.4,353.91,724.85,359.68Z"/><path class="cls-104" d="M724.85,359.68c-11.56,5.78-11.56,15.14,0,20.92s30.29,5.78,41.85,0,11.56-15.14,0-20.92S736.4,353.91,724.85,359.68Z"/><path class="cls-22" d="M726.33,361.44c-10.74,5.37-10.74,14.07,0,19.44s28.14,5.37,38.88,0,10.74-14.07,0-19.44S737.07,356.08,726.33,361.44Z"/><path class="cls-102" d="M717.61,353.76c-15.55,7.77-15.55,20.38,0,28.15s40.76,7.77,56.31,0,15.55-20.38,0-28.15S733.16,346,717.61,353.76Z"/><path class="cls-103" d="M717.61,352.39c-15.55,7.77-15.55,20.38,0,28.15s40.76,7.77,56.31,0,15.55-20.38,0-28.15S733.16,344.62,717.61,352.39Z"/><path class="cls-22" d="M726.33,357.53c-10.74,5.37-10.74,14.07,0,19.44s28.14,5.37,38.88,0,10.74-14.07,0-19.44S737.07,352.17,726.33,357.53Z"/><path class="cls-33" d="M724.85,355.77c-11.56,5.78-11.56,15.14,0,20.92s30.29,5.78,41.85,0,11.56-15.14,0-20.92S736.4,350,724.85,355.77Z"/><path class="cls-104" d="M724.85,355.77c-11.56,5.78-11.56,15.14,0,20.92s30.29,5.78,41.85,0,11.56-15.14,0-20.92S736.4,350,724.85,355.77Z"/><path class="cls-22" d="M726.33,357.53c-10.74,5.37-10.74,14.07,0,19.44s28.14,5.37,38.88,0,10.74-14.07,0-19.44S737.07,352.17,726.33,357.53Z"/><path class="cls-102" d="M717.61,349.85c-15.55,7.77-15.55,20.38,0,28.15s40.76,7.77,56.31,0,15.55-20.38,0-28.15S733.16,342.08,717.61,349.85Z"/><path class="cls-103" d="M717.61,348.48c-15.55,7.77-15.55,20.38,0,28.15s40.76,7.77,56.31,0,15.55-20.38,0-28.15S733.16,340.71,717.61,348.48Z"/><path class="cls-22" d="M726.33,353.62c-10.74,5.37-10.74,14.07,0,19.44s28.14,5.37,38.88,0,10.74-14.07,0-19.44S737.07,348.25,726.33,353.62Z"/><path class="cls-33" d="M724.85,351.86c-11.56,5.78-11.56,15.14,0,20.92s30.29,5.78,41.85,0,11.56-15.14,0-20.92S736.4,346.08,724.85,351.86Z"/><path class="cls-104" d="M724.85,351.86c-11.56,5.78-11.56,15.14,0,20.92s30.29,5.78,41.85,0,11.56-15.14,0-20.92S736.4,346.08,724.85,351.86Z"/><path class="cls-22" d="M726.33,353.62c-10.74,5.37-10.74,14.07,0,19.44s28.14,5.37,38.88,0,10.74-14.07,0-19.44S737.07,348.25,726.33,353.62Z"/><path class="cls-102" d="M717.61,345.94c-15.55,7.77-15.55,20.38,0,28.15s40.76,7.77,56.31,0,15.55-20.38,0-28.15S733.16,338.17,717.61,345.94Z"/><path class="cls-103" d="M717.61,344.57c-15.55,7.77-15.55,20.38,0,28.15s40.76,7.77,56.31,0,15.55-20.38,0-28.15S733.16,336.8,717.61,344.57Z"/><path class="cls-22" d="M726.33,349.71c-10.74,5.37-10.74,14.07,0,19.44s28.14,5.37,38.88,0,10.74-14.07,0-19.44S737.07,344.34,726.33,349.71Z"/><path class="cls-33" d="M724.85,348c-11.56,5.78-11.56,15.14,0,20.92s30.29,5.78,41.85,0,11.56-15.14,0-20.92S736.4,342.17,724.85,348Z"/><path class="cls-104" d="M724.85,348c-11.56,5.78-11.56,15.14,0,20.92s30.29,5.78,41.85,0,11.56-15.14,0-20.92S736.4,342.17,724.85,348Z"/><path class="cls-22" d="M726.33,349.71c-10.74,5.37-10.74,14.07,0,19.44s28.14,5.37,38.88,0,10.74-14.07,0-19.44S737.07,344.34,726.33,349.71Z"/><path class="cls-102" d="M717.61,342c-15.55,7.77-15.55,20.38,0,28.15s40.76,7.77,56.31,0,15.55-20.38,0-28.15S733.16,334.26,717.61,342Z"/><path class="cls-103" d="M717.61,340.66c-15.55,7.77-15.55,20.38,0,28.15s40.76,7.77,56.31,0,15.55-20.38,0-28.15S733.16,332.89,717.61,340.66Z"/><path class="cls-22" d="M726.33,345.8c-10.74,5.37-10.74,14.07,0,19.44s28.14,5.37,38.88,0,10.74-14.07,0-19.44S737.07,340.43,726.33,345.8Z"/><path class="cls-33" d="M724.85,344c-11.56,5.78-11.56,15.14,0,20.92s30.29,5.78,41.85,0,11.56-15.14,0-20.92S736.4,338.26,724.85,344Z"/><path class="cls-104" d="M724.85,344c-11.56,5.78-11.56,15.14,0,20.92s30.29,5.78,41.85,0,11.56-15.14,0-20.92S736.4,338.26,724.85,344Z"/><path class="cls-105" d="M726.33,345.8c-10.74,5.37-10.74,14.07,0,19.44s28.14,5.37,38.88,0,10.74-14.07,0-19.44S737.07,340.43,726.33,345.8Z"/><path class="cls-102" d="M644.53,355.92c-12.2,6.1-12.2,16,0,22.09s32,6.1,44.19,0,12.2-16,0-22.09S656.73,349.82,644.53,355.92Z"/><path class="cls-103" d="M644.53,354.85c-12.2,6.1-12.2,16,0,22.09s32,6.1,44.19,0,12.2-16,0-22.09S656.73,348.75,644.53,354.85Z"/><path class="cls-22" d="M651.37,358.88c-8.43,4.21-8.43,11,0,15.26s22.08,4.21,30.51,0,8.43-11,0-15.26S659.79,354.67,651.37,358.88Z"/><path class="cls-33" d="M650.21,357.5c-9.07,4.53-9.07,11.89,0,16.42s23.77,4.53,32.84,0,9.07-11.89,0-16.42S659.27,353,650.21,357.5Z"/><path class="cls-104" d="M650.21,357.5c-9.07,4.53-9.07,11.89,0,16.42s23.77,4.53,32.84,0,9.07-11.89,0-16.42S659.27,353,650.21,357.5Z"/><path class="cls-22" d="M651.37,358.88c-8.43,4.21-8.43,11,0,15.26s22.08,4.21,30.51,0,8.43-11,0-15.26S659.79,354.67,651.37,358.88Z"/><path class="cls-102" d="M644.53,352.86c-12.2,6.1-12.2,16,0,22.09s32,6.1,44.19,0,12.2-16,0-22.09S656.73,346.75,644.53,352.86Z"/><path class="cls-103" d="M644.53,351.78c-12.2,6.1-12.2,16,0,22.09s32,6.1,44.19,0,12.2-16,0-22.09S656.73,345.68,644.53,351.78Z"/><path class="cls-22" d="M651.37,355.81c-8.43,4.21-8.43,11,0,15.26s22.08,4.21,30.51,0,8.43-11,0-15.26S659.79,351.6,651.37,355.81Z"/><path class="cls-33" d="M650.21,354.43c-9.07,4.53-9.07,11.89,0,16.42s23.77,4.53,32.84,0,9.07-11.89,0-16.42S659.27,349.9,650.21,354.43Z"/><path class="cls-104" d="M650.21,354.43c-9.07,4.53-9.07,11.89,0,16.42s23.77,4.53,32.84,0,9.07-11.89,0-16.42S659.27,349.9,650.21,354.43Z"/><path class="cls-22" d="M651.37,355.81c-8.43,4.21-8.43,11,0,15.26s22.08,4.21,30.51,0,8.43-11,0-15.26S659.79,351.6,651.37,355.81Z"/><path class="cls-102" d="M644.53,349.79c-12.2,6.1-12.2,16,0,22.09s32,6.1,44.19,0,12.2-16,0-22.09S656.73,343.69,644.53,349.79Z"/><path class="cls-103" d="M644.53,348.71c-12.2,6.1-12.2,16,0,22.09s32,6.1,44.19,0,12.2-16,0-22.09S656.73,342.61,644.53,348.71Z"/><path class="cls-22" d="M651.37,352.75c-8.43,4.21-8.43,11,0,15.26s22.08,4.21,30.51,0,8.43-11,0-15.26S659.79,348.53,651.37,352.75Z"/><path class="cls-33" d="M650.21,351.36c-9.07,4.53-9.07,11.89,0,16.42s23.77,4.53,32.84,0,9.07-11.89,0-16.42S659.27,346.83,650.21,351.36Z"/><path class="cls-104" d="M650.21,351.36c-9.07,4.53-9.07,11.89,0,16.42s23.77,4.53,32.84,0,9.07-11.89,0-16.42S659.27,346.83,650.21,351.36Z"/><path class="cls-22" d="M651.37,352.75c-8.43,4.21-8.43,11,0,15.26s22.08,4.21,30.51,0,8.43-11,0-15.26S659.79,348.53,651.37,352.75Z"/><path class="cls-102" d="M644.53,346.72c-12.2,6.1-12.2,16,0,22.09s32,6.1,44.19,0,12.2-16,0-22.09S656.73,340.62,644.53,346.72Z"/><path class="cls-103" d="M644.53,345.64c-12.2,6.1-12.2,16,0,22.09s32,6.1,44.19,0,12.2-16,0-22.09S656.73,339.54,644.53,345.64Z"/><path class="cls-22" d="M651.37,349.68c-8.43,4.21-8.43,11,0,15.26s22.08,4.21,30.51,0,8.43-11,0-15.26S659.79,345.46,651.37,349.68Z"/><path class="cls-33" d="M650.21,348.3c-9.07,4.53-9.07,11.89,0,16.42s23.77,4.53,32.84,0,9.07-11.89,0-16.42S659.27,343.76,650.21,348.3Z"/><path class="cls-104" d="M650.21,348.3c-9.07,4.53-9.07,11.89,0,16.42s23.77,4.53,32.84,0,9.07-11.89,0-16.42S659.27,343.76,650.21,348.3Z"/><path class="cls-22" d="M651.37,349.68c-8.43,4.21-8.43,11,0,15.26s22.08,4.21,30.51,0,8.43-11,0-15.26S659.79,345.46,651.37,349.68Z"/><path class="cls-102" d="M644.53,343.65c-12.2,6.1-12.2,16,0,22.09s32,6.1,44.19,0,12.2-16,0-22.09S656.73,337.55,644.53,343.65Z"/><path class="cls-103" d="M644.53,342.57c-12.2,6.1-12.2,16,0,22.09s32,6.1,44.19,0,12.2-16,0-22.09S656.73,336.47,644.53,342.57Z"/><path class="cls-22" d="M651.37,346.61c-8.43,4.21-8.43,11,0,15.26s22.08,4.21,30.51,0,8.43-11,0-15.26S659.79,342.4,651.37,346.61Z"/><path class="cls-33" d="M650.21,345.23c-9.07,4.53-9.07,11.89,0,16.42s23.77,4.53,32.84,0,9.07-11.89,0-16.42S659.27,340.69,650.21,345.23Z"/><path class="cls-104" d="M650.21,345.23c-9.07,4.53-9.07,11.89,0,16.42s23.77,4.53,32.84,0,9.07-11.89,0-16.42S659.27,340.69,650.21,345.23Z"/><path class="cls-22" d="M651.37,346.61c-8.43,4.21-8.43,11,0,15.26s22.08,4.21,30.51,0,8.43-11,0-15.26S659.79,342.4,651.37,346.61Z"/><path class="cls-102" d="M644.53,340.58c-12.2,6.1-12.2,16,0,22.09s32,6.1,44.19,0,12.2-16,0-22.09S656.73,334.48,644.53,340.58Z"/><path class="cls-103" d="M644.53,339.51c-12.2,6.1-12.2,16,0,22.09s32,6.1,44.19,0,12.2-16,0-22.09S656.73,333.4,644.53,339.51Z"/><path class="cls-22" d="M651.37,343.54c-8.43,4.21-8.43,11,0,15.26s22.08,4.21,30.51,0,8.43-11,0-15.26S659.79,339.33,651.37,343.54Z"/><path class="cls-33" d="M650.21,342.16c-9.07,4.53-9.07,11.89,0,16.42s23.77,4.53,32.84,0,9.07-11.89,0-16.42S659.27,337.62,650.21,342.16Z"/><path class="cls-104" d="M650.21,342.16c-9.07,4.53-9.07,11.89,0,16.42s23.77,4.53,32.84,0,9.07-11.89,0-16.42S659.27,337.62,650.21,342.16Z"/><path class="cls-22" d="M651.37,343.54c-8.43,4.21-8.43,11,0,15.26s22.08,4.21,30.51,0,8.43-11,0-15.26S659.79,339.33,651.37,343.54Z"/><path class="cls-19" d="M633.32,417.7c0,4.58,3.71,10.14,8.29,12.43s8.29.43,8.29-4.14-3.71-10.14-8.29-12.43S633.32,413.12,633.32,417.7Z"/><polygon class="cls-19" points="644.95 431.95 647.72 430.48 648.76 421.94 642.74 415.09 636.07 412.87 632.46 414.76 641.75 418.38 644.71 422.38 645.59 428.63 644.95 431.95"/><path class="cls-12" d="M630.3,419.3c0,4.58,3.71,10.14,8.29,12.43s8.29.43,8.29-4.14-3.71-10.14-8.29-12.43S630.3,414.72,630.3,419.3Z"/><path class="cls-26" d="M632.46,420.38c0,3.38,2.74,7.49,6.12,9.19s6.12.32,6.12-3.06-2.74-7.5-6.12-9.19S632.46,417,632.46,420.38Z"/><path class="cls-26" d="M619.36,381.94V247.81c0-9.92,8.07-14,18-9L737,288.66c9.92,5,18,17.06,18,27V449.78c0,9.92-8.07,14-18,9l-99.66-49.84C627.43,404,619.36,391.86,619.36,381.94Zm18-137.51c-6.82-3.41-12.37-.64-12.37,6.18V384.75c0,6.82,5.55,15.14,12.37,18.55L737,453.15c6.82,3.41,12.37.64,12.37-6.18V312.83c0-6.82-5.55-15.14-12.37-18.55Z"/><path class="cls-29" d="M616.55,384.19V250c0-9.92,8.07-14,18-9l99.65,49.9c9.92,5,18,17.06,18,27V452c0,9.92-8.07,14-18,9l-99.66-49.84C624.62,406.21,616.55,394.11,616.55,384.19Zm18-137.51c-6.82-3.41-12.37-.64-12.37,6.18V387c0,6.82,5.55,15.14,12.37,18.55l99.66,49.84c6.82,3.41,12.37.64,12.37-6.18V315.08c0-6.82-5.55-15.14-12.37-18.55Z"/><polygon class="cls-106" points="847.64 28.49 847.63 51.12 845.32 52.28 845.33 28.2 847.64 28.49"/><polygon class="cls-107" points="858.2 35.16 858.21 24.02 834.77 35.66 834.76 46.65 858.2 35.16"/><polygon class="cls-108" points="834.76 46.65 824.76 39.23 824.76 28.23 834.77 35.66 834.76 46.65"/><path class="cls-26" d="M824.18,36.77a1.81,1.81,0,0,1,.72-1.66l1.52-1.47c.54-.76,1.66-.73,3,.23,1.83,1.35,3.58,4.33,3.58,6.28v.4a1.81,1.81,0,0,1-.72,1.66l-1.75,1.27c-.54.76-1.7.64-3-.32a8.59,8.59,0,0,1-3.3-6V37C824.23,36.91,824.18,36.84,824.18,36.77Z"/><path class="cls-109" d="M823.8,37.12a8.59,8.59,0,0,0,3.3,6c1.83,1.35,3.31.87,3.31-1.08a8.59,8.59,0,0,0-3.3-6C825.28,34.69,823.8,35.17,823.8,37.12Z"/><polygon class="cls-110" points="848.2 16.6 858.21 24.02 827.11 39.57 817.1 32.15 848.2 16.6"/><polygon class="cls-111" points="861.73 44.8 867.49 47.6 867.49 38.89 861.73 36.09 861.73 44.8"/><polygon class="cls-106" points="864.27 40.22 845.32 49.77 845.32 52.28 864.24 42.79 864.27 40.22"/><path class="cls-17" d="M415,606.11c-13.39,6.7-13.39,17.55,0,24.25s35.1,6.7,48.49,0,13.39-17.55,0-24.25S428.39,599.41,415,606.11Z"/><polygon class="cls-23" points="483.86 540.05 473.54 617.38 404.96 617.38 394.64 540.05 483.86 540.05"/><path class="cls-2" d="M407.71,524.28c-17.42,8.71-17.42,22.83,0,31.54s45.66,8.71,63.08,0,17.42-22.83,0-31.54S425.13,515.57,407.71,524.28Z"/><path class="cls-1" d="M409.8,525.32c-16.26,8.13-16.26,21.31,0,29.45s42.63,8.13,58.89,0,16.26-21.32,0-29.45S426.07,517.19,409.8,525.32Z"/><path class="cls-23" d="M415,604.68c-13.39,6.7-13.39,17.55,0,24.25s35.1,6.7,48.49,0,13.39-17.55,0-24.25S428.39,598,415,604.68Z"/><path class="cls-2" d="M472.59,585.88l-4.3,31.5s-5.42,11.77-27.39,11.2C460.16,617.37,464.85,607.68,472.59,585.88Z"/><path class="cls-2" d="M480.47,543c-1.24,4.29-5.16,8.43-11.77,11.74-16.26,8.13-42.63,8.13-58.89,0-7.35-3.68-11.37-8.38-12.07-13.19l-.08,0a30.49,30.49,0,0,1-2.83-3.43c-1.11,6.34,3.18,12.87,12.89,17.73,17.42,8.71,45.66,8.71,63.08,0,6.57-3.29,10.66-7.34,12.28-11.59A7.85,7.85,0,0,1,480.47,543Z"/><polygon class="cls-26" points="556.63 460.32 568.15 469.8 579.67 460.32 570.19 471.84 579.67 483.36 568.15 473.88 556.63 483.36 566.12 471.84 556.63 460.32"/><polygon class="cls-26" points="568.15 439.5 571.01 468.98 600.49 471.84 571.01 474.7 568.15 504.18 565.29 474.7 535.81 471.84 565.29 468.98 568.15 439.5"/><polygon class="cls-26" points="537.26 510.01 544.71 516.14 552.15 510.01 546.02 517.46 552.15 524.9 544.71 518.78 537.26 524.9 543.39 517.46 537.26 510.01"/><polygon class="cls-26" points="544.71 496.56 546.55 515.61 565.6 517.46 546.55 519.31 544.71 538.36 542.86 519.31 523.81 517.46 542.86 515.61 544.71 496.56"/><polygon class="cls-26" points="504 434.82 509.73 439.55 515.47 434.82 510.75 440.56 515.47 446.3 509.73 441.57 504 446.3 508.72 440.56 504 434.82"/><polygon class="cls-26" points="509.73 424.46 511.16 439.14 525.83 440.56 511.16 441.98 509.73 456.66 508.31 441.98 493.63 440.56 508.31 439.14 509.73 424.46"/></g></g></svg>