<svg id="Слой_1" data-name="Слой 1" xmlns="http://www.w3.org/2000/svg" viewBox="0 0 278.16 22.95"><defs><style>.cls-1{fill:#fff;}</style></defs><title>Монтажная область 1</title><g id="Слой_2" data-name="Слой 2"><g id="Слой_3" data-name="Слой 3"><path class="cls-1" d="M0,10.57C0,4.92,3.55,1.35,9.47,1.35a12,12,0,0,1,5.35,1.07l-1,2.52a13.18,13.18,0,0,0-4.35-.72c-3.4,0-6,1.85-6,6.1s2.72,6.35,6.5,6.35a13.46,13.46,0,0,0,4.12-.57l.75,2.62a14.09,14.09,0,0,1-5.3.87C3.32,19.59,0,16.17,0,10.57Z"/><path class="cls-1" d="M23.53,5.64H29.6c3,0,4.67,1.27,4.67,3.62a3,3,0,0,1-1.8,2.8A3.1,3.1,0,0,1,35,15.23c0,2.52-2.1,4-5.27,4H23.53Zm5,5.65c1.57,0,2.52-.52,2.52-1.67S30.1,8,28.6,8H26.83v3.27ZM29,16.91c1.45,0,2.57-.42,2.57-1.75s-1.1-1.75-2.82-1.77H26.83V17Z"/><path class="cls-1" d="M37.8,5.64h3.32v7.22l-.08,2,1.3-2,5-7.22h3.32V19.29H47.32V12.12l0-2-1.27,2-5,7.17H37.78Z"/><path class="cls-1" d="M52.93,16.77h1.5a11.87,11.87,0,0,0,1.65-4.25,60.56,60.56,0,0,0,.67-6.87h9.57V16.77h2.2V23H65.45V19.28h-9.4V23H53Zm10,0V8.17H59.58a46.17,46.17,0,0,1-.62,5.3,10.92,10.92,0,0,1-1.12,3.3Z"/><path class="cls-1" d="M70.15,12.67c0-5.45,2.87-7.35,6.45-7.35,4.2,0,5.8,2.55,5.8,6.87v1.2H73.5c0,2.9,1.87,3.5,4.07,3.5a15.36,15.36,0,0,0,3.92-.57L82,18.84a15.4,15.4,0,0,1-4.9.75C72.93,19.59,70.15,18,70.15,12.67ZM79,11.17c0-2.07-.77-3.45-2.5-3.45-1.57,0-2.77,1.2-2.9,3.45Z"/><path class="cls-1" d="M84.38,12.59c0-4.6,2.72-7.3,6.85-7.3,4.47,0,6.62,2.67,6.62,7.15,0,4.75-2.9,7.15-6.87,7.15C86.75,19.59,84.38,17,84.38,12.59Zm10.07-.1c0-2.35-.62-4.55-3.32-4.55s-3.37,2.2-3.37,4.55c0,2.52.8,4.42,3.4,4.42s3.29-2,3.29-4.42Z"/><path class="cls-1" d="M100.7,5.64H104v5.52h5.72V5.64h3.32V19.29h-3.32V13.72H104v5.57H100.7Z"/><path class="cls-1" d="M115.75,15.54c0-3.5,3.07-4.17,5.62-4.2h2.7V10.17c0-1.57-.87-2-2.72-2a13.33,13.33,0,0,0-4,.62l-.67-2.45a13.22,13.22,0,0,1,5.22-1c3.6,0,5.37,1.17,5.37,4.07V16c0,.67.6.82,1.32.85l-.12,2.52h-.65c-1.67,0-3.17-.32-3.5-1.55A6.66,6.66,0,0,1,120,19.5C117.5,19.52,115.75,18.12,115.75,15.54Zm8.32.5v-2.7l-2.52.1c-1.55,0-2.55.65-2.55,1.85s.87,1.62,2,1.62A7.54,7.54,0,0,0,124.07,16Z"/><path class="cls-1" d="M130.78,11.82c0-3,.55-7.32,2.3-8.82,1.45-1.27,5.32-2.25,9.57-3l.52,3c-3.8.6-7.07,1.12-8,1.85A4.83,4.83,0,0,0,134,7.92a9.33,9.33,0,0,1,4.57-1.12C142,6.8,144,8.47,144,12.5c0,4.9-3,7.07-6.92,7.07S130.78,17.19,130.78,11.82Zm9.9.8c0-1.9-.85-3.3-3.07-3.3a8.22,8.22,0,0,0-3.62,1v1.47c0,3.52,1.15,5.12,3.37,5.12,2.56,0,3.31-2.24,3.31-4.29Z"/><path class="cls-1" d="M145.2,17A4.83,4.83,0,0,0,147.87,15c.65-1.15,1.13-4.72,1.27-9.42h9.47V19.26h-3.29V8.17H152c-.37,4.6-.9,7.4-1.77,8.92a6.29,6.29,0,0,1-4.1,2.6Z"/><path class="cls-1" d="M168.25,13.72h-2.63v5.57h-3.3V5.64h3.32v5.52h2.68A6.37,6.37,0,0,1,175,5.31c4.55,0,6.65,2.65,6.65,7.15,0,4.7-2.9,7.1-6.85,7.1S168.62,17.42,168.25,13.72Zm10-1.25c0-2.32-.62-4.5-3.32-4.5s-3.37,2.17-3.37,4.52c0,2.52.8,4.4,3.42,4.4S178.25,15,178.25,12.47Z"/><path class="cls-1" d="M183.05,16.77h1.5a11.87,11.87,0,0,0,1.65-4.25,60.67,60.67,0,0,0,.67-6.87h9.52V16.77h2.2V23h-3.07V19.28h-9.4V23h-3.07Zm10,0V8.17h-3.33a46.17,46.17,0,0,1-.62,5.3,10.93,10.93,0,0,1-1.12,3.3Z"/><path class="cls-1" d="M200.32,12.67c0-5.45,2.87-7.35,6.45-7.35,4.2,0,5.8,2.55,5.8,6.87v1.2h-8.9c0,2.9,1.87,3.5,4.07,3.5a15.36,15.36,0,0,0,3.92-.57l.52,2.52a15.4,15.4,0,0,1-4.9.75C203.05,19.59,200.32,18,200.32,12.67Zm8.82-1.5c0-2.07-.77-3.45-2.5-3.45s-2.77,1.2-2.9,3.45Z"/><path class="cls-1" d="M215.32,5.64h3.32v5.52h5.72V5.64h3.32V19.29h-3.32V13.72h-5.72v5.57h-3.32Z"/><path class="cls-1" d="M231.42,5.64h3.32v7.22l-.08,2,1.3-2,5-7.22h3.36V19.29H241V12.12l0-2-1.27,2-5,7.17h-3.36Z"/><path class="cls-1" d="M247.2,12.67c0-5.45,2.87-7.35,6.45-7.35,4.2,0,5.8,2.55,5.8,6.87v1.2h-8.9c0,2.9,1.87,3.5,4.07,3.5a15.36,15.36,0,0,0,3.92-.57l.52,2.52a15.4,15.4,0,0,1-4.9.75C250,19.59,247.2,18,247.2,12.67Zm8.82-1.5c0-2.07-.77-3.45-2.5-3.45-1.57,0-2.77,1.2-2.9,3.45Z"/><path class="cls-1" d="M262.32,5.64h4.2l3.57,10.87,4-10.87h4.07V19.29H275v-6l.1-3.17-3.22,9.17h-3.7l-2.92-9.22.17,3.22v6h-3.15Z"/></g></g></svg>